# Blender 4.1.1
# www.blender.org
mtllib apronmiku.mtl
o 01_HEAD_FACE
v -0.071191 0.017597 0.087424
v -0.105101 0.035112 0.044305
v -0.105460 0.021788 0.053482
v -0.011404 0.014122 0.114149
v 0.071191 0.017597 0.087424
v 0.105101 0.035112 0.044305
v 0.105460 0.021788 0.053482
v 0.011404 0.014122 0.114149
v 0.000000 0.034299 0.101125
v -0.071191 0.030668 0.081514
v 0.071191 0.030668 0.081514
v 0.011219 0.167938 0.106499
v 0.000000 0.124878 0.116466
v -0.075874 0.124117 0.086575
v 0.075874 0.124117 0.086575
v -0.117114 0.106363 0.020457
v -0.048941 0.161356 0.089518
v 0.117114 0.106363 0.020457
vn -0.3580 0.3847 0.8508
vn -0.6872 0.2993 0.6620
vn -0.5925 0.4677 0.6559
vn 0.3580 0.3847 0.8508
vn 0.6872 0.2993 0.6620
vn 0.5925 0.4677 0.6559
vn -0.2379 0.6181 0.7492
vn 0.2379 0.6181 0.7492
vn -0.3651 -0.0686 0.9284
vn -0.2892 0.2867 0.9133
vn -0.7415 -0.0733 0.6670
vn 0.2544 -0.1615 0.9535
vn 0.3650 0.1187 0.9234
vn 0.7415 -0.0733 0.6670
vn -0.3616 0.1893 0.9129
vn -0.8518 0.0314 0.5229
vn 0.8518 0.0314 0.5229
vn -0.2544 -0.1615 0.9535
vn 0.3651 -0.0686 0.9284
vt 0.049890 0.883963
vt 0.049890 0.870147
vt 0.113084 0.866475
vt 0.014047 0.888660
vt 0.013668 0.874578
vt 0.137191 0.866475
vt 0.200386 0.870147
vt 0.200386 0.883963
vt 0.236228 0.888660
vt 0.236608 0.874578
vt 0.125138 0.887802
vt 0.125138 0.983542
vt 0.044939 0.982738
vt 0.139709 0.999990
vt 0.076120 0.999234
vt 0.205336 0.982738
vt 0.001350 0.963972
vt 0.248926 0.963972
s 0
usemtl m2
f 10/1/1 1/2/1 4/3/1
f 10/1/2 2/4/2 1/2/2
f 2/4/3 3/5/3 1/2/3
f 8/6/4 5/7/4 11/8/4
f 11/8/5 5/7/5 6/9/5
f 6/9/6 5/7/6 7/10/6
f 9/11/7 10/1/7 4/3/7
f 9/11/8 8/6/8 11/8/8
f 13/12/9 14/13/9 10/1/9
f 12/14/10 17/15/10 13/12/10
f 2/4/11 10/1/11 14/13/11
f 13/12/12 9/11/12 11/8/12
f 15/16/13 12/14/13 13/12/13
f 15/16/14 11/8/14 6/9/14
f 17/15/15 14/13/15 13/12/15
f 16/17/16 2/4/16 14/13/16
f 18/18/17 15/16/17 6/9/17
f 9/11/18 13/12/18 10/1/18
f 15/16/19 13/12/19 11/8/19
