# Blender 4.1.1
# www.blender.org
mtllib apronmiku.mtl
o 02_BODY
v -0.061820 0.341920 -0.104511
v -0.061820 0.320291 -0.003866
v 0.061820 0.341920 -0.104511
v 0.061820 0.320291 -0.003866
v 0.070975 0.065289 -0.076595
v -0.070975 0.065289 -0.076595
v 0.097983 0.065289 0.057000
v -0.116507 0.301920 0.002935
v -0.093731 0.271076 -0.135300
v -0.100739 0.316920 -0.070065
v -0.059561 0.196380 0.106013
v 0.116507 0.301920 0.002935
v 0.059561 0.196380 0.106013
v 0.000000 0.301291 0.045134
v -0.060086 0.366787 -0.104511
v -0.060086 0.344159 0.001134
v 0.060086 0.366787 -0.104511
v 0.060086 0.344159 -0.002866
v 0.000000 0.328436 0.057025
v 0.000000 0.065289 0.110005
v -0.097983 0.065289 0.057000
v 0.093731 0.271076 -0.135300
v 0.100739 0.316920 -0.070065
v -0.038006 0.351774 -0.070218
v 0.000000 0.319739 -0.011222
v 0.000000 0.387444 -0.000116
v -0.043513 0.405932 -0.066610
v 0.043513 0.405932 -0.066610
v 0.038006 0.351774 -0.070218
vn -0.0000 0.0304 0.9995
vn 0.0087 0.9650 0.2621
vn -0.4675 -0.1861 0.8642
vn -0.7284 0.5213 -0.4446
vn -0.0000 0.5019 0.8649
vn 0.7284 0.5213 -0.4446
vn 0.4675 -0.1861 0.8642
vn 0.8500 0.0532 0.5241
vn -0.8500 0.0532 0.5241
vn 0.9755 0.1166 -0.1867
vn -0.9755 0.1166 -0.1867
vn -0.0000 0.3986 -0.9171
vn 0.0035 0.9770 0.2133
vn -0.6714 -0.2123 0.7100
vn -0.0000 -0.0000 -1.0000
vn 0.9974 0.0706 0.0155
vn -0.9975 0.0694 0.0149
vn 0.6824 -0.1572 0.7139
vn -0.2591 0.6382 0.7250
vn 0.2591 0.6382 0.7250
vn -0.0000 -0.2743 -0.9616
vn 0.4398 -0.8962 -0.0577
vn 0.4252 -0.8962 -0.1264
vn 0.4230 -0.8962 -0.1336
vn 0.3213 -0.7893 -0.5233
vn 0.1462 -0.7893 -0.5964
vn 0.0517 -0.7893 -0.6119
vn 0.4977 -0.8581 0.1265
vn 0.3333 -0.8581 0.3907
vn 0.3869 -0.8581 0.3377
vn 0.3552 0.9207 0.1619
vn 0.9775 -0.1330 -0.1639
vn -0.9775 -0.1330 -0.1639
vn -0.3552 0.9207 0.1619
vn -0.8523 -0.1005 0.5132
vn -0.0000 0.0665 -0.9978
vn 0.8523 -0.1005 0.5132
vt 0.187500 0.613281
vt 0.265625 0.851562
vt 0.109375 0.851562
vt 0.787109 0.832031
vt 0.833984 0.796875
vt 0.880859 0.832031
vt 0.000000 0.613281
vt 0.324219 1.000000
vt 0.277344 0.933594
vt 0.269531 0.972656
vt 0.187500 0.976562
vt 0.269531 0.972656
vt 0.324219 1.000000
vt 0.027344 0.960938
vt 0.036719 0.972691
vt 0.022651 0.952444
vt 0.020973 0.916311
vt 0.020973 0.916311
vt 0.480469 1.000000
vt 0.529297 0.933594
vt 0.880859 0.890625
vt 0.787109 0.890625
vt 0.250000 0.060547
vt 0.148438 0.060547
vt 0.167969 0.025391
vt 0.250000 0.025391
vt 0.144531 0.037109
vt 0.000000 0.037109
vt 0.007812 0.017578
vt 0.136719 0.017578
vt 0.246094 0.056641
vt 0.148438 0.029297
vt 0.242188 0.033203
vt 0.253906 0.060547
vt 0.105469 1.000000
vt 0.530479 0.617188
vt 0.276161 0.617188
vt 0.692507 0.661771
vt 0.595021 0.661771
vt 0.253906 0.722656
vt 0.253906 0.625000
vt 0.265625 0.671875
vt 0.919922 0.894531
vt 0.818359 0.910156
vt 0.787109 1.000000
vt 0.916016 1.000000
vt 0.783203 0.617188
vt 0.736328 0.976562
vt 0.583984 1.000000
vt 0.541016 0.617188
vt 0.583984 1.000000
vt 0.919922 0.894531
vt 0.916016 1.000000
vt 0.787109 1.000000
vt 0.828125 0.847656
vt 0.843750 0.847656
vt 0.843750 0.859375
vt 0.828125 0.859375
s 0
usemtl m0
f 20/1/1 13/2/1 11/3/1
f 16/4/2 19/5/2 18/6/2
f 11/3/3 21/7/3 20/1/3
f 1/8/4 9/9/4 10/10/4
f 11/3/5 13/2/5 14/11/5
f 23/12/6 22/9/6 3/13/6
f 20/1/7 7/7/7 13/3/7
f 12/14/8 13/3/8 7/7/8
f 11/3/9 8/14/9 21/7/9
f 22/15/10 23/16/10 12/17/10
f 8/18/11 10/16/11 9/15/11
f 1/19/12 3/8/12 22/9/12 9/20/12
f 16/4/13 18/6/13 17/21/13 15/22/13
f 19/23/14 16/24/14 2/25/14 14/26/14
f 15/27/15 17/28/15 3/29/15 1/30/15
f 17/31/16 18/24/16 4/32/16 3/33/16
f 16/24/17 15/31/17 1/33/17 2/32/17
f 14/26/18 4/25/18 18/24/18 19/34/18
f 14/11/19 2/35/19 8/14/19 11/3/19
f 14/11/20 13/3/20 12/14/20 4/35/20
f 6/36/21 9/20/21 22/9/21 5/37/21
f 5/38/22 7/39/23 21/39/24
f 21/39/25 6/38/26 5/38/27
f 21/40/28 7/41/29 20/42/30
f 12/43/31 23/44/31 3/45/31 4/46/31
f 5/47/32 22/48/32 12/49/32 7/50/32
f 6/47/33 21/50/33 8/51/33 9/48/33
f 8/52/34 2/53/34 1/54/34 10/44/34
f 24/55/35 25/56/35 26/57/35 27/58/35
f 24/55/36 27/58/36 28/58/36 29/55/36
f 29/55/37 28/58/37 26/57/37 25/56/37
