# Blender 4.1.1
# www.blender.org
mtllib apronmiku.mtl
o 02_BODY
v -0.061820 0.341920 -0.104511
v -0.061820 0.320291 -0.003866
v 0.061820 0.341920 -0.104511
v 0.061820 0.320291 -0.003866
v 0.070975 0.065289 -0.076595
v -0.070975 0.065289 -0.076595
v 0.097983 0.065289 0.057000
v -0.097983 0.065289 0.057000
v -0.116507 0.301920 0.002935
v -0.093731 0.271076 -0.135300
v -0.100739 0.316920 -0.070065
v -0.059561 0.196380 0.106013
v 0.116507 0.301920 0.002935
v 0.059561 0.196380 0.106013
v 0.000000 0.301291 0.045134
v -0.060086 0.366787 -0.104511
v -0.060086 0.344159 0.001134
v 0.060086 0.366787 -0.104511
v 0.060086 0.344159 -0.002866
v 0.000000 0.328436 0.057025
v 0.000000 0.065289 0.110005
v 0.000000 0.000855 0.011531
v 0.093731 0.271076 -0.135300
v 0.100739 0.316920 -0.070065
v -0.038006 0.351774 -0.058264
v 0.000000 0.319739 -0.011222
v 0.000000 0.387444 -0.000116
v 0.000000 0.345509 -0.086888
v -0.043513 0.405932 -0.054656
v 0.000000 0.413187 -0.088637
v 0.038006 0.351774 -0.058264
v 0.043513 0.405932 -0.054656
vn -0.0000 0.0304 0.9995
vn 0.0087 0.9650 0.2621
vn -0.4675 -0.1861 0.8642
vn -0.7284 0.5213 -0.4446
vn -0.0000 0.5019 0.8649
vn 0.7284 0.5213 -0.4446
vn 0.4675 -0.1861 0.8642
vn 0.8500 0.0532 0.5241
vn -0.8500 0.0532 0.5241
vn 0.9755 0.1166 -0.1867
vn -0.9755 0.1166 -0.1867
vn -0.0000 0.3986 -0.9171
vn 0.0035 0.9770 0.2133
vn -0.6714 -0.2123 0.7100
vn -0.0000 -0.0000 -1.0000
vn 0.9974 0.0706 0.0155
vn -0.9975 0.0694 0.0149
vn 0.6824 -0.1572 0.7139
vn -0.2591 0.6382 0.7250
vn 0.2591 0.6382 0.7250
vn -0.0000 -0.2743 -0.9616
vn -0.4600 -0.3823 0.8014
vn -0.4676 -0.3825 0.7969
vn -0.4696 -0.3826 0.7956
vn 0.8750 -0.4565 -0.1613
vn 0.8731 -0.4564 -0.1714
vn 0.8739 -0.4564 -0.1674
vn -0.8750 -0.4565 -0.1612
vn -0.8739 -0.4564 -0.1674
vn -0.8731 -0.4564 -0.1714
vn -0.0000 -0.2748 -0.9615
vn 0.0071 -0.2748 -0.9615
vn -0.0071 -0.2748 -0.9615
vn 0.4676 -0.3825 0.7969
vn 0.4601 -0.3823 0.8014
vn 0.4696 -0.3826 0.7956
vn 0.3552 0.9207 0.1619
vn 0.9775 -0.1330 -0.1639
vn -0.9775 -0.1330 -0.1639
vn -0.3552 0.9207 0.1619
vn -0.6144 -0.0099 -0.7889
vn -0.8008 -0.1073 0.5892
vn -0.6036 -0.0206 -0.7970
vn 0.6144 -0.0099 -0.7889
vn 0.8008 -0.1073 0.5892
vn 0.6036 -0.0206 -0.7970
vt 0.187500 0.613281
vt 0.265625 0.851562
vt 0.109375 0.851562
vt 0.787109 0.832031
vt 0.833984 0.796875
vt 0.880859 0.832031
vt 0.000000 0.613281
vt 0.324219 1.000000
vt 0.277344 0.933594
vt 0.269531 0.972656
vt 0.187500 0.976562
vt 0.269531 0.972656
vt 0.324219 1.000000
vt 0.027344 0.960938
vt 0.036719 0.972691
vt 0.022651 0.952444
vt 0.020973 0.916311
vt 0.020973 0.916311
vt 0.480469 1.000000
vt 0.529297 0.933594
vt 0.880859 0.890625
vt 0.787109 0.890625
vt 0.250000 0.060547
vt 0.148438 0.060547
vt 0.167969 0.025391
vt 0.250000 0.025391
vt 0.144531 0.037109
vt 0.000000 0.037109
vt 0.007812 0.017578
vt 0.136719 0.017578
vt 0.246094 0.056641
vt 0.148438 0.029297
vt 0.242188 0.033203
vt 0.253906 0.060547
vt 0.105469 1.000000
vt 0.530479 0.617188
vt 0.276161 0.617188
vt 0.253906 0.722656
vt 0.246094 0.671875
vt 0.265625 0.671875
vt 0.692507 0.661771
vt 0.595021 0.661771
vt 0.636198 0.624185
vt 0.253906 0.625000
vt 0.919922 0.894531
vt 0.818359 0.910156
vt 0.787109 1.000000
vt 0.916016 1.000000
vt 0.783203 0.617188
vt 0.736328 0.976562
vt 0.583984 1.000000
vt 0.541016 0.617188
vt 0.583984 1.000000
vt 0.919922 0.894531
vt 0.916016 1.000000
vt 0.787109 1.000000
vt 0.828125 0.847656
vt 0.828125 0.859375
vt 0.824219 0.859375
vt 0.843750 0.847656
vt 0.843750 0.859375
vt 0.824219 0.847656
s 0
usemtl m0
f 21/1/1 14/2/1 12/3/1
f 17/4/2 20/5/2 19/6/2
f 12/3/3 8/7/3 21/1/3
f 1/8/4 10/9/4 11/10/4
f 12/3/5 14/2/5 15/11/5
f 24/12/6 23/9/6 3/13/6
f 21/1/7 7/7/7 14/3/7
f 13/14/8 14/3/8 7/7/8
f 12/3/9 9/14/9 8/7/9
f 23/15/10 24/16/10 13/17/10
f 9/18/11 11/16/11 10/15/11
f 1/19/12 3/8/12 23/9/12 10/20/12
f 17/4/13 19/6/13 18/21/13 16/22/13
f 20/23/14 17/24/14 2/25/14 15/26/14
f 16/27/15 18/28/15 3/29/15 1/30/15
f 18/31/16 19/24/16 4/32/16 3/33/16
f 17/24/17 16/31/17 1/33/17 2/32/17
f 15/26/18 4/25/18 19/24/18 20/34/18
f 15/11/19 2/35/19 9/14/19 12/3/19
f 15/11/20 14/3/20 13/14/20 4/35/20
f 6/36/21 10/20/21 23/9/21 5/37/21
f 8/38/22 22/39/23 21/40/24
f 5/41/25 7/42/26 22/43/27
f 6/41/28 22/43/29 8/42/30
f 22/43/31 6/41/32 5/41/33
f 22/39/34 7/44/35 21/40/36
f 13/45/37 24/46/37 3/47/37 4/48/37
f 5/49/38 23/50/38 13/51/38 7/52/38
f 6/49/39 8/52/39 9/53/39 10/50/39
f 9/54/40 2/55/40 1/56/40 11/46/40
f 25/57/41 29/58/41 30/59/41
f 25/57/42 26/60/42 27/61/42 29/58/42
f 28/62/43 25/57/43 30/59/43
f 31/57/44 30/59/44 32/58/44
f 31/57/45 32/58/45 27/61/45 26/60/45
f 28/62/46 30/59/46 31/57/46
