# Blender 4.1.1
# www.blender.org
mtllib apronmiku.mtl
o 03_HIPS
v -0.100326 0.063289 -0.136411
v -0.169253 -0.083217 -0.173411
v 0.100326 0.063289 -0.136411
v 0.169253 -0.083217 -0.173411
v 0.000000 -0.090217 -0.143411
v 0.000000 0.056289 -0.088985
v 0.000000 0.065289 0.110005
v 0.000000 -0.062692 0.137398
v 0.000000 -0.133662 -0.156346
v -0.173780 -0.072308 0.068461
v 0.070976 0.065289 -0.076595
v -0.070976 0.065289 -0.076595
v 0.097984 0.065289 0.057000
v -0.126097 -0.110645 -0.105876
v 0.173780 -0.072308 0.068461
v 0.126097 -0.110645 -0.105876
v -0.097984 0.065289 0.057000
vn 0.3196 0.2521 -0.9134
vn -0.4042 0.2443 0.8815
vn 0.4042 0.2443 0.8815
vn 0.8850 0.3845 -0.2625
vn -0.3196 0.2521 -0.9134
vn -0.8850 0.3845 -0.2625
vn -0.0000 1.0000 -0.0000
vn -0.2797 0.2254 -0.9332
vn 0.2797 0.2254 -0.9332
vn 0.2797 -0.2254 0.9332
vn -0.2797 -0.2254 0.9332
vn -0.0000 0.3721 -0.9282
vn -0.0000 -0.9904 0.1382
vn -0.0000 -0.9767 0.2148
vn -0.0000 -0.9099 0.4149
vt 0.441406 0.613281
vt 0.441406 0.431641
vt 0.564453 0.431641
vt 0.675781 0.496094
vt 0.886719 0.507812
vt 0.876953 0.613281
vt 0.734375 0.613281
vt 0.148438 0.291016
vt 0.136719 0.419922
vt 0.003906 0.419922
vt 0.000000 0.333984
vt 0.675781 0.433594
vt 0.681641 0.613281
vt 0.604249 0.621952
vt 0.680505 0.621952
vt 0.604249 0.621952
vt 0.573109 0.621952
vt 0.437500 0.613281
vt 0.324219 0.613281
vt 0.324219 0.498047
vt 0.433594 0.498047
vt 0.675781 0.625000
vt 0.656250 0.667969
vt 0.656250 0.644531
vt 0.683594 0.671875
vt 0.695312 0.640625
vt 0.695312 0.660156
s 0
usemtl m0
f 11/1/1 16/2/1 9/3/1
f 10/4/2 8/5/2 7/6/2 17/7/2
f 15/4/3 13/7/3 7/6/3 8/5/3
f 16/8/4 11/9/4 13/10/4 15/11/4
f 9/3/5 14/12/5 12/13/5
f 14/8/6 10/11/6 17/10/6 12/9/6
f 17/14/7 11/15/7 12/15/7
f 13/16/7 17/14/7 7/17/7
f 11/15/7 17/14/7 13/16/7
f 6/18/8 3/19/8 4/20/8 5/21/8
f 6/18/9 5/21/9 2/20/9 1/19/9
f 4/20/10 3/19/10 6/18/10 5/21/10
f 6/18/11 1/19/11 2/20/11 5/21/11
f 11/1/12 9/3/12 12/13/12
f 10/22/13 15/23/13 8/24/13
f 16/25/14 15/23/14 10/22/14 14/26/14
f 14/26/15 9/27/15 16/25/15
