# Blender 4.1.1
# www.blender.org
mtllib apronmiku.mtl
o 04_LEFT_SHOULDER
v 0.065529 -0.146000 -0.052000
v 0.065529 -0.146000 0.053000
v 0.023262 -0.032617 -0.052000
v 0.023262 -0.032617 0.052000
v -0.009145 -0.160000 -0.052000
v -0.009145 -0.160000 0.053000
v 0.010572 0.023383 -0.035000
v 0.010572 0.023383 0.035000
v -0.035674 -0.160000 -0.000000
v -0.037262 0.023736 -0.000000
v -0.037262 -0.007264 -0.052000
v -0.037262 -0.007264 0.052000
v 0.054500 -0.011617 -0.000000
v 0.095988 -0.125000 -0.000000
v 0.045677 -0.252884 -0.034000
v 0.045677 -0.252884 0.034000
v 0.050748 -0.147000 -0.034000
v 0.050748 -0.147000 0.034000
v -0.012318 -0.252884 -0.034000
v -0.005782 -0.252884 0.027775
v -0.012318 -0.155000 -0.034000
v -0.005782 -0.155000 0.027775
vn 0.7373 0.3437 0.5817
vn 0.1320 0.3152 0.9398
vn -0.3456 0.8060 -0.4805
vn 0.1320 0.3152 -0.9398
vn -0.0000 -1.0000 -0.0000
vn 0.0074 1.0000 -0.0000
vn -0.8828 -0.1596 0.4419
vn 0.5676 -0.8233 -0.0000
vn -0.3456 0.8060 0.4805
vn -0.8790 -0.1618 -0.4485
vn 0.7373 0.3437 -0.5817
vn 0.6231 0.7821 -0.0000
vn 0.7712 0.2873 0.5681
vn -1.0000 -0.0086 -0.0000
vn 0.7698 0.2843 -0.5715
vn 0.1843 -0.9829 -0.0000
vn 0.0006 0.0077 1.0000
vn -0.0000 -0.0000 -1.0000
vn -0.1147 0.0029 0.9934
vn -0.9944 -0.0000 0.1052
vn 0.9989 -0.0478 -0.0000
vt 0.825512 0.764429
vt 0.835006 0.752222
vt 0.839618 0.755749
vt 0.839618 0.738931
vt 0.811407 0.738931
vt 0.825512 0.738931
vt 0.816018 0.752222
vt 0.811407 0.755749
vt 0.970703 0.808594
vt 0.970703 0.890625
vt 0.986328 0.851562
vt 0.234375 0.566406
vt 0.277344 0.439453
vt 0.234375 0.439453
vt 0.908203 0.890625
vt 0.908203 0.808594
vt 0.888672 0.851562
vt 0.320312 0.566406
vt 0.320312 0.439453
vt 0.792969 0.757812
vt 0.804688 0.757812
vt 0.804688 0.636719
vt 0.792969 0.636719
vt 0.277344 0.609375
vt 0.791016 0.636719
vt 0.833984 0.757812
vt 0.927734 0.792969
vt 0.900391 0.625000
vt 0.958125 0.999186
vt 0.957031 0.953125
vt 0.928815 0.953929
vt 0.928815 0.999186
s 0
usemtl m0
f 13/1/1 8/2/1 4/3/1
f 12/4/2 4/3/2 8/2/2
f 11/5/3 10/6/3 7/7/3
f 3/8/4 11/5/4 7/7/4
f 5/9/5 6/10/5 9/11/5
f 8/2/6 7/7/6 10/6/6
f 12/12/7 9/13/7 6/14/7
f 2/15/8 1/16/8 14/17/8
f 10/6/9 12/4/9 8/2/9
f 9/13/10 11/18/10 5/19/10
f 7/7/11 13/1/11 3/8/11
f 13/1/12 7/7/12 8/2/12
f 13/20/13 4/21/13 2/22/13 14/23/13
f 9/13/14 12/12/14 10/24/14 11/18/14
f 13/20/15 14/23/15 1/22/15 3/21/15
f 1/16/16 2/15/16 6/10/16 5/9/16
f 2/25/17 4/26/17 12/27/17 6/28/17
f 1/25/18 5/28/18 11/27/18 3/26/18
f 18/29/19 22/29/19 20/30/19 16/30/19
f 19/31/20 20/30/20 22/29/20 21/32/20
f 19/31/18 21/32/18 17/32/18 15/31/18
f 15/31/21 17/32/21 18/29/21 16/30/21
