# Blender 4.1.1
# www.blender.org
mtllib apronmiku.mtl
o 05_LEFT_ARM
v -0.047318 0.000834 -0.034000
v -0.040782 0.000834 0.027775
v 0.010677 0.000834 -0.034000
v 0.010677 0.000834 0.034000
v -0.045077 -0.186000 -0.034000
v -0.045077 -0.186000 0.034000
v 0.008436 -0.186000 -0.034000
v 0.008436 -0.186000 0.034000
v -0.047318 -0.051238 -0.034000
v 0.014873 -0.051238 -0.036788
v -0.018321 -0.206000 -0.000000
vn -0.9944 -0.0000 0.1052
vn -0.0000 -0.8619 -0.5070
vn 0.9968 0.0803 -0.0000
vn -0.0000 -0.8619 0.5070
vn -0.5987 -0.8010 -0.0000
vn 0.5987 -0.8010 -0.0000
vn -0.0241 -0.0100 -0.9997
vn 0.9988 -0.0266 0.0402
vn -0.0592 0.0177 0.9981
vn -0.0232 0.0258 -0.9994
vn -0.9989 0.0073 0.0474
vt 0.954961 0.952327
vt 0.929770 0.952327
vt 0.929770 0.975296
vt 0.942365 0.963812
vt 0.954961 0.975296
s 0
usemtl m0
f 2/1/1 1/2/1 9/2/1
f 5/2/2 7/3/2 11/4/2
f 10/3/3 3/3/3 4/5/3
f 8/5/4 6/1/4 11/4/4
f 11/4/5 6/1/5 5/2/5
f 11/4/6 7/3/6 8/5/6
f 10/3/7 7/3/7 5/2/7 9/2/7
f 4/5/8 8/5/8 7/3/8 10/3/8
f 4/5/9 2/1/9 6/1/9 8/5/9
f 9/2/10 1/2/10 3/3/10 10/3/10
f 2/1/11 9/2/11 5/2/11 6/1/11
