# Blender 4.1.1
# www.blender.org
mtllib apronmiku.mtl
o 06_LEFT_HAND_PAN
v 0.008585 0.021000 -0.034000
v 0.008585 0.021000 0.034000
v -0.045365 0.021000 -0.034000
v -0.045365 0.021000 0.034000
v 0.034874 -0.096000 -0.050000
v 0.034874 -0.106000 0.055000
v -0.044390 -0.138000 -0.050000
v -0.044390 -0.147000 0.055000
v -0.086390 -0.077000 -0.050000
v -0.086390 -0.094000 0.079000
v -0.072390 -0.035000 0.101000
v -0.054390 -0.234000 0.140000
v -0.017390 -0.234000 0.140000
v -0.054390 -0.175000 0.145000
v -0.017390 -0.175000 0.145000
v -0.054390 -0.101000 0.071000
v -0.017390 -0.094000 0.064000
v 0.154610 -0.376000 0.305000
v 0.112610 -0.390500 0.238500
v 0.154610 -0.324000 0.253000
v 0.069110 -0.316000 0.164500
v 0.125610 -0.274000 0.203000
v 0.071610 -0.236000 0.165000
v -0.005390 -0.286000 0.134000
v 0.001610 -0.216000 0.145000
v -0.064390 -0.286000 0.134000
v -0.073390 -0.216000 0.145000
v -0.140390 -0.316000 0.164500
v -0.143390 -0.236000 0.165000
v -0.195390 -0.274000 0.203000
v -0.183390 -0.390500 0.238500
v -0.224390 -0.324000 0.253000
v -0.224390 -0.376000 0.305000
v -0.140390 -0.464500 0.313000
v -0.195390 -0.426000 0.355000
v -0.143390 -0.464000 0.393000
v -0.034890 -0.495000 0.343000
v -0.073390 -0.484000 0.413000
v 0.001610 -0.484000 0.413000
v 0.068110 -0.464500 0.313000
v 0.071610 -0.464000 0.393000
v 0.125610 -0.426000 0.355000
v 0.154610 -0.376000 0.305000
v 0.112610 -0.390500 0.238500
v 0.154610 -0.324000 0.253000
v 0.069110 -0.316000 0.164500
v 0.125610 -0.274000 0.203000
v 0.071610 -0.236000 0.165000
v -0.005390 -0.286000 0.134000
v 0.001610 -0.216000 0.145000
v -0.064390 -0.286000 0.134000
v -0.073390 -0.216000 0.145000
v -0.140390 -0.316000 0.164500
v -0.143390 -0.236000 0.165000
v -0.195390 -0.274000 0.203000
v -0.183390 -0.390500 0.238500
v -0.224390 -0.324000 0.253000
v -0.224390 -0.376000 0.305000
v -0.140390 -0.464500 0.313000
v -0.195390 -0.426000 0.355000
v -0.143390 -0.464000 0.393000
v -0.034890 -0.495000 0.343000
v -0.073390 -0.484000 0.413000
v 0.001610 -0.484000 0.413000
v 0.068110 -0.464500 0.313000
v 0.071610 -0.464000 0.393000
v 0.125610 -0.426000 0.355000
v -0.054390 -0.234000 0.140000
v -0.017390 -0.234000 0.140000
v -0.054390 -0.175000 0.145000
v -0.017390 -0.175000 0.145000
v -0.054390 -0.101000 0.071000
v -0.017390 -0.094000 0.064000
vn -0.0000 0.7673 0.6413
vn -0.0000 -0.0000 -1.0000
vn -0.9750 0.2205 0.0291
vn 0.5135 0.2424 0.8232
vn 0.9774 0.2109 0.0122
vn -0.8098 -0.5831 -0.0648
vn 0.4624 -0.8831 -0.0799
vn -0.9167 0.3991 -0.0179
vn 0.1495 -0.3434 0.9272
vn 0.0158 0.1461 -0.9891
vn -0.0000 1.0000 -0.0000
vn -0.0000 -0.7129 -0.7012
vn 0.6770 -0.2826 -0.6796
vn 0.8064 -0.4181 -0.4181
vn 0.5695 -0.0127 -0.8219
vn 0.3449 0.0500 -0.9373
vn 0.6729 -0.6833 -0.2833
vn -0.0000 0.1552 -0.9879
vn -0.3402 0.0448 -0.9393
vn 0.5661 -0.8241 -0.0196
vn -0.5819 -0.0167 -0.8131
vn -0.6845 -0.2761 -0.6747
vn 0.2799 -0.9600 -0.0010
vn -0.8131 -0.4116 -0.4116
vn -0.6845 -0.6747 -0.2761
vn -0.0000 -0.9879 0.1552
vn -0.5819 -0.8131 -0.0167
vn -0.2758 -0.9612 -0.0026
vn -0.0000 -0.7012 -0.7129
vn -0.0000 -0.7095 -0.7047
vn -0.0000 -0.7047 -0.7095
vn -0.0000 0.0844 -0.9964
vn -0.0000 -0.7071 -0.7071
vn -0.6770 0.2826 0.6796
vn -0.8064 0.4181 0.4181
vn -0.5695 0.0127 0.8219
vn -0.3449 -0.0500 0.9373
vn -0.6729 0.6833 0.2833
vn -0.0000 -0.1552 0.9879
vn 0.3402 -0.0448 0.9393
vn -0.5661 0.8241 0.0196
vn 0.5819 0.0167 0.8131
vn 0.6845 0.2761 0.6747
vn -0.2799 0.9600 0.0010
vn 0.8131 0.4116 0.4116
vn 0.6845 0.6747 0.2761
vn -0.0000 0.9879 -0.1552
vn 0.5819 0.8131 0.0167
vn 0.2758 0.9612 0.0026
vn -0.0000 -0.0844 0.9964
vn -0.0000 0.7071 0.7071
vn -0.0000 0.7047 0.7095
vn -0.0000 0.7129 0.7012
vn -0.0000 0.7095 0.7047
vn -0.0000 0.7012 0.7129
vt 0.144750 0.589574
vt 0.144750 0.574189
vt 0.161375 0.568482
vt 0.117188 0.494141
vt 0.183594 0.523438
vt 0.207031 0.482422
vt 0.000000 0.511719
vt 0.105469 0.511719
vt 0.113281 0.462891
vt 0.149961 0.599747
vt 0.123906 0.599747
vt 0.127877 0.589574
vt 0.003906 0.558594
vt 0.089844 0.558594
vt 0.089844 0.531250
vt 0.003906 0.527344
vt 0.000000 0.605469
vt 0.089844 0.605469
vt 0.058594 0.423828
vt 0.003906 0.427734
vt 0.230469 0.527344
vt 0.117188 0.566406
vt 0.148438 0.605469
vt 0.207031 0.609375
vt 0.187500 0.423828
vt 0.144531 0.423828
vt 0.127877 0.574189
vt 0.373064 0.351521
vt 0.363210 0.351521
vt 0.352639 0.351521
vt 0.343143 0.351521
vt 0.383201 0.389798
vt 0.363082 0.389798
vt 0.363082 0.350245
vt 0.383201 0.350245
vt 0.343598 0.389798
vt 0.403207 0.389798
vt 0.403207 0.350245
vt 0.423026 0.389798
vt 0.423026 0.350245
vt 0.323422 0.389798
vt 0.323422 0.350245
vt 0.343598 0.350245
vt 0.348341 0.389798
vt 0.298411 0.389798
vt 0.298411 0.350245
vt 0.348341 0.350245
vt 0.368033 0.389798
vt 0.368033 0.350245
vt 0.303522 0.389798
vt 0.387911 0.389798
vt 0.387911 0.350245
vt 0.407902 0.389798
vt 0.407902 0.350245
vt 0.408035 0.389798
vt 0.408035 0.350245
vt 0.427511 0.350245
vt 0.427511 0.389798
vt 0.427262 0.389798
vt 0.427262 0.350245
vt 0.319623 0.389798
vt 0.299797 0.389798
vt 0.299797 0.350245
vt 0.319623 0.350245
vt 0.358655 0.389798
vt 0.339179 0.389798
vt 0.339179 0.350245
vt 0.358655 0.350245
vt 0.363210 0.351521
vt 0.335797 0.351521
vt 0.380589 0.351521
vt 0.384531 0.351521
vt 0.331497 0.351521
vt 0.335438 0.351521
vt 0.478356 0.277800
vt 0.478356 0.292774
vt 0.468998 0.292774
vt 0.468998 0.277800
vt 0.792969 0.566406
vt 0.792969 0.585938
vt 0.785156 0.585938
vt 0.785156 0.570312
vt 0.804688 0.585938
vt 0.796875 0.578125
vt 0.804688 0.574219
vt 0.808594 0.578125
vt 0.074364 0.099804
vt 0.129235 0.099804
vt 0.095368 0.041096
vt 0.796875 0.570312
vt 0.792969 0.562500
vt 0.800781 0.562500
vt 0.800781 0.570312
vt 0.083054 0.075335
vt 0.001957 0.099804
vt 0.009785 0.041096
vt 0.060665 0.041096
vt 0.068493 0.099804
vt 0.792969 0.582031
vt 0.792969 0.570312
vt 0.804688 0.570312
vt 0.804688 0.582031
vt 0.084062 0.077536
vt 0.138943 0.099804
vt 0.076321 0.099804
vt 0.105725 0.041096
vt 0.083054 0.075335
vt 0.083054 0.075335
vt 0.083054 0.075335
vt 0.468994 0.277800
vt 0.468994 0.292774
vt 0.459636 0.292774
vt 0.459636 0.277800
vt 0.796875 0.585938
vt 0.459982 0.401453
vt 0.613254 0.337837
vt 0.586901 0.401453
vt 0.506024 0.427379
vt 0.433932 0.337837
vt 0.586295 0.274221
vt 0.459982 0.274221
vt 0.519558 0.248296
vt 0.541767 0.427379
s 0
usemtl m0
f 2/1/1 4/2/1 11/3/1
f 5/4/2 7/5/2 9/6/2
f 9/7/3 10/8/3 11/9/3
f 11/3/4 6/10/4 2/1/4
f 6/10/5 5/11/5 1/12/5 2/1/5
f 7/13/6 8/14/6 10/8/6 9/7/6
f 8/15/7 7/16/7 5/17/7 6/18/7
f 9/7/8 11/9/8 4/19/8 3/20/8
f 6/21/9 11/22/9 10/23/9 8/24/9
f 5/4/10 9/6/10 3/25/10 1/26/10
f 2/1/11 1/12/11 3/27/11 4/2/11
f 28/28/12 26/29/12 24/30/12 21/31/12
f 22/32/13 20/33/13 19/34/13 21/35/13
f 20/33/14 18/36/14 19/34/14
f 23/37/15 22/32/15 21/38/15
f 25/39/16 23/37/16 21/38/16 24/40/16
f 18/36/17 42/41/17 40/42/17 19/43/17
f 27/44/18 25/45/18 24/46/18 26/47/18
f 29/48/19 27/44/19 26/47/19 28/49/19
f 42/41/20 41/50/20 40/42/20
f 30/51/21 29/48/21 28/52/21
f 32/53/22 30/51/22 28/52/22 31/54/22
f 39/55/23 37/56/23 40/57/23 41/58/23
f 33/59/24 32/53/24 31/60/24
f 35/61/25 33/62/25 31/63/25 34/64/25
f 38/65/26 37/56/26 39/55/26
f 36/66/27 35/61/27 34/67/27
f 38/65/28 36/66/28 34/67/28 37/68/28
f 40/31/29 37/69/29 34/28/29
f 40/70/30 34/71/30 31/72/30 19/73/30
f 28/71/31 21/74/31 19/73/31 31/72/31
f 15/75/32 13/76/32 12/77/32 14/78/32
f 17/79/33 15/80/33 14/81/33 16/82/33
f 45/83/34 47/84/34 46/85/34 44/86/34
f 43/87/35 45/88/35 44/89/35
f 47/84/36 48/90/36 46/85/36
f 50/91/37 49/92/37 46/93/37 48/90/37
f 67/94/38 43/94/38 44/94/38 65/94/38
f 52/95/39 51/96/39 49/97/39 50/98/39
f 52/99/40 54/100/40 53/101/40 51/102/40
f 67/103/41 65/103/41 66/103/41
f 54/104/42 55/105/42 53/106/42
f 55/107/43 57/94/43 56/94/43 53/108/43
f 64/94/44 66/94/44 65/109/44 62/94/44
f 57/94/45 58/94/45 56/94/45
f 58/94/46 60/94/46 59/94/46 56/94/46
f 63/94/47 64/94/47 62/94/47
f 60/94/48 61/94/48 59/94/48
f 61/94/49 63/94/49 62/94/49 59/94/49
f 70/110/50 68/111/50 69/112/50 71/113/50
f 73/79/51 72/90/51 70/114/51 71/80/51
f 53/115/52 44/116/52 46/117/52
f 46/117/53 51/118/53 53/115/53
f 56/119/54 65/120/54 44/116/54
f 53/115/52 56/119/52 44/116/52
f 65/120/55 59/121/55 62/122/55
f 46/117/53 49/123/53 51/118/53
f 56/119/54 59/121/54 65/120/54
