# Blender 4.1.1
# www.blender.org
mtllib apronmiku.mtl
o 07_RIGHT_SHOULDER
v -0.065529 -0.146000 -0.052000
v -0.065529 -0.146000 0.053000
v -0.023262 -0.032617 -0.052000
v -0.023262 -0.032617 0.052000
v 0.009145 -0.160000 -0.052000
v 0.009145 -0.160000 0.053000
v -0.010572 0.023383 0.000000
v 0.035674 -0.160000 -0.000000
v 0.037262 0.023736 -0.000000
v 0.037262 -0.007264 -0.052000
v 0.037262 -0.007264 0.052000
v -0.054500 -0.011617 -0.000000
v -0.095988 -0.125000 -0.000000
v -0.045677 -0.252884 -0.034000
v -0.045677 -0.252884 0.034000
v -0.050748 -0.147000 -0.034000
v -0.050748 -0.147000 0.034000
v 0.012318 -0.252884 -0.034000
v 0.005782 -0.252884 0.027775
v 0.012318 -0.155000 -0.034000
v 0.005782 -0.155000 0.027775
vn -0.5128 0.6437 0.5680
vn -0.2873 0.6859 0.6686
vn -0.0063 0.8589 -0.5121
vn -0.2873 0.6859 -0.6686
vn -0.0000 -1.0000 -0.0000
vn 0.8828 -0.1596 0.4419
vn -0.5676 -0.8233 -0.0000
vn -0.0063 0.8589 0.5121
vn 0.8790 -0.1618 -0.4485
vn -0.5128 0.6437 -0.5680
vn -0.7712 0.2873 0.5681
vn 1.0000 -0.0086 -0.0000
vn -0.7698 0.2843 -0.5715
vn -0.1843 -0.9829 -0.0000
vn -0.0006 0.0077 1.0000
vn -0.0000 -0.0000 -1.0000
vn 0.1147 0.0029 0.9934
vn 0.9944 -0.0000 0.1052
vn -0.9989 -0.0478 -0.0000
vt 0.825512 0.764429
vt 0.839618 0.755749
vt 0.835006 0.752222
vt 0.839618 0.738931
vt 0.811407 0.738931
vt 0.816018 0.752222
vt 0.825512 0.738931
vt 0.811407 0.755749
vt 0.970703 0.808594
vt 0.986328 0.851562
vt 0.970703 0.890625
vt 0.234375 0.566406
vt 0.234375 0.439453
vt 0.277344 0.439453
vt 0.908203 0.890625
vt 0.888672 0.851562
vt 0.908203 0.808594
vt 0.320312 0.439453
vt 0.320312 0.566406
vt 0.804688 0.636719
vt 0.804688 0.757812
vt 0.792969 0.757812
vt 0.792969 0.636719
vt 0.277344 0.609375
vt 0.791016 0.636719
vt 0.900391 0.625000
vt 0.927734 0.792969
vt 0.833984 0.757812
vt 0.958125 0.999186
vt 0.957031 0.953125
vt 0.928815 0.953928
vt 0.928815 0.999186
s 0
usemtl m0
f 12/1/1 4/2/1 7/3/1
f 11/4/2 7/3/2 4/2/2
f 10/5/3 7/6/3 9/7/3
f 3/8/4 7/6/4 10/5/4
f 5/9/5 8/10/5 6/11/5
f 11/12/6 6/13/6 8/14/6
f 2/15/7 13/16/7 1/17/7
f 9/7/8 7/3/8 11/4/8
f 8/14/9 5/18/9 10/19/9
f 7/6/10 3/8/10 12/1/10
f 2/20/11 4/21/11 12/22/11 13/23/11
f 8/14/12 10/19/12 9/24/12 11/12/12
f 12/22/13 3/21/13 1/20/13 13/23/13
f 5/9/14 6/11/14 2/15/14 1/17/14
f 2/25/15 6/26/15 11/27/15 4/28/15
f 1/25/16 3/28/16 10/27/16 5/26/16
f 17/29/17 15/30/17 19/30/17 21/29/17
f 18/31/18 20/32/18 21/29/18 19/30/18
f 16/32/16 20/32/16 18/31/16 14/31/16
f 14/31/19 15/30/19 17/29/19 16/32/19
