# Blender 4.1.1
# www.blender.org
mtllib apronmiku.mtl
o 09_RIGHT_HAND_PLATE
v 0.054000 -0.270000 0.083000
v 0.030000 -0.216000 0.060000
v 0.030000 -0.216000 -0.030000
v 0.054000 -0.270000 -0.052000
v 0.030000 -0.107500 -0.094000
v 0.054000 -0.175000 -0.147000
v 0.054000 -0.040000 -0.147000
v 0.030000 0.001000 0.015000
v 0.054000 0.055000 -0.053000
v 0.054000 0.055000 0.083000
v 0.030000 -0.107000 0.124000
v 0.054000 -0.040000 0.177000
v 0.054000 -0.175000 0.178000
v -0.008451 0.021000 -0.034000
v -0.008451 0.021000 0.034000
v 0.041000 0.021000 -0.034000
v 0.041000 0.021000 0.034000
v 0.003000 -0.214000 -0.034000
v 0.003000 -0.214000 0.060000
v 0.031000 -0.214000 -0.034000
v 0.031000 -0.214000 0.060000
v 0.031000 -0.096000 -0.051000
v -0.017863 -0.096000 -0.051000
v 0.031000 -0.096000 0.090000
v -0.017863 -0.096000 0.090000
vn -0.9578 -0.1461 -0.2477
vn -0.9110 -0.0000 -0.4125
vn -0.9635 0.1884 -0.1904
vn -0.9138 0.4061 -0.0000
vn -1.0000 -0.0000 -0.0000
vn -0.9623 0.1932 0.1915
vn -0.9124 0.0030 0.4093
vn 1.0000 -0.0000 -0.0000
vn -0.9150 -0.2852 0.2852
vn -0.9138 -0.4061 -0.0000
vn -0.0000 1.0000 -0.0000
vn -0.0000 0.1438 -0.9896
vn -0.9968 0.0802 -0.0000
vn -0.0000 0.4317 0.9020
vn -0.0000 -0.2464 0.9692
vn -0.0000 -1.0000 -0.0000
vn -0.0000 -0.1426 -0.9898
vn -0.9847 -0.1741 -0.0000
vn -0.9131 -0.2883 -0.2883
vn -0.9626 0.1921 -0.1912
vn -0.9635 0.1884 0.1904
vn -0.9588 -0.1438 0.2450
vt 0.206237 0.009443
vt 0.198507 0.017381
vt 0.191170 0.014271
vt 0.198500 0.028316
vt 0.191277 0.031559
vt 0.206352 0.036161
vt 0.203365 0.043572
vt 0.217382 0.036096
vt 0.220656 0.043377
vt 0.217268 0.009363
vt 0.225161 0.017205
vt 0.225175 0.028296
vt 0.232446 0.031168
vt 0.232453 0.014087
vt 0.209736 0.069766
vt 0.323846 0.069766
vt 0.404146 0.150066
vt 0.129436 0.150066
vt 0.220447 0.002055
vt 0.203267 0.002055
vt 0.324692 0.344477
vt 0.209736 0.344477
vt 0.130281 0.264177
vt 0.404146 0.264177
vt 0.000000 0.000000
vt 0.093750 0.107422
vt 0.109375 0.197266
vt 0.000000 0.197266
vt 0.042969 0.107422
vt 0.023438 0.287109
vt 0.093750 0.287109
s 0
usemtl m0
f 3/1/1 5/2/1 6/3/1
f 5/4/2 7/5/2 6/3/2
f 8/6/3 9/7/3 7/5/3
f 8/8/4 10/9/4 9/7/4
f 5/2/5 3/1/5 2/10/5 11/11/5
f 8/8/6 11/12/6 12/13/6
f 11/11/7 13/14/7 12/13/7
f 1/15/8 4/16/8 6/17/8 13/18/8
f 2/10/9 1/19/9 13/14/9
f 2/10/10 3/1/10 4/20/10 1/19/10
f 11/12/5 8/6/5 5/4/5
f 9/21/8 10/22/8 12/23/8 7/24/8
f 6/17/8 7/24/8 12/23/8 13/18/8
f 17/25/11 16/25/11 14/25/11 15/25/11
f 16/26/12 22/27/12 23/27/12 14/26/12
f 25/28/13 15/29/13 14/26/13 23/27/13
f 17/29/14 15/29/14 25/28/14 24/28/14
f 25/28/15 19/30/15 21/30/15 24/28/15
f 21/30/16 19/30/16 18/31/16 20/31/16
f 23/27/17 22/27/17 20/31/17 18/31/17
f 25/28/18 23/27/18 18/31/18 19/30/18
f 4/20/19 3/1/19 6/3/19
f 5/4/20 8/6/20 7/5/20
f 10/9/21 8/8/21 12/13/21
f 11/11/22 2/10/22 13/14/22
