# Blender 4.1.1
# www.blender.org
mtllib apronmiku.mtl
o 09_RIGHT_HAND
v -0.008585 0.021000 -0.034000
v -0.008585 0.021000 0.034000
v 0.045365 0.021000 -0.034000
v 0.045365 0.021000 0.034000
v -0.034874 -0.096000 -0.050000
v -0.034874 -0.106000 0.055000
v 0.044390 -0.138000 -0.050000
v 0.044390 -0.147000 0.055000
v 0.086390 -0.077000 -0.050000
v 0.086390 -0.094000 0.079000
v 0.072390 -0.035000 0.101000
vn -0.0000 0.7673 0.6413
vn -0.0000 -0.0000 -1.0000
vn 0.9750 0.2205 0.0291
vn -0.5135 0.2424 0.8232
vn -0.9774 0.2109 0.0122
vn 0.8098 -0.5831 -0.0648
vn -0.4624 -0.8831 -0.0799
vn 0.9167 0.3991 -0.0179
vn -0.1495 -0.3434 0.9272
vn -0.0158 0.1461 -0.9891
vn -0.0000 1.0000 -0.0000
vt 0.161375 0.568482
vt 0.144750 0.574189
vt 0.144750 0.589574
vt 0.207031 0.482422
vt 0.183594 0.523438
vt 0.117188 0.494141
vt 0.113281 0.462891
vt 0.105469 0.511719
vt 0.000000 0.511719
vt 0.149961 0.599747
vt 0.127877 0.589574
vt 0.123906 0.599747
vt 0.003906 0.558594
vt 0.089844 0.558594
vt 0.000000 0.605469
vt 0.003906 0.527344
vt 0.089844 0.531250
vt 0.089844 0.605469
vt 0.003906 0.427734
vt 0.058594 0.423828
vt 0.230469 0.527344
vt 0.207031 0.609375
vt 0.148438 0.605469
vt 0.117188 0.566406
vt 0.144531 0.423828
vt 0.187500 0.423828
vt 0.127877 0.574189
s 0
usemtl m0
f 11/1/1 4/2/1 2/3/1
f 9/4/2 7/5/2 5/6/2
f 11/7/3 10/8/3 9/9/3
f 2/3/4 6/10/4 11/1/4
f 6/10/5 2/3/5 1/11/5 5/12/5
f 7/13/6 9/9/6 10/8/6 8/14/6
f 5/15/7 7/16/7 8/17/7 6/18/7
f 9/9/8 3/19/8 4/20/8 11/7/8
f 6/21/9 8/22/9 10/23/9 11/24/9
f 5/6/10 1/25/10 3/26/10 9/4/10
f 1/11/11 2/3/11 4/2/11 3/27/11
