# Blender 4.1.1
# www.blender.org
mtllib apronmiku.mtl
o 10_LEG_RIGHT_TOP
v -0.118377 -0.199242 -0.135906
v -0.043977 0.025355 -0.105876
v -0.092720 0.064692 0.068461
v 0.081060 0.073308 0.137398
v 0.081196 -0.156593 0.219655
v 0.081196 -0.208217 -0.173846
v 0.081060 0.002338 -0.156346
v -0.091056 -0.160231 0.167003
v -0.165927 -0.165903 0.050808
v -0.042684 -0.154940 0.074560
v -0.001373 -0.152382 -0.057366
v 0.035759 -0.157549 0.076483
v -0.025802 -0.320741 0.064891
v -0.002764 -0.303477 -0.049809
v 0.028247 -0.315533 0.063145
v -0.070228 -0.150799 0.000359
v 0.060126 -0.156881 -0.014478
v 0.052347 -0.303477 -0.009491
v -0.053647 -0.309409 0.003816
vn -0.8956 0.3088 -0.3201
vn -0.8245 0.2219 0.5205
vn -0.1753 0.1873 -0.9665
vn -0.8968 0.3356 -0.2883
vn -0.3635 0.3136 0.8772
vn -0.1414 -0.9801 0.1390
vn -0.0199 -0.9913 0.1301
vn -0.3610 0.0770 -0.9294
vn -0.0186 -0.9914 0.1294
vn -0.2773 0.3838 0.8808
vn 1.0000 0.0006 -0.0001
vn -0.7488 -0.0866 -0.6571
vn -0.6298 -0.0135 -0.7766
vn -0.6241 -0.0248 -0.7809
vn -0.7471 -0.0860 -0.6591
vn -0.8902 -0.1191 0.4398
vn -0.9443 -0.0983 0.3142
vn -0.9449 -0.0932 0.3139
vn -0.8914 -0.1186 0.4375
vn 0.0001 -0.0709 0.9975
vn 0.9585 -0.0558 0.2796
vn 0.0521 -0.9835 -0.1735
vn 0.5863 -0.0546 -0.8082
vn 0.5728 -0.0502 -0.8181
vn 0.5727 -0.0508 -0.8182
vn 0.5866 -0.0539 -0.8081
vt 0.873047 0.486328
vt 0.845703 0.482422
vt 0.693359 0.486328
vt 0.726562 0.003906
vt 0.730469 0.191406
vt 0.671875 0.003906
vt 0.845703 0.478516
vt 0.693359 0.478516
vt 0.828125 0.003906
vt 0.828125 0.191406
vt 0.613281 0.585938
vt 0.601562 0.574219
vt 0.609375 0.562500
vt 0.640625 0.554688
vt 0.640625 0.589844
vt 0.847656 0.472656
vt 0.691406 0.472656
vt 0.691406 0.488281
vt 0.847656 0.488281
vt 0.960938 0.660156
vt 0.959215 0.718708
vt 0.929688 0.711627
vt 0.929688 0.664062
vt 0.996094 0.656250
vt 0.997816 0.711357
vt 0.998143 0.713627
vt 0.953125 0.664062
vt 0.951076 0.715292
s 0
usemtl m0
f 3/1/1 2/2/1 9/3/1
f 8/4/2 3/5/2 9/6/2
f 2/7/3 6/3/3 1/8/3
f 2/2/4 1/3/4 9/3/4
f 5/9/5 4/10/5 3/5/5
f 8/11/6 9/12/6 1/13/6
f 1/13/7 6/14/7 5/15/7
f 2/7/8 7/2/8 6/3/8
f 1/13/9 5/15/9 8/11/9
f 8/4/10 5/9/10 3/5/10
f 4/16/11 5/17/11 6/18/11 7/19/11
f 19/20/12 16/21/13 11/22/14 14/23/15
f 13/24/16 10/25/17 16/21/18 19/20/19
f 15/24/20 12/26/20 10/25/20 13/24/20
f 18/27/21 17/28/21 12/26/21 15/24/21
f 13/24/22 19/20/22 18/27/22 15/24/22
f 18/27/23 14/23/24 11/22/25 17/28/26
