# Blender 4.1.1
# www.blender.org
mtllib apronmiku.mtl
o 15_LEFT_FOOT
v 0.037408 0.018562 0.026427
v -0.020436 0.018562 0.019039
v 0.005202 0.008038 -0.054218
v 0.056627 0.008038 -0.021617
v -0.043076 0.008038 -0.019445
v 0.059138 -0.060034 0.110817
v -0.036199 -0.076498 0.112887
v -0.017772 -0.108275 0.230740
v -0.040406 -0.187925 0.237710
v -0.068355 -0.187925 -0.078636
v 0.069918 -0.187925 0.218186
v 0.067012 -0.106878 0.222416
v 0.016050 -0.187925 -0.129318
v 0.085184 -0.143106 -0.043631
v 0.016050 -0.143106 -0.129318
v 0.085184 -0.187925 -0.043631
v -0.068355 -0.143106 -0.078636
vn -0.1006 0.7109 0.6960
vn -0.1575 0.9470 0.2800
vn 0.0227 0.9224 0.3856
vn -0.9325 0.2845 0.2225
vn 0.9958 -0.0420 0.0808
vn 0.9958 -0.0421 0.0808
vn 0.5276 0.1705 -0.8322
vn 0.0966 0.0595 0.9935
vn -0.5566 0.3052 -0.7727
vn -0.9893 0.0940 0.1114
vn -0.8089 0.4755 0.3458
vn 0.8445 0.4827 0.2321
vn 0.9890 0.1383 0.0523
vn 0.9977 -0.0000 0.0681
vn 0.2221 0.0381 -0.9743
vn 0.2221 0.0380 -0.9743
vn 0.1836 -0.0582 0.9813
vn -0.9742 0.2079 0.0874
vn -0.9811 0.1595 0.1093
vn -0.9753 0.2053 0.0820
vn -0.0000 -1.0000 -0.0000
vn -0.8689 -0.0000 -0.4951
vn 0.9643 -0.0000 -0.2648
vn -0.0000 1.0000 -0.0000
vn 0.9697 0.2422 0.0332
vn -0.9961 -0.0000 0.0880
vn -0.9992 0.0151 0.0366
vn -0.9989 0.0248 0.0405
vt 0.238281 0.421875
vt 0.191406 0.378906
vt 0.195312 0.386719
vt 0.234375 0.421875
vt 0.859375 0.246094
vt 0.906250 0.234375
vt 0.859375 0.250000
vt 0.906250 0.199219
vt 0.792969 0.199219
vt 0.277344 0.468750
vt 0.285156 0.542969
vt 0.265625 0.542969
vt 0.292969 0.468750
vt 0.285156 0.347656
vt 0.257812 0.421875
vt 0.269531 0.347656
vt 0.792969 0.218750
vt 0.773438 0.218750
vt 0.558594 0.164062
vt 0.750000 0.199219
vt 0.773438 0.199219
vt 0.750000 0.218750
vt 0.757812 0.199219
vt 0.757812 0.218750
vt 0.160156 0.708008
vt 0.210938 0.708008
s 0
usemtl m0
f 2/1/1 7/2/1 6/3/1 1/4/1
f 7/5/2 8/6/2 6/7/2
f 8/6/3 12/6/3 6/7/3
f 9/8/4 8/6/4 7/5/4
f 16/9/5 12/6/6 11/8/5
f 14/10/7 3/11/7 4/12/7
f 8/6/8 9/8/8 12/6/8
f 17/13/9 5/12/9 3/11/9
f 17/14/10 7/2/10 5/15/10
f 2/1/11 5/15/11 7/2/11
f 1/4/12 6/3/12 4/15/12
f 14/16/13 4/15/13 6/3/13
f 16/9/14 14/17/14 12/6/14
f 17/13/15 3/11/16 14/10/16
f 12/6/17 9/8/17 11/8/17
f 7/5/18 17/18/19 9/8/20
f 16/19/21 9/19/21 10/19/21
f 16/19/21 11/19/21 9/19/21
f 16/19/21 10/19/21 13/19/21
f 13/20/22 10/21/22 17/18/22 15/22/22
f 16/9/23 13/23/23 15/24/23 14/17/23
f 15/25/24 17/25/24 14/26/24
f 14/17/25 6/7/25 12/6/25
f 17/18/26 10/21/27 9/8/28
