# Blender v2.78 (sub 0) OBJ File: ''
# www.blender.org
mtllib mesh_014.mtl
o Mesh_014_Mesh_014_Mesh_0.011
v -0.029542 0.004124 0.011532
v -0.068010 -0.097498 0.111647
v 0.047697 -0.079913 0.109475
v 0.026616 0.004116 0.019432
v -0.026995 -0.131563 0.237482
v 0.055320 -0.130062 0.228608
v -0.074770 -0.216600 0.211814
v 0.060592 -0.216327 -0.055606
v 0.052331 -0.216600 0.212537
v -0.066719 -0.216454 0.068752
v -0.004637 -0.007035 -0.066711
v 0.045284 -0.007071 -0.031885
v -0.026996 -0.216629 0.240253
v -0.063623 -0.216289 -0.093012
v -0.051515 -0.007073 -0.029583
vt 0.8789 0.1562
vt 0.8789 0.0938
vt 0.8359 0.0938
vt 0.8359 0.1562
vt 0.8789 0.0352
vt 0.8359 0.0352
vt 0.8789 0.0000
vt 0.9336 0.0586
vt 0.7188 0.0000
vt 0.8359 0.0000
vt 0.9336 0.0000
vt 0.6992 0.0977
vt 0.7266 0.0977
vt 0.8594 0.0000
vt 0.6680 0.0000
vt 0.6680 0.0977
vt 1.0000 0.0000
vt 1.0000 0.0977
vt 0.9648 0.0977
vt 0.7500 0.0977
vt 0.7891 0.0625
vt 0.4765 0.0624
vt 0.4727 0.0548
vt 0.4688 0.0624
vt 0.4765 0.0548
vt 0.4688 0.0586
vt 0.4765 0.0624
vt 0.4688 0.0624
vt 0.4727 0.0548
vt 0.4765 0.0624
vt 0.4688 0.0548
vt 0.4688 0.0624
vt 0.9883 0.2499
vt 0.9845 0.2499
vt 0.9845 0.2423
vt 0.9921 0.2499
vt 0.9921 0.2423
vn -0.0963 0.7166 0.6908
vn -0.1378 0.9438 0.3004
vn 0.0249 0.9220 0.3865
vn -0.8516 0.3649 0.3763
vn 0.9987 -0.0402 0.0307
vn -0.9984 0.0094 -0.0562
vn 0.5671 0.1336 -0.8127
vn 0.1065 0.0324 0.9938
vn -0.5113 0.0280 0.8589
vn -0.5990 0.2639 -0.7560
vn -0.9948 0.0777 -0.0664
vn -0.7845 0.5598 0.2668
vn 0.8663 0.4499 0.2171
vn 0.9973 0.0708 0.0194
vn 0.9934 0.1132 -0.0159
vn 0.2881 0.0390 -0.9568
vn 0.3243 -0.1835 0.9280
vn -0.9998 -0.0039 -0.0191
vn 0.0000 -1.0000 -0.0010
vn 0.0087 0.9718 -0.2356
vn 0.0057 0.9879 -0.1552
vn 0.0055 0.9887 -0.1499
vn 0.0000 1.0000 0.0010
usemtl None
s 1
f 1/1/1 2/2/1 3/3/1 4/4/1
f 2/2/2 5/5/2 3/3/2
f 5/5/3 6/6/3 3/3/3
f 7/7/4 5/5/4 2/8/4
f 8/9/5 6/6/5 9/10/5
f 10/11/6 7/7/6 2/8/6
f 8/9/7 11/12/7 12/13/7
f 5/5/8 13/14/8 6/6/8
f 13/14/9 5/5/9 7/7/9
f 14/15/10 15/16/10 11/12/10
f 14/17/11 2/8/11 15/18/11
f 1/19/12 15/18/12 2/8/12
f 4/20/13 3/21/13 12/13/13
f 8/9/14 12/13/14 3/21/14
f 3/21/15 6/6/15 8/9/15
f 14/15/16 11/12/16 8/9/16
f 6/6/17 13/14/17 9/10/17
f 10/11/18 2/8/18 14/17/18
f 9/22/19 13/23/19 7/24/19
f 9/25/19 10/26/19 8/27/19
f 8/28/19 10/29/19 14/30/19
f 7/31/19 10/32/19 9/25/19
f 1/33/20 4/34/20 12/35/21 15/36/22
f 15/36/22 12/35/21 11/37/23
