# Blender v2.78 (sub 0) OBJ File: 'MikuApronSplit2.blend'
# www.blender.org
o Mesh_001_01_HEAD_HAIR.001
v 0.000023 0.244952 -0.131234
v -0.045890 0.247593 -0.140522
v -0.084906 0.287482 -0.042138
v 0.000029 0.167371 -0.162371
v -0.108996 0.154589 -0.127840
v -0.068074 -0.001878 0.085480
v 0.000005 0.005234 -0.027041
v -0.000019 -0.025730 0.105792
v -0.074101 0.035419 -0.087549
v -0.000015 0.285461 0.079348
v 0.084920 0.287482 -0.042108
v -0.148011 0.194478 -0.029457
v -0.114876 0.245815 0.049948
v -0.100764 0.041984 -0.056586
v -0.128320 0.137469 -0.054385
v -0.125081 0.137370 0.043324
v -0.112641 0.047012 0.078503
v -0.108953 0.041885 0.041121
v -0.112256 0.061252 0.068717
v -0.107911 0.228714 0.120791
v -0.132793 0.235132 0.056048
v -0.136254 0.111268 0.117740
v 0.000022 0.070613 -0.122004
v 0.045940 0.247593 -0.140506
v 0.109041 0.154590 -0.127800
v 0.068043 -0.001878 0.085505
v 0.074132 0.035420 -0.087522
v 0.148021 0.194479 -0.029403
v 0.114857 0.245816 0.049989
v 0.100784 0.041985 -0.056549
v 0.128339 0.137470 -0.054339
v 0.125065 0.137370 0.043369
v 0.108938 0.041885 0.041161
v 0.112613 0.047013 0.078544
v 0.112231 0.061252 0.068758
v 0.002305 0.196596 0.155772
v 0.113063 0.026493 0.149838
v 0.072716 0.246106 0.146528
v 0.139043 0.146206 0.088521
v 0.005042 0.302515 0.095031
v 0.022284 0.101966 0.166831
v -0.053568 0.199214 0.147163
v -0.081828 -0.008533 0.127790
v -0.094829 0.109166 0.132248
v -0.118357 0.035865 0.086966
v -0.065290 0.284510 0.093587
v -0.108002 0.296227 0.084805
v 0.117775 0.277359 0.078684
v -0.052288 0.196026 0.117151
v -0.089486 0.098379 0.096719
v 0.011957 0.203037 0.135305
v 0.081009 0.156260 0.113992
v 0.098479 -0.019741 0.105668
v -0.134379 0.037514 0.044437
v -0.137636 0.067115 0.070994
v -0.146998 0.037613 -0.052223
v -0.163126 0.133098 -0.050019
v -0.150506 0.132999 0.046640
v -0.288664 0.076589 -0.134083
v -0.288635 0.116852 -0.298142
v -0.380773 -0.228135 -0.285581
v -0.156726 0.116851 -0.296581
v -0.177832 -0.227025 -0.451546
v -0.178952 0.073366 -0.154001
v -0.102144 -0.243756 -0.327906
v -0.269337 -0.578578 -0.186278
v -0.113910 0.237214 -0.140294
v -0.123491 -0.579616 -0.418649
v -0.133842 -0.600073 -0.236332
v -0.244477 -0.815632 -0.264532
v -0.409622 -0.587737 -0.386538
v -0.277656 -0.868221 -0.332581
v -0.290618 -0.579552 -0.482128
v -0.225432 0.250119 -0.171412
v -0.119980 0.307142 -0.064834
v -0.184718 0.215144 -0.053279
v -0.325879 -0.218675 -0.410080
v 0.179007 0.073367 -0.153936
v 0.102263 -0.243756 -0.327869
v 0.133929 -0.600072 -0.236284
v -0.145283 0.175018 -0.151370
v -0.080544 0.267018 -0.162925
v 0.225492 0.250120 -0.171331
v 0.120003 0.307143 -0.064791
v 0.184736 0.215145 -0.053213
v 0.134362 0.037515 0.044485
v 0.147017 0.037614 -0.052170
v 0.137611 0.067115 0.071043
v 0.163144 0.133099 -0.049961
v 0.150489 0.133000 0.046694
v 0.288712 0.076590 -0.133979
v 0.380876 -0.228134 -0.285444
v 0.288742 0.116853 -0.298038
v 0.177995 -0.227024 -0.451482
v 0.156833 0.116851 -0.296524
v 0.269406 -0.578577 -0.186181
v 0.113960 0.237214 -0.140253
v 0.123643 -0.579615 -0.418605
v 0.244575 -0.815631 -0.264444
v 0.277778 -0.868220 -0.332481
v 0.409763 -0.587735 -0.386390
v 0.290793 -0.579550 -0.482023
v 0.326027 -0.218674 -0.409963
v 0.145336 0.175019 -0.151317
v 0.080602 0.267018 -0.162896
v -0.151896 0.042965 0.126305
v -0.169606 0.159420 0.112438
v -0.144965 0.243962 0.108155
v -0.084762 0.353340 -0.056102
v 0.085064 0.353340 -0.056071
v -0.145372 0.260337 -0.043420
v 0.147393 0.244393 -0.043383
v -0.084906 0.287482 -0.042743
v 0.084921 0.287483 -0.042713
v -0.148011 0.194479 -0.030062
v 0.148021 0.194480 -0.030009
v -0.084762 0.353341 -0.056707
v 0.085064 0.353341 -0.056676
v -0.145372 0.260337 -0.044025
v 0.147393 0.260338 -0.043972
v 0.031914 0.401970 0.208526
v 0.031918 0.401994 0.184745
v 0.031918 0.428946 0.184773
v 0.031913 0.428921 0.208554
v 0.047582 0.270805 -0.015196
v 0.187042 0.292162 -0.041723
v 0.111905 0.349611 -0.050406
v 0.122719 0.213356 -0.006513
v 0.197857 0.155907 0.002170
v 0.262179 0.234713 -0.033040
v -0.048045 0.270805 -0.015213
v -0.187495 0.292161 -0.041791
v -0.112355 0.349610 -0.050446
v -0.123185 0.213355 -0.006557
v -0.198325 0.155906 0.002099
v -0.262635 0.234712 -0.033135
vt 0.0082 0.5004
vt 0.0082 0.6324
vt 0.1246 0.6324
vt 0.1246 0.5004
vt 0.0082 0.5004
vt 0.1246 0.5004
vt 0.1246 0.6324
vt 0.0082 0.6324
vt 0.0082 0.5004
vt 0.0082 0.6324
vt 0.0082 0.6324
vt 0.0082 0.5004
vt 0.2266 0.1289
vt 0.2383 0.1016
vt 0.2773 0.0859
vt 0.2031 0.1289
vt 0.2148 0.0625
vt 0.0156 0.0781
vt 0.1055 0.1289
vt 0.0156 0.1289
vt 0.1484 0.0781
vt 0.3438 0.1289
vt 0.2773 0.1719
vt 0.2656 0.0391
vt 0.3203 0.0508
vt 0.1445 0.0312
vt 0.2461 0.0195
vt 0.3047 0.0000
vt 0.0156 0.0312
vt 0.0352 0.0312
vt 0.0156 0.0078
vt 0.0547 0.9453
vt 0.0273 0.9648
vt 0.0273 0.8750
vt 0.1602 0.1289
vt 0.2773 0.0859
vt 0.2383 0.1016
vt 0.2148 0.0625
vt 0.0156 0.0781
vt 0.1484 0.0781
vt 0.2656 0.0391
vt 0.3203 0.0508
vt 0.1445 0.0312
vt 0.2461 0.0195
vt 0.3047 0.0000
vt 0.0352 0.0312
vt 0.0156 0.0312
vt 0.0156 0.0078
vt 0.1328 0.9062
vt 0.1914 0.8320
vt 0.1602 0.9375
vt 0.2031 0.8906
vt 0.1250 0.9766
vt 0.1172 0.8398
vt 0.0859 0.9102
vt 0.0508 0.8008
vt 0.0508 0.8633
vt 0.0000 0.9375
vt 0.0000 0.8438
vt 0.0898 0.9609
vt 0.0586 0.9766
vt 0.1836 0.9688
vt 0.7840 0.2657
vt 0.7840 0.2672
vt 0.7814 0.2636
vt 0.7829 0.2633
vt 0.7814 0.2588
vt 0.0234 0.9844
vt 0.7870 0.2604
vt 0.7841 0.2637
vt 0.7841 0.2570
vt 0.7870 0.2676
vt 0.7864 0.2618
vt 0.7882 0.2663
vt 0.7876 0.2669
vt 0.7894 0.2600
vt 0.7820 0.2600
vt 0.7852 0.2582
vt 0.7861 0.2568
vt 0.0664 1.0000
vt 0.0586 0.9805
vt 0.1250 0.9844
vt 0.1992 0.9766
vt 0.1250 0.7812
vt 0.1562 0.7812
vt 0.1016 0.8516
vt 0.1016 0.7812
vt 0.2266 0.9141
vt 0.7823 0.2574
vt 0.7852 0.2574
vt 0.7852 0.2627
vt 0.7820 0.2582
vt 0.0703 0.4727
vt 0.0508 0.4419
vt 0.1523 0.4727
vt 0.1523 0.3945
vt 0.0703 0.3945
vt 0.8047 0.3125
vt 0.7305 0.3125
vt 0.7305 0.2812
vt 0.8047 0.2812
vt 0.8477 0.3125
vt 0.8477 0.2812
vt 0.6484 0.3125
vt 0.5742 0.3125
vt 0.5742 0.2812
vt 0.6484 0.2812
vt 0.6251 0.9999
vt 0.7030 0.9999
vt 0.7030 0.9688
vt 0.6251 0.9688
vt 0.8906 0.2812
vt 0.4492 0.8633
vt 0.3789 0.8633
vt 0.4688 0.6914
vt 0.3047 0.8633
vt 0.3359 0.6914
vt 0.2031 0.8633
vt 0.2773 0.6836
vt 0.5391 0.8633
vt 0.5859 0.5469
vt 0.2891 0.9414
vt 0.2891 0.5234
vt 0.2305 0.5234
vt 0.2305 0.3984
vt 0.4766 0.5469
vt 0.5430 0.3945
vt 0.3789 0.5234
vt 0.3438 0.3984
vt 0.3594 0.9414
vt 0.3700 0.9953
vt 0.4128 0.9490
vt 0.4023 0.6953
vt 0.1562 0.5234
vt 0.2031 0.8633
vt 0.2773 0.6836
vt 0.2305 0.5234
vt 0.4766 0.9414
vt 0.6251 0.9999
vt 0.7030 0.9999
vt 0.7030 0.9688
vt 0.6251 0.9688
vt 0.7030 0.9999
vt 0.7030 0.9688
vt 0.6251 0.9688
vt 0.6251 0.9999
vt 0.6251 0.9999
vt 0.7030 0.9999
vt 0.7030 0.9688
vt 0.6251 0.9688
vt 0.7030 0.9999
vt 0.7030 0.9688
vt 0.6251 0.9688
vt 0.6251 0.9999
vt 0.5703 0.2578
vt 0.5547 0.2852
vt 0.5039 0.2578
vt 0.5703 0.3242
vt 0.3594 0.9414
vt 0.3700 0.9953
vt 0.4128 0.9490
vt 0.2813 0.9688
vt 0.2896 0.9688
vt 0.2968 0.9843
vt 0.2813 0.9688
vt 0.2874 0.9765
vt 0.8906 0.3125
vt 0.0703 0.4727
vt 0.1523 0.4727
vt 0.0508 0.4419
vt 0.1523 0.3945
vt 0.0703 0.3945
vt 0.8047 0.3125
vt 0.8047 0.2812
vt 0.7305 0.2812
vt 0.7305 0.3125
vt 0.8477 0.3125
vt 0.8477 0.2812
vt 0.6484 0.3125
vt 0.6484 0.2812
vt 0.5742 0.2812
vt 0.5742 0.3125
vt 0.8906 0.2812
vt 0.4492 0.8633
vt 0.4688 0.6914
vt 0.3789 0.8633
vt 0.3359 0.6914
vt 0.3047 0.8633
vt 0.5391 0.8633
vt 0.5859 0.5469
vt 0.2891 0.9414
vt 0.2891 0.5234
vt 0.2305 0.3984
vt 0.5430 0.3945
vt 0.4766 0.5469
vt 0.3789 0.5234
vt 0.3438 0.3984
vt 0.1562 0.5234
vt 0.4023 0.6953
vt 0.4766 0.9414
vt 0.6251 0.9999
vt 0.6251 0.9688
vt 0.7030 0.9688
vt 0.7030 0.9999
vt 0.7030 0.9999
vt 0.6251 0.9999
vt 0.6251 0.9688
vt 0.7030 0.9688
vt 0.6251 0.9688
vt 0.6251 0.9999
vt 0.7030 0.9999
vt 0.7030 0.9688
vt 0.5703 0.2578
vt 0.5039 0.2578
vt 0.5547 0.2852
vt 0.5703 0.3242
vt 0.2968 0.9688
vt 0.2813 0.9843
vt 0.2885 0.9688
vt 0.2968 0.9688
vt 0.2907 0.9765
vt 0.8906 0.3125
vt 0.7820 0.2618
vt 0.7820 0.2600
vt 0.7894 0.2600
vt 0.1016 0.7578
vt 0.1556 0.7879
vt 0.0586 0.7812
vt 0.0586 0.7344
vt 0.1534 0.7528
vt 0.0273 0.7578
vt 0.0586 0.7578
vt 0.9999 0.3126
vt 0.9999 0.3398
vt 0.8751 0.3749
vt 0.8751 0.3477
vt 0.9999 0.3477
vt 0.9999 0.3749
vt 0.8789 0.3398
vt 0.8751 0.3126
vt 0.9999 0.3126
vt 0.9999 0.3749
vt 0.7501 0.3749
vt 0.7501 0.3126
vt 0.9999 0.3126
vt 0.8751 0.3477
vt 0.8751 0.3749
vt 0.9999 0.3398
vt 0.9999 0.3477
vt 0.8751 0.3126
vt 0.8789 0.3398
vt 0.9999 0.3749
vt 0.9999 0.3126
vt 0.7501 0.3126
vt 0.7501 0.3749
vt 0.9999 0.3749
vn -0.1313 0.3134 0.9405
vn 0.1309 0.3134 0.9406
vn 0.1209 0.9357 -0.3314
vn -0.3096 0.0808 -0.9474
vn -0.2639 -0.9394 -0.2190
vn -0.2396 -0.3735 -0.8961
vn -0.2401 -0.3733 -0.8961
vn -0.2394 -0.3737 -0.8961
vn -0.2271 -0.9536 -0.1977
vn -0.0000 0.9999 0.0166
vn -0.8284 0.5599 -0.0163
vn -0.3762 0.8840 0.2776
vn 0.2047 0.3646 -0.9084
vn -0.9179 -0.2579 -0.3016
vn -0.9405 -0.3383 0.0308
vn -0.9362 -0.1957 -0.2919
vn -0.4239 -0.8883 -0.1767
vn -0.9354 0.0668 0.3471
vn -0.7403 -0.6721 0.0192
vn -0.9950 -0.0371 -0.0931
vn -0.9057 0.2090 0.3688
vn 0.1265 -0.8171 -0.5625
vn -0.7347 -0.4003 -0.5477
vn -0.2391 -0.3738 -0.8962
vn -0.6988 -0.7129 -0.0593
vn -0.1208 0.9357 -0.3315
vn 0.3099 0.0808 -0.9473
vn 0.2639 -0.9394 -0.2189
vn 0.2400 -0.3735 -0.8960
vn 0.2398 -0.3737 -0.8960
vn 0.2404 -0.3733 -0.8960
vn 0.2271 -0.9536 -0.1976
vn 0.0001 0.9025 -0.4307
vn 0.8284 0.5599 -0.0160
vn 0.3761 0.8840 0.2777
vn -0.2044 0.3646 -0.9085
vn 0.9180 -0.2579 -0.3013
vn 0.9405 -0.3383 0.0312
vn 0.9363 -0.1957 -0.2916
vn 0.4240 -0.8883 -0.1766
vn 0.9353 0.0668 0.3475
vn 0.7402 -0.6721 0.0194
vn 0.9950 -0.0371 -0.0927
vn -0.1263 -0.8171 -0.5625
vn 0.7349 -0.4003 -0.5475
vn 0.2394 -0.3738 -0.8961
vn 0.6988 -0.7129 -0.0590
vn 0.1062 0.0345 0.9937
vn 0.7696 0.1508 0.6204
vn -0.2329 0.4883 0.8410
vn -0.1479 0.0839 0.9854
vn -0.3329 -0.0724 0.9402
vn -0.3790 0.0471 0.9242
vn -0.9843 -0.0559 -0.1674
vn -0.8548 -0.3567 0.3769
vn -0.9688 -0.1492 -0.1978
vn -0.0294 0.5288 0.8483
vn -0.1705 0.4633 0.8696
vn 0.2571 0.8014 0.5400
vn 0.8957 -0.4078 0.1775
vn 0.9876 0.1047 0.1167
vn -0.5384 0.5277 -0.6570
vn 0.6321 -0.1742 -0.7550
vn 0.7225 -0.2321 -0.6512
vn 0.8487 0.2346 0.4740
vn -0.5722 -0.3467 -0.7432
vn -0.4267 -0.3372 -0.8392
vn -0.7912 -0.6108 0.0312
vn 0.3056 0.5130 -0.8021
vn -0.1632 0.6936 -0.7016
vn -0.1355 0.8127 -0.5667
vn 0.0419 0.6696 -0.7416
vn 0.0419 0.6698 -0.7414
vn 0.0419 0.6701 -0.7411
vn 0.0419 0.6702 -0.7410
vn 0.9590 0.1369 -0.2480
vn 0.7823 0.1718 0.5987
vn -0.3693 0.0912 -0.9248
vn -0.1483 0.5113 0.8465
vn 0.4014 -0.0035 0.9159
vn 0.9369 -0.2539 -0.2404
vn 0.9435 0.1079 -0.3132
vn -0.8541 -0.0603 -0.5166
vn -0.5885 -0.6492 -0.4818
vn -0.9674 -0.2196 0.1261
vn -0.9812 -0.1444 0.1280
vn -0.1420 0.9898 0.0126
vn 0.1127 0.3466 0.9312
vn 0.1207 -0.9927 -0.0038
vn -0.1069 -0.0015 -0.9943
vn -0.0888 -0.6706 0.7365
vn -0.9636 0.2597 0.0636
vn 0.0108 0.4103 -0.9119
vn 0.9728 0.1306 0.1915
vn 0.1761 -0.0730 0.9817
vn 0.9281 -0.3710 0.0315
vn 0.8549 0.0840 -0.5120
vn 0.8897 -0.4565 -0.0007
vn -0.7849 -0.2612 0.5618
vn 0.2781 -0.6211 -0.7328
vn 0.9248 0.0155 0.3802
vn 0.2609 0.7289 -0.6329
vn -0.7195 0.5582 0.4132
vn -0.9049 0.1808 -0.3853
vn -0.8132 -0.0959 0.5740
vn 0.2953 -0.2714 0.9160
vn -0.5565 -0.4017 -0.7272
vn -0.6274 0.0930 -0.7731
vn 0.9959 -0.0763 0.0480
vn -0.9249 0.0155 0.3799
vn -0.2371 0.3310 -0.9133
vn 0.0086 0.6869 -0.7267
vn -0.9297 0.3576 0.0876
vn 0.1304 -0.5707 0.8108
vn 0.2629 0.7181 -0.6443
vn 0.7681 -0.3498 0.5363
vn 0.3549 -0.0325 -0.9343
vn 0.8504 0.1719 -0.4973
vn -0.8976 0.2259 -0.3786
vn -0.2574 0.1649 -0.9521
vn -0.9791 -0.1680 0.1146
vn -0.3568 0.3595 0.8622
vn -0.5451 -0.8297 0.1202
vn 0.5438 0.8304 -0.1211
vn 0.3565 -0.3594 -0.8624
vn -0.7420 0.4610 -0.4868
vn -0.7808 -0.0725 0.6205
vn 0.7193 0.5582 0.4135
vn -0.9893 -0.1274 0.0716
vn 0.9974 0.0076 -0.0718
vn 0.2109 -0.7881 0.5783
vn 0.9674 -0.2196 0.1264
vn 0.9812 -0.1444 0.1283
vn 0.1420 0.9898 0.0127
vn -0.1130 0.3466 0.9312
vn -0.1207 -0.9927 -0.0038
vn 0.1073 -0.0015 -0.9942
vn 0.0886 -0.6706 0.7365
vn 0.9636 0.2597 0.0639
vn -0.0105 0.4103 -0.9119
vn -0.9728 0.1306 0.1911
vn -0.1764 -0.0730 0.9816
vn -0.9281 -0.3711 0.0312
vn -0.8547 0.0840 -0.5123
vn -0.8897 -0.4565 -0.0010
vn 0.7847 -0.2612 0.5621
vn -0.2778 -0.6211 -0.7329
vn -0.3324 -0.0925 0.9386
vn -0.2607 0.7289 -0.6330
vn 0.8295 0.3886 0.4013
vn 0.9051 0.1808 -0.3849
vn 0.8130 -0.0959 0.5743
vn -0.2957 -0.2714 0.9159
vn 0.5568 -0.4017 -0.7270
vn 0.6277 0.0930 -0.7729
vn -0.9959 -0.0763 0.0476
vn 0.2375 0.3310 -0.9133
vn -0.0084 0.6869 -0.7267
vn 0.9297 0.3576 0.0879
vn -0.1307 -0.5707 0.8107
vn -0.2627 0.7181 -0.6444
vn -0.7683 -0.3498 0.5361
vn -0.3545 -0.0325 -0.9345
vn -0.8502 0.1719 -0.4976
vn 0.8977 0.2259 -0.3783
vn 0.2577 0.1649 -0.9520
vn 0.9791 -0.1680 0.1150
vn 0.3565 0.3595 0.8624
vn 0.5451 -0.8297 0.1204
vn -0.5438 0.8304 -0.1213
vn -0.3562 -0.3594 -0.8625
vn 0.7421 0.4610 -0.4866
vn 0.7806 -0.0725 0.6208
vn 0.9892 -0.1274 0.0719
vn -0.9974 0.0076 -0.0721
vn -0.2111 -0.7881 0.5782
vn -0.1094 0.4966 0.8611
vn 0.3321 -0.0925 0.9387
vn 0.9019 -0.2245 -0.3689
vn -0.2233 0.0817 0.9713
vn -0.6875 -0.1881 -0.7014
vn -0.1068 0.4676 0.8775
vn -0.8386 0.4700 -0.2755
vn -0.9302 0.2579 -0.2610
vn -0.2726 0.1278 0.9536
vn -0.8296 0.3886 0.4010
vn 0.1792 0.2315 0.9562
vn 0.0450 0.2141 0.9758
vn 0.1111 0.2232 0.9684
vn -0.0708 0.2083 0.9755
vn -0.0307 0.2079 0.9777
vn -0.1141 0.2084 0.9714
vn -0.1093 -0.2066 -0.9723
vn -0.0676 -0.2072 -0.9760
vn -0.0299 -0.2074 -0.9778
vn 0.0708 -0.2083 -0.9755
vn 0.1141 -0.2084 -0.9714
vn 0.0307 -0.2079 -0.9777
s off
f 131/1/1 133/2/1 132/3/1 134/4/1
f 125/5/2 128/6/2 126/7/2 127/8/2
f 128/6/2 129/9/2 130/10/2 126/7/2
f 134/4/1 132/3/1 136/11/1 135/12/1
s 1
f 1/13/3 2/14/3 3/15/3
f 4/16/4 5/17/4 2/14/4
f 6/18/5 7/19/5 8/20/5
f 9/21/6 5/17/7 4/16/8
f 7/19/9 6/18/9 9/21/9
f 10/22/10 11/23/10 3/15/10
f 12/24/11 13/25/11 3/15/11
f 13/25/12 10/22/12 3/15/12
f 1/13/13 4/16/13 2/14/13
f 14/26/14 15/27/14 5/17/14
f 12/24/15 15/27/15 16/28/15
f 5/17/16 15/27/16 12/24/16
f 6/18/17 14/26/17 9/21/17
f 13/25/18 12/24/18 16/28/18
f 6/18/19 17/29/19 18/30/19
f 19/31/20 18/30/20 17/29/20
f 20/32/21 21/33/21 22/34/21
f 23/35/22 7/19/22 9/21/22
f 9/21/23 14/26/23 5/17/23
f 23/35/24 9/21/6 4/16/8
f 18/30/25 14/26/25 6/18/25
f 11/36/26 24/37/26 1/13/26
f 4/16/27 24/37/27 25/38/27
f 26/39/28 8/20/28 7/19/28
f 27/40/29 4/16/30 25/38/31
f 7/19/32 27/40/32 26/39/32
f 11/23/33 1/13/33 3/15/33
f 28/41/34 11/36/34 29/42/34
f 29/42/35 11/36/35 10/22/35
f 1/13/36 24/37/36 4/16/36
f 30/43/37 25/38/37 31/44/37
f 28/41/38 32/45/38 31/44/38
f 25/38/39 28/41/39 31/44/39
f 26/39/40 27/40/40 30/43/40
f 29/42/41 32/45/41 28/41/41
f 26/39/42 33/46/42 34/47/42
f 35/48/43 34/47/43 33/46/43
f 23/35/44 27/40/44 7/19/44
f 27/40/45 25/38/45 30/43/45
f 23/35/46 4/16/30 27/40/29
f 33/46/47 26/39/47 30/43/47
f 36/49/48 37/50/48 38/51/48
f 37/50/49 39/52/49 38/51/49
f 38/51/50 40/53/50 36/49/50
f 41/54/51 36/49/51 42/55/51
f 43/56/52 44/57/52 22/34/52
f 20/32/53 22/34/53 44/57/53 42/55/53
f 21/33/54 16/58/54 22/34/54
f 45/59/55 43/56/55 22/34/55
f 16/58/56 45/59/56 22/34/56
f 42/55/57 46/60/57 47/61/57
f 20/32/58 42/55/58 47/61/58
f 38/51/59 48/62/59 40/53/59
f 49/63/60 42/64/60 44/65/60 50/66/60
f 43/67/61 50/66/61 44/65/61
f 47/61/62 13/68/62 21/33/62
f 45/69/63 50/70/63 43/71/63
f 16/72/64 50/70/64 45/69/64
f 41/73/65 51/74/65 36/75/65
f 37/76/66 36/77/66 52/78/66
f 39/79/67 37/76/67 52/78/67
f 42/64/68 49/63/68 41/73/68
f 46/60/69 13/80/69 47/81/69
f 46/60/70 40/53/70 10/82/70
f 13/80/71 46/60/71 10/82/71
f 40/53/72 48/62/73 10/82/74
f 29/83/75 10/82/74 48/62/73
f 39/52/76 29/83/76 48/62/76
f 39/52/77 48/62/77 38/51/77
f 21/33/78 13/68/78 16/58/78
f 42/55/79 40/53/79 46/60/79
f 39/84/80 52/85/80 53/86/80
f 39/84/81 53/86/81 32/87/81
f 29/83/82 39/52/82 32/88/82
f 52/89/83 32/90/83 53/91/83
f 52/78/84 36/77/84 51/92/84
f 54/93/85 55/94/85 56/95/85
f 57/96/86 55/94/86 58/97/86
f 16/98/87 15/99/87 57/100/87 58/101/87
f 19/102/88 16/98/88 58/101/88 55/103/88
f 14/104/89 18/105/89 54/106/89 56/107/89
f 15/108/90 14/109/90 56/110/90 57/111/90
f 19/102/91 55/103/91 54/112/91
f 59/113/92 60/114/92 61/115/92
f 60/114/93 62/116/93 63/117/93
f 62/116/94 64/118/94 65/119/94
f 64/120/95 59/113/95 66/121/95
f 64/118/96 62/116/96 67/122/96
f 68/123/97 63/117/97 65/119/97
f 68/123/98 69/124/98 70/125/98
f 66/121/99 71/126/99 72/127/99
f 73/128/100 68/123/100 70/129/100
f 65/119/101 64/118/101 69/124/101
f 62/116/102 74/130/102 67/122/102
f 75/131/103 74/130/103 76/132/103
f 71/126/104 61/115/104 77/133/104
f 71/126/105 66/121/105 61/115/105
f 69/124/106 66/134/106 70/125/106
f 71/126/107 73/128/107 72/127/107
f 71/126/108 77/133/108 73/128/108
f 69/124/109 68/123/109 65/119/109
f 78/135/110 79/136/110 80/137/110
f 60/114/111 63/117/111 77/133/111
f 62/116/112 60/114/112 74/130/112
f 60/114/113 59/113/113 74/130/113
f 59/113/114 64/120/114 76/132/114
f 67/122/115 74/130/115 75/131/115
f 76/132/116 64/120/116 67/138/116
f 68/123/117 73/128/117 63/117/117
f 63/117/118 62/116/118 65/119/118
f 61/115/119 60/114/119 77/133/119
f 77/133/120 63/117/120 73/128/120
f 56/95/121 55/94/121 57/96/121
f 12/139/122 3/140/122 75/141/122 76/142/122
f 12/143/123 76/144/123 81/145/123 5/146/123
f 3/147/124 2/148/124 82/149/124 75/150/124
f 5/151/125 81/152/125 82/153/125 2/154/125
f 82/155/126 67/156/126 75/157/126
f 81/158/126 67/156/126 82/155/126
f 66/121/127 59/113/127 61/115/127
f 83/159/128 84/160/128 85/161/128
f 70/162/129 66/163/129 73/164/129
f 66/165/130 72/166/130 73/164/130
f 18/167/131 19/102/131 54/112/131
f 86/168/132 87/169/132 88/170/132
f 89/171/133 90/172/133 88/170/133
f 32/173/134 90/174/134 89/175/134 31/176/134
f 35/177/135 88/178/135 90/174/135 32/173/135
f 30/179/136 87/180/136 86/181/136 33/182/136
f 31/176/137 89/175/137 87/180/137 30/179/137
f 35/177/138 86/183/138 88/178/138
f 91/184/139 92/185/139 93/186/139
f 93/186/140 94/187/140 95/188/140
f 95/188/141 79/136/141 78/135/141
f 78/189/142 96/190/142 91/184/142
f 78/135/143 97/191/143 95/188/143
f 98/192/144 79/136/144 94/187/144
f 98/192/145 99/193/145 80/137/145
f 96/190/146 100/194/146 101/195/146
f 102/196/147 99/197/147 98/192/147
f 96/198/148 78/135/148 80/137/148
f 95/188/149 97/191/149 83/159/149
f 91/184/150 83/159/150 85/161/150
f 101/195/151 103/199/151 92/185/151
f 101/195/152 92/185/152 96/190/152
f 80/137/153 99/193/153 96/198/153
f 101/195/154 100/194/154 102/196/154
f 101/195/155 102/196/155 103/199/155
f 80/137/156 79/136/156 98/192/156
f 93/186/157 103/199/157 94/187/157
f 95/188/158 83/159/158 93/186/158
f 93/186/159 83/159/159 91/184/159
f 91/184/160 85/161/160 78/189/160
f 97/191/161 84/160/161 83/159/161
f 85/161/162 97/200/162 78/189/162
f 98/192/163 94/187/163 102/196/163
f 94/187/164 79/136/164 95/188/164
f 92/185/165 103/199/165 93/186/165
f 103/199/166 102/196/166 94/187/166
f 87/169/167 89/171/167 88/170/167
f 28/201/168 85/202/168 84/203/168 11/204/168
f 28/205/169 25/206/169 104/207/169 85/208/169
f 11/204/170 84/203/170 105/209/170 24/210/170
f 25/211/171 24/210/171 105/209/171 104/212/171
f 105/213/172 84/214/172 97/215/172
f 104/216/172 105/213/172 97/215/172
f 96/190/173 92/185/173 91/184/173
f 99/217/174 102/218/174 96/219/174
f 96/220/175 102/218/175 100/221/175
f 33/222/176 86/183/176 35/177/176
f 40/53/177 42/55/177 36/49/177
f 64/118/178 66/134/178 69/124/178
f 21/223/179 20/224/179 106/225/179
f 107/226/180 106/227/180 20/228/180
f 21/229/181 106/230/181 107/226/181
f 47/231/182 108/232/182 20/228/182
f 47/231/183 21/229/183 108/232/183
f 108/232/184 21/229/184 107/226/184
f 108/232/185 107/226/185 20/228/185
f 74/130/186 59/113/186 76/132/186
f 28/233/187 112/234/187 110/235/188 11/236/189
f 3/237/190 109/238/191 111/239/192 12/240/192
f 11/241/189 110/242/188 109/243/191 3/244/190
f 116/245/193 114/246/194 118/247/195 120/248/193
f 113/249/196 115/250/197 119/251/197 117/252/198
f 114/253/194 113/254/196 117/255/198 118/256/195
