# Blender v2.78 (sub 0) OBJ File: 'MikuApronSplit2.blend'
# www.blender.org
o Mesh_002_Mesh_0.008
v -0.070352 0.026552 -0.000177
v 0.024447 0.014686 -0.053441
v -0.009160 -0.084058 -0.053547
v 0.031300 0.045588 -0.000140
v 0.024428 0.014578 0.053097
v -0.018095 0.051305 0.035370
v 0.016665 -0.088961 0.019134
v -0.018083 0.051377 -0.035655
v -0.044072 -0.001414 0.053068
v -0.125522 -0.028928 -0.000243
v -0.044053 -0.001307 -0.053470
v -0.099223 -0.056787 -0.053536
v -0.009347 -0.083251 0.072405
v -0.099411 -0.055980 0.072416
v -0.069132 -0.041163 0.033999
v -0.005717 -0.048773 0.034002
v -0.005704 -0.268435 -0.034710
v -0.005704 -0.048703 -0.034486
v -0.069132 -0.216504 0.033820
v -0.069120 -0.041093 -0.034490
v -0.067851 -0.293801 -0.034748
v -0.004436 -0.293801 -0.034736
v -0.005716 -0.216504 0.033831
v -0.069119 -0.268435 -0.034722
v -0.000152 -0.119357 -0.053583
v 0.025673 -0.124260 0.019099
v -0.116514 -0.064226 -0.000279
v -0.090215 -0.092086 -0.053571
v -0.000339 -0.118549 0.072369
v -0.090403 -0.091278 0.072380
vt 0.6874 0.5273
vt 0.6798 0.5235
vt 0.6798 0.5312
vt 0.6798 0.5273
vt 0.6836 0.5312
vt 0.6874 0.5235
vt 0.6874 0.5235
vt 0.6798 0.5312
vt 0.6874 0.5312
vt 0.6798 0.5235
vt 0.6836 0.5312
vt 0.6874 0.5273
vt 0.6836 0.5235
vt 0.6798 0.5312
vt 0.6874 0.5312
vt 0.6798 0.5312
vt 0.6874 0.5235
vt 0.6798 0.5235
vt 0.6874 0.5273
vt 0.6798 0.5235
vt 0.6874 0.5235
vt 0.6798 0.5235
vt 0.6874 0.5312
vt 0.6874 0.5235
vt 0.6798 0.5273
vt 0.6874 0.5235
vt 0.6798 0.5273
vt 0.8749 0.3751
vt 0.8749 0.4374
vt 0.7501 0.4374
vt 0.6798 0.5273
vt 0.6874 0.5235
vt 0.9063 0.2343
vt 0.9063 0.2343
vt 0.9140 0.2267
vt 0.8749 0.4374
vt 0.7501 0.4374
vt 0.7852 0.3751
vt 0.7501 0.4374
vt 0.7501 0.3751
vt 0.8749 0.3751
vt 0.4658 1.0000
vt 0.4658 0.9863
vt 0.4795 1.0000
vt 0.4795 0.9863
vt 0.4775 0.9746
vt 0.4775 1.0000
vt 0.4638 0.9863
vt 0.4638 1.0000
vt 0.4775 1.0000
vt 0.4638 1.0000
vt 0.4775 0.9746
vt 0.4638 0.9746
vt 0.9999 0.4688
vt 0.9532 0.4883
vt 0.9999 0.5312
vt 0.3867 0.1405
vt 0.3867 0.1329
vt 0.3867 0.1329
vt 0.3905 0.1329
vt 0.3905 0.1405
vt 0.3829 0.1405
vt 0.4775 0.9863
vt 0.4755 0.9883
vt 0.4697 0.9883
vt 0.4775 0.9863
vt 0.4755 0.9863
vt 0.8751 0.4374
vt 0.9374 0.3751
vt 0.8751 0.3751
vt 0.8749 0.4374
vt 0.7501 0.4374
vt 0.7501 0.3751
vt 0.8203 0.3751
vt 0.8749 0.3751
vt 0.8749 0.4374
vt 0.8751 0.4374
vt 0.9374 0.4374
vt 0.9374 0.3751
vt 0.8086 0.3751
vt 0.7501 0.3282
vt 0.8827 0.3320
vt 0.8827 0.3358
vt 0.7501 0.3320
vt 0.7501 0.3282
vt 0.8827 0.3282
vt 0.8827 0.3358
vt 0.7501 0.3358
vt 0.8827 0.3320
vt 0.7501 0.3320
vt 0.8827 0.3358
vt 0.7501 0.3282
vt 0.8827 0.3320
vt 0.8827 0.3358
vt 0.7501 0.3320
vt 0.7501 0.3282
vt 0.8827 0.3282
vt 0.8827 0.3358
vt 0.7501 0.3358
vt 0.7501 0.3282
vt 0.8827 0.3282
vt 0.7501 0.3358
vn -0.6801 0.7331 0.0006
vn -0.3015 0.4507 0.8402
vn -0.1431 0.8362 0.5294
vn 0.6719 0.2643 0.6919
vn 0.6632 0.2043 -0.7200
vn -0.1429 0.8373 -0.5277
vn 0.8002 0.5998 0.0008
vn -0.3045 0.3237 -0.8958
vn 0.4876 0.0392 0.8722
vn 0.9742 -0.2125 0.0763
vn 0.5307 -0.1797 -0.8283
vn -0.2949 0.5708 0.7663
vn -0.6789 0.7330 -0.0422
vn -0.7346 -0.0007 0.6785
vn -0.8374 -0.0040 0.5466
vn 0.6806 -0.0007 0.7326
vn 0.8396 0.0029 0.5433
vn 0.6915 0.0251 -0.7219
vn 0.6809 0.0007 -0.7324
vn -0.7344 0.0007 -0.6788
vn -0.7214 -0.0248 -0.6921
vn -0.4133 -0.0197 -0.9104
vn 0.4235 0.0221 -0.9056
vn 0.2820 0.9594 -0.0020
vn 0.4148 0.9098 -0.0136
vn 0.3913 0.9203 0.0040
vn -0.3793 0.3782 -0.8445
vn 0.2896 0.9564 0.0389
vn 0.2896 0.9564 -0.0384
vn 0.7240 0.6898 -0.0033
vn -0.7328 -0.1864 -0.6544
vn 0.4538 0.1167 -0.8834
vn 0.6997 0.1792 -0.6916
vn -0.3580 -0.0904 -0.9293
vn -0.7598 -0.1945 0.6204
vn -0.9686 -0.2472 -0.0252
vn -0.9677 -0.2469 -0.0520
vn -0.4109 -0.1058 0.9055
vn 0.4101 0.1037 0.9061
vn 0.6581 0.1672 0.7341
vn 0.9673 0.2468 0.0584
vn 0.9680 0.2470 0.0436
s 1
f 1/1/1 9/2/2 6/3/3
f 5/4/4 6/5/3 9/6/2
f 2/7/5 8/8/6 4/9/7
f 11/10/8 8/11/6 2/12/5
f 6/13/3 4/14/7 8/15/6
f 5/16/4 13/17/9 7/18/10
f 4/14/7 6/19/3 5/20/4
f 7/21/10 3/22/11 2/23/5
f 8/15/6 11/24/8 1/25/1
f 1/26/1 6/27/3 8/8/6
f 9/28/2 14/29/12 13/30/9
f 7/31/10 2/23/5 5/32/4
f 5/33/4 2/34/5 4/35/7
f 10/36/13 14/37/12 9/38/2
f 10/39/13 1/40/1 11/41/8
f 15/42/14 19/43/15 16/44/16
f 16/44/16 19/43/15 23/45/17
f 17/46/18 18/47/19 23/48/17
f 23/48/17 18/47/19 16/49/16
f 20/50/20 18/51/19 24/52/21
f 24/52/21 18/51/19 17/53/18
f 24/54/21 19/55/15 20/56/20
f 20/57/20 19/58/15 15/59/14
f 19/60/15 24/61/21 21/62/22
f 22/63/23 17/64/18 23/65/17
f 21/66/22 24/67/21 22/63/23
f 22/63/23 24/67/21 17/64/18
f 7/68/24 12/69/25 14/70/26
f 3/71/11 12/72/27 11/73/8
f 9/28/2 13/30/9 5/74/4
f 10/36/13 9/38/2 1/75/1
f 10/39/13 11/41/8 12/76/27
f 14/70/26 13/77/28 7/68/24
f 7/68/24 3/78/29 12/69/25
f 12/69/25 10/79/30 14/70/26
f 3/71/11 11/73/8 2/80/5
f 12/81/31 3/82/32 25/83/33 28/84/34
f 14/85/35 10/86/36 27/87/37 30/88/38
f 13/89/39 14/85/35 30/90/38 29/91/40
f 10/92/36 12/93/31 28/94/34 27/95/37
f 3/96/32 7/97/41 26/98/42 25/99/33
f 7/100/41 13/101/39 29/91/40 26/102/42
