# Blender v2.78 (sub 0) OBJ File: 'MikuApronSplit2.blend'
# www.blender.org
o Mesh_009_Mesh_0.014
v -0.020289 0.074445 0.048342
v 0.081234 0.071154 0.087116
v 0.081260 0.053569 -0.058244
v -0.199395 -0.267258 -0.019784
v -0.162125 -0.267083 -0.191401
v -0.105519 -0.267435 0.153476
v 0.001464 0.056268 -0.072697
v 0.065047 -0.267038 -0.235076
v 0.035153 -0.265778 0.234361
v 0.133142 -0.265765 0.221618
v -0.166921 -0.260079 -0.016108
v -0.133987 -0.259924 -0.167759
v -0.083966 -0.260235 0.136994
v 0.066756 -0.259884 -0.206352
v 0.040339 -0.258771 0.208469
v 0.126929 -0.258759 0.197209
v -0.083966 -0.328054 0.136991
v -0.166920 -0.327898 -0.016111
v -0.133986 -0.327744 -0.167762
v 0.066756 -0.327704 -0.206356
v 0.040339 -0.326590 0.208466
v 0.126929 -0.326579 0.197206
v -0.048359 -0.077079 0.073767
v -0.074845 -0.065621 -0.014870
v -0.038150 -0.359749 -0.003563
v 0.011507 -0.356223 -0.055873
v 0.014742 -0.093535 -0.077116
v 0.079744 -0.109158 -0.029494
v 0.041746 -0.363393 0.054337
v 0.055713 -0.103615 0.075463
v -0.010992 -0.366444 0.056028
v 0.065273 -0.356263 -0.016524
vt 0.6836 0.5312
vt 0.6874 0.5235
vt 0.6798 0.5235
vt 0.6874 0.5312
vt 0.6798 0.5235
vt 0.5938 0.3046
vt 0.6015 0.3008
vt 0.5977 0.2970
vt 0.6015 0.2970
vt 0.5938 0.2970
vt 0.5938 0.3046
vt 0.6874 0.5312
vt 0.6798 0.5235
vt 0.5977 0.3046
vt 0.6015 0.3046
vt 0.6015 0.3046
vt 0.9999 0.1680
vt 0.9376 0.1563
vt 0.9531 0.3047
vt 0.9844 0.3124
vt 0.5938 0.3046
vt 0.5977 0.2970
vt 0.6015 0.3008
vt 0.6015 0.2970
vt 0.5938 0.3046
vt 0.5938 0.2970
vt 0.5977 0.3046
vt 0.6015 0.3046
vt 0.6015 0.3046
vt 0.5938 0.3046
vt 0.6015 0.3008
vt 0.5977 0.2970
vt 0.6015 0.2970
vt 0.5938 0.2970
vt 0.5938 0.3046
vt 0.5977 0.3046
vt 0.7496 0.3676
vt 0.7496 0.4371
vt 0.6254 0.4371
vt 0.6254 0.3676
vt 0.7496 0.3676
vt 0.7496 0.4371
vt 0.6254 0.4371
vt 0.6254 0.3676
vt 0.7496 0.3676
vt 0.7496 0.4371
vt 0.6254 0.4371
vt 0.6254 0.3676
vt 0.7496 0.3676
vt 0.7496 0.4371
vt 0.6254 0.4371
vt 0.6254 0.3676
vt 0.7496 0.3676
vt 0.7496 0.4371
vt 0.6254 0.4371
vt 0.6254 0.3676
vt 0.0004 0.3125
vt 0.0004 0.2504
vt 0.1715 0.2504
vt 0.1715 0.3125
vt 0.0004 0.3051
vt 0.1715 0.3355
vt 0.1715 0.3051
vt 0.3789 0.1327
vt 0.3751 0.1327
vt 0.3827 0.1251
vt 0.4570 0.1407
vt 0.4492 0.1483
vt 0.4570 0.1483
vt 0.3789 0.1251
vt 0.3751 0.1327
vt 0.3827 0.1327
vt 0.3827 0.1251
vt 0.3789 0.1251
vt 0.3827 0.1327
vt 0.3789 0.1327
vt 0.3751 0.1251
vt 0.4608 0.1483
vt 0.4532 0.1483
vt 0.4532 0.1407
vt 0.3751 0.1327
vt 0.3789 0.1251
vt 0.4570 0.1407
vt 0.4608 0.1407
vt 0.4608 0.1483
vt 0.4570 0.1407
vt 0.4532 0.1445
vt 0.4608 0.1483
vt 0.4608 0.1445
vt 0.4570 0.1483
vt 0.4532 0.1407
vn -0.4541 0.5750 -0.6805
vn -0.1143 -0.5388 -0.8347
vn -0.6589 -0.3912 -0.6425
vn -0.8884 -0.4519 0.0808
vn -0.5892 -0.5081 0.6282
vn -0.1483 -0.4756 0.8671
vn 0.1728 0.4690 -0.8661
vn 0.1048 -0.5841 0.8049
vn -0.7517 0.4950 0.4358
vn -0.5490 0.6458 0.5306
vn -0.5586 0.6010 -0.5716
vn -0.7635 0.6365 0.1091
vn -0.1510 0.6430 0.7508
vn -0.1356 0.6966 -0.7046
vn 0.0915 0.7038 0.7044
vn -0.5385 -0.6553 0.5298
vn -0.7635 -0.6366 0.1082
vn -0.5575 -0.6022 -0.5714
vn -0.1444 -0.6434 -0.7518
vn -0.1811 -0.3494 0.9193
vn 0.1290 -0.0000 0.9916
vn -0.3377 0.3929 0.8553
vn -0.9562 -0.1089 0.2717
vn 0.5780 -0.0728 -0.8128
vn -0.0107 -0.0710 0.9974
vn 0.9638 -0.0583 0.2602
vn -0.5818 -0.0584 -0.8112
vn -0.9067 -0.1414 0.3973
vn -0.7165 -0.1158 -0.6879
vn 0.5888 -0.0767 -0.8046
vn 0.0316 -0.9938 -0.1062
vn 0.0286 -0.9988 -0.0401
s 1
f 7/1/1 8/2/2 5/3/3
f 7/4/1 5/3/3 4/5/4
f 6/6/5 4/7/4 5/8/3
f 5/9/3 8/10/2 9/11/6
f 7/4/1 3/12/7 8/13/2
f 5/9/3 9/11/6 6/14/5
f 10/15/8 9/16/6 8/10/2
f 4/17/4 6/18/5 1/19/9
f 4/17/4 1/19/9 7/20/1
f 13/21/10 12/22/11 11/23/12
f 12/24/11 15/25/13 14/26/14
f 12/24/11 13/27/10 15/25/13
f 16/28/15 14/26/14 15/29/13
f 17/30/16 18/31/17 19/32/18
f 19/33/18 20/34/19 21/35/20
f 19/33/18 21/35/20 17/36/16
f 14/37/14 20/38/19 19/39/18 12/40/11
f 12/41/11 19/42/18 18/43/17 11/44/12
f 15/45/13 21/46/20 22/47/21 16/48/15
f 13/49/10 17/50/16 21/51/20 15/52/13
f 11/53/12 18/54/17 17/55/16 13/56/10
f 2/57/22 1/58/9 6/59/5 9/60/6
f 2/61/22 9/62/6 10/63/8
f 23/64/23 24/65/23 25/66/23
f 26/67/24 27/68/24 28/69/24
f 29/70/25 30/71/25 23/72/25 31/73/25
f 32/74/26 28/75/26 30/76/26 29/77/26
f 24/78/27 27/79/27 26/80/27
f 31/73/28 23/81/28 25/82/28
f 25/83/29 24/78/29 26/80/29
f 32/84/30 26/80/30 28/85/30
f 31/86/31 25/87/31 32/88/31 29/89/31
f 26/90/32 32/88/32 25/91/32
