# Blender v2.78 (sub 0) OBJ File: 'MikuApronSplit2.blend'
# www.blender.org
o Mesh_007_Mesh_0.002
v -0.001203 0.125983 0.390271
v -0.001203 0.102202 0.390246
v -0.001198 0.102176 0.415612
v -0.001198 0.125957 0.415637
v 0.010312 0.006323 0.034054
v -0.053103 0.006323 0.034066
v -0.053115 0.006393 -0.034423
v 0.033154 -0.050821 0.102480
v 0.047101 -0.110408 0.079588
v -0.094973 -0.112811 -0.051025
v 0.005243 -0.164920 0.055442
v -0.094954 -0.123066 0.055502
v 0.005223 -0.154665 -0.051086
v 0.047078 -0.093787 -0.051031
v 0.010300 0.006393 -0.034434
vt 0.7890 0.5001
vt 0.7813 0.5077
vt 0.7852 0.5001
vt 0.7813 0.5001
vt 0.7890 0.5001
vt 0.7852 0.5077
vt 0.7813 0.5077
vt 0.7890 0.5001
vt 0.7890 0.5077
vt 0.7813 0.5039
vt 0.7852 0.5077
vt 0.7890 0.5001
vt 0.4608 0.0548
vt 0.4608 0.0624
vt 0.4532 0.0548
vt 0.4532 0.0624
vt 0.7890 0.5001
vt 0.7890 0.5077
vt 0.7813 0.5001
vt 0.7813 0.5001
vt 0.7890 0.5001
vt 0.7890 0.5077
vt 0.7890 0.5001
vt 0.7813 0.5077
vt 0.7813 0.5077
vt 0.7813 0.5001
vt 0.7890 0.5077
vt 0.7813 0.5039
vt 0.7852 0.5077
vt 0.4608 0.0624
vt 0.4532 0.0586
vt 0.4608 0.0624
vt 0.4532 0.0548
vn -0.7096 0.4905 0.5058
vn 0.4526 0.2995 0.8399
vn 0.6562 0.6724 0.3425
vn -0.7379 -0.2732 -0.6172
vn 0.7577 -0.0449 -0.6511
vn 0.2294 -0.7473 -0.6236
vn 0.7438 -0.3409 0.5749
vn -0.7889 -0.3718 0.4893
vn -0.6184 0.3246 -0.7157
vn 0.1926 -0.8924 0.4081
vn 0.6058 0.3459 -0.7165
s 1
f 6/1/1 8/2/2 5/3/3
f 10/4/4 14/5/5 13/6/6
f 14/7/5 8/8/2 9/9/7
f 8/10/2 6/11/1 12/12/8
f 12/13/8 6/14/1 10/15/4
f 6/14/1 7/16/9 10/15/4
f 13/17/6 14/18/5 11/19/10
f 14/20/5 9/21/7 11/22/10
f 11/23/10 12/24/8 13/17/6
f 12/24/8 10/25/4 13/17/6
f 14/7/5 15/26/11 8/27/2
f 15/26/11 5/3/3 8/27/2
f 12/12/8 11/19/10 8/2/2
f 11/23/10 9/28/7 8/29/2
f 10/15/4 7/30/9 14/31/5
f 7/30/9 15/32/11 14/33/5
