# Blender v2.78 (sub 0) OBJ File: ''
# www.blender.org
mtllib mesh_011.mtl
o Mesh_011_Mesh_011_Mesh_0.010
v 0.033466 0.004124 0.011543
v -0.022694 0.004116 0.019423
v -0.043807 -0.079913 0.109459
v 0.069886 -0.097498 0.111672
v 0.030839 -0.131563 0.237492
v -0.051473 -0.130062 0.228589
v 0.078624 -0.216599 0.211842
v -0.056642 -0.216327 -0.055627
v -0.048478 -0.216600 0.212518
v 0.070624 -0.216453 0.068777
v -0.041344 -0.007071 -0.031901
v 0.008590 -0.007035 -0.066708
v 0.030839 -0.216629 0.240263
v 0.067587 -0.216289 -0.092989
v 0.055455 -0.007073 -0.029564
vt 0.8789 0.1562
vt 0.8359 0.1562
vt 0.8359 0.0938
vt 0.8789 0.0938
vt 0.8789 0.0352
vt 0.8359 0.0352
vt 0.8789 0.0000
vt 0.9336 0.0586
vt 0.7188 0.0000
vt 0.8359 0.0000
vt 0.9336 0.0000
vt 0.7266 0.0977
vt 0.6992 0.0977
vt 0.8594 0.0000
vt 0.6680 0.0000
vt 0.6680 0.0977
vt 1.0000 0.0000
vt 1.0000 0.0977
vt 0.9648 0.0977
vt 0.7500 0.0977
vt 0.7891 0.0625
vt 0.4688 0.0624
vt 0.4765 0.0624
vt 0.4727 0.0548
vt 0.4688 0.0548
vt 0.4688 0.0624
vt 0.4765 0.0586
vt 0.4765 0.0624
vt 0.4727 0.0548
vt 0.4688 0.0548
vt 0.4765 0.0548
vt 0.4688 0.0624
vt 0.9845 0.2461
vt 0.9845 0.2423
vt 0.9921 0.2499
vt 0.9883 0.2499
vt 0.9921 0.2423
vn 0.0972 0.7161 0.6912
vn 0.1402 0.9439 0.2991
vn -0.0250 0.9220 0.3865
vn 0.8543 0.3699 0.3653
vn -0.9987 -0.0402 0.0304
vn 0.9981 0.0263 -0.0558
vn -0.5668 0.1336 -0.8130
vn -0.1069 0.0324 0.9937
vn 0.5110 0.0280 0.8591
vn 0.5993 0.2639 -0.7558
vn 0.9958 0.0742 -0.0542
vn 0.7890 0.5508 0.2720
vn -0.8664 0.4499 0.2167
vn -0.9973 0.0707 0.0191
vn -0.9934 0.1132 -0.0163
vn -0.2878 0.0390 -0.9569
vn -0.3246 -0.1835 0.9279
vn 0.9997 0.0130 -0.0188
vn 0.0000 -1.0000 -0.0010
vn 0.0000 -1.0000 -0.0011
vn -0.0086 0.9718 -0.2357
vn -0.0055 0.9887 -0.1499
vn -0.0057 0.9879 -0.1552
vn -0.0000 1.0000 0.0010
usemtl ApronMikuTex
s 1
f 1/1/1 2/2/1 3/3/1 4/4/1
f 4/4/2 3/3/2 5/5/2
f 5/5/3 3/3/3 6/6/3
f 7/7/4 4/8/4 5/5/4
f 8/9/5 9/10/5 6/6/5
f 10/11/6 4/8/6 7/7/6
f 8/9/7 11/12/7 12/13/7
f 5/5/8 6/6/8 13/14/8
f 13/14/9 7/7/9 5/5/9
f 14/15/10 12/13/10 15/16/10
f 14/17/11 15/18/11 4/8/11
f 1/19/12 4/8/12 15/18/12
f 2/20/13 11/12/13 3/21/13
f 8/9/14 3/21/14 11/12/14
f 3/21/15 8/9/15 6/6/15
f 14/15/16 8/9/16 12/13/16
f 6/6/17 9/10/17 13/14/17
f 10/11/18 14/17/18 4/8/18
f 9/22/19 7/23/19 13/24/20
f 9/25/19 8/26/19 10/27/19
f 8/26/19 14/28/19 10/29/19
f 7/30/19 9/31/19 10/32/19
f 1/33/21 15/34/22 11/35/23 2/36/21
f 11/35/23 15/34/22 12/37/24
