# Blender v2.78 (sub 0) OBJ File: 'MikuApronSplit2.blend'
# www.blender.org
o Mesh_010_Mesh_0.012
v -0.065552 -0.105714 -0.016739
v -0.044483 -0.028318 -0.004762
v 0.009868 -0.025831 -0.062019
v 0.003510 -0.105818 -0.097603
v -0.014757 -0.027897 0.060470
v 0.068717 -0.025875 -0.018950
v 0.006957 -0.386956 -0.067096
v 0.053821 -0.386993 -0.029951
v -0.024327 -0.387290 0.019024
v -0.042977 -0.386991 -0.032289
v 0.042965 -0.027405 0.058616
v 0.031833 -0.387282 0.011144
vt 0.4530 0.1289
vt 0.4492 0.1562
vt 0.4376 0.1562
vt 0.4376 0.1289
vt 0.3905 0.1562
vt 0.3595 0.1562
vt 0.3595 0.1095
vt 0.3595 0.1095
vt 0.3595 0.1562
vt 0.3905 0.1562
vt 0.3793 -0.0000
vt 0.3827 0.1133
vt 0.3673 0.1483
vt 0.3701 -0.0000
vt 0.3750 0.0001
vt 0.3673 0.1483
vt 0.3827 0.1133
vt 0.3821 -0.0002
vt 0.4647 0.0001
vt 0.4647 0.1132
vt 0.4493 0.1132
vt 0.4493 0.0001
vt 0.3765 -0.0001
vt 0.3827 0.1483
vt 0.3711 0.1483
vt 0.3673 -0.0001
vt 0.3827 0.0001
vt 0.3827 0.1483
vt 0.3673 0.0001
vt 0.3905 0.1329
vt 0.3867 0.1329
vt 0.3829 0.1405
vt 0.3905 0.1405
vt 0.3867 0.1405
vt 0.3829 0.1329
vn -0.7106 0.3141 -0.6295
vn -0.8954 0.1808 0.4069
vn 0.5639 0.2978 -0.7702
vn 0.7297 -0.0337 -0.6829
vn -0.8619 -0.0623 0.5033
vn -0.6961 -0.0513 -0.7161
vn 0.9262 -0.0636 0.3717
vn 0.0850 -0.1247 0.9885
vn -0.0164 0.9998 0.0082
vn -0.0183 0.9995 0.0260
s 1
f 1/1/1 2/2/1 3/3/1 4/4/1
f 5/5/2 2/6/2 1/7/2
f 4/8/3 3/9/3 6/10/3
f 7/11/4 4/12/4 6/13/4 8/14/4
f 9/15/5 5/16/5 1/17/5 10/18/5
f 10/19/6 1/20/6 4/21/6 7/22/6
f 8/23/7 6/24/7 11/25/7 12/26/7
f 12/27/8 11/28/8 5/16/8 9/29/8
f 5/30/9 11/31/9 6/32/9 2/33/9
f 3/34/10 2/33/10 6/35/10
