# Blender v2.78 (sub 0) OBJ File: 'MikuApronSplit2.blend'
# www.blender.org
o Mesh_005_Mesh_0.001
v 0.044148 -0.002112 0.053084
v 0.013117 -0.083830 0.072407
v 0.018178 0.050607 0.035377
v 0.099160 -0.056680 -0.053500
v -0.031205 0.044890 -0.000151
v -0.024333 0.013989 -0.053450
v 0.044168 -0.002003 -0.053454
v 0.018191 0.050680 -0.035648
v 0.070447 0.025855 -0.000152
v -0.012877 -0.089540 0.019127
v -0.024352 0.013880 0.053088
v 0.125439 -0.028822 -0.000198
v 0.099302 -0.055874 0.072451
v 0.012974 -0.084636 -0.053545
v 0.069116 -0.040477 0.034024
v 0.005700 -0.048087 0.034005
v 0.005713 -0.268434 -0.034708
v 0.005701 -0.216503 0.033833
v 0.005713 -0.048017 -0.034484
v 0.069128 -0.040407 -0.034464
v 0.069116 -0.216503 0.033845
v 0.004445 -0.293800 -0.034735
v 0.069128 -0.268434 -0.034697
v 0.067860 -0.293800 -0.034723
v 0.009509 -0.120080 0.072368
v 0.095552 -0.092931 -0.053539
v -0.016485 -0.125790 0.019089
v 0.121831 -0.065072 -0.000237
v 0.095694 -0.092125 0.072412
v 0.009366 -0.120886 -0.053584
vt 0.6798 0.5273
vt 0.6874 0.5312
vt 0.6874 0.5235
vt 0.6874 0.5273
vt 0.6798 0.5235
vt 0.6836 0.5312
vt 0.6874 0.5312
vt 0.6874 0.5235
vt 0.6798 0.5312
vt 0.6798 0.5312
vt 0.6836 0.5235
vt 0.6798 0.5235
vt 0.6874 0.5273
vt 0.6874 0.5312
vt 0.6874 0.5235
vt 0.6798 0.5235
vt 0.6874 0.5312
vt 0.6874 0.5235
vt 0.6798 0.5273
vt 0.6798 0.5235
vt 0.6798 0.5312
vt 0.6874 0.5235
vt 0.6874 0.5312
vt 0.6798 0.5235
vt 0.6874 0.5312
vt 0.6874 0.5235
vt 0.8749 0.4374
vt 0.7501 0.4374
vt 0.7501 0.3751
vt 0.6874 0.5273
vt 0.6798 0.5235
vt 0.9140 0.2343
vt 0.9140 0.2343
vt 0.9063 0.2267
vt 0.8749 0.3751
vt 0.8749 0.4374
vt 0.7501 0.4374
vt 0.7501 0.3751
vt 0.8749 0.3751
vt 0.8749 0.4374
vt 0.4658 1.0000
vt 0.4795 1.0000
vt 0.4658 0.9863
vt 0.4795 0.9863
vt 0.4775 0.9746
vt 0.4638 0.9863
vt 0.4775 1.0000
vt 0.4638 1.0000
vt 0.4638 0.9746
vt 0.4638 1.0000
vt 0.4775 0.9746
vt 0.4775 1.0000
vt 0.9996 0.4613
vt 0.9996 0.5387
vt 0.9535 0.4805
vt 0.3829 0.1367
vt 0.3905 0.1367
vt 0.3829 0.1367
vt 0.3829 0.1405
vt 0.3905 0.1329
vt 0.3905 0.1405
vt 0.4775 0.9863
vt 0.4697 0.9883
vt 0.4755 0.9883
vt 0.4775 0.9863
vt 0.4755 0.9863
vt 0.7501 0.4374
vt 0.7501 0.3751
vt 0.8749 0.3751
vt 0.8984 0.4374
vt 0.9374 0.3751
vt 0.8751 0.3751
vt 0.8008 0.3751
vt 0.8242 0.3751
vt 0.7501 0.4374
vt 0.8749 0.4374
vt 0.8751 0.4374
vt 0.9374 0.4374
vt 0.9141 0.3751
vt 0.8827 0.3320
vt 0.7501 0.3282
vt 0.7501 0.3320
vt 0.8827 0.3358
vt 0.7501 0.3282
vt 0.8827 0.3282
vt 0.7501 0.3358
vt 0.7501 0.3320
vt 0.8827 0.3282
vt 0.8827 0.3320
vt 0.7501 0.3358
vt 0.8827 0.3282
vt 0.7501 0.3320
vt 0.7501 0.3358
vt 0.8827 0.3320
vt 0.7501 0.3282
vt 0.8827 0.3282
vt 0.8827 0.3358
vt 0.7501 0.3282
vt 0.8827 0.3320
vt 0.8827 0.3358
vt 0.7501 0.3320
vn 0.6781 0.7350 0.0009
vn 0.1429 0.8362 0.5294
vn 0.2995 0.4517 0.8404
vn -0.6780 0.2504 0.6911
vn -0.6679 0.1921 -0.7190
vn -0.8002 0.5998 0.0005
vn 0.1431 0.8373 -0.5276
vn 0.3035 0.3242 -0.8960
vn -0.9660 -0.2468 0.0766
vn -0.4821 0.0258 0.8757
vn -0.5203 -0.1960 -0.8312
vn 0.2873 0.5716 0.7686
vn 0.3759 0.3787 -0.8457
vn 0.6747 0.7369 -0.0417
vn 0.7344 -0.0007 0.6788
vn -0.6809 -0.0007 0.7324
vn 0.8372 -0.0040 0.5469
vn -0.8398 0.0029 0.5430
vn -0.6912 0.0251 -0.7222
vn -0.6806 0.0007 -0.7326
vn 0.7217 -0.0248 -0.6918
vn 0.7346 0.0007 -0.6785
vn 0.4137 -0.0197 -0.9102
vn -0.4232 0.0221 -0.9058
vn -0.2986 0.9544 -0.0013
vn -0.4028 0.9153 0.0062
vn -0.4258 0.9047 -0.0157
vn -0.3082 0.9502 -0.0455
vn -0.3082 0.9501 0.0485
vn -0.7240 0.6898 -0.0036
vn -0.4892 0.0496 -0.8707
vn 0.6845 -0.0674 -0.7259
vn 0.3792 -0.0367 -0.9246
vn -0.6750 0.0680 -0.7347
vn -0.9933 0.0988 0.0600
vn -0.9939 0.0989 0.0483
vn 0.9945 -0.0990 -0.0329
vn 0.9932 -0.0988 -0.0623
vn 0.7220 -0.0726 0.6881
vn -0.4434 0.0432 0.8953
vn -0.6296 0.0618 0.7744
vn 0.4356 -0.0443 0.8990
s 1
f 9/1/1 3/2/2 1/3/3
f 11/4/4 1/5/3 3/6/2
f 6/7/5 5/8/6 8/9/7
f 7/10/8 6/7/5 8/11/7
f 3/12/2 8/9/7 5/13/6
f 11/14/4 10/15/9 2/16/10
f 5/17/6 11/18/4 3/19/2
f 10/20/9 6/21/5 14/22/11
f 8/23/7 9/24/1 7/25/8
f 9/1/1 8/23/7 3/26/2
f 2/27/10 13/28/12 1/29/3
f 10/30/9 11/31/4 6/21/5
f 6/32/5 11/33/4 5/34/6
f 7/35/8 4/36/13 14/37/11
f 7/38/8 9/39/1 12/40/14
f 15/41/15 16/42/16 21/43/17
f 21/43/17 16/42/16 18/44/18
f 17/45/19 18/46/18 19/47/20
f 19/47/20 18/46/18 16/48/16
f 17/49/19 19/50/20 23/51/21
f 23/51/21 19/50/20 20/52/22
f 23/53/21 20/54/22 21/55/17
f 21/56/17 20/57/22 15/58/15
f 21/59/17 24/60/23 23/61/21
f 22/62/24 18/63/18 17/64/19
f 24/65/23 22/62/24 23/66/21
f 23/66/21 22/62/24 17/64/19
f 12/67/14 9/68/1 1/69/3
f 10/70/25 13/71/26 4/72/27
f 2/27/10 1/29/3 11/73/4
f 7/35/8 14/37/11 6/74/5
f 7/38/8 12/40/14 4/75/13
f 12/67/14 1/69/3 13/76/12
f 4/72/27 14/77/28 10/70/25
f 10/70/25 2/78/29 13/71/26
f 13/71/26 12/79/30 4/72/27
f 14/80/31 4/81/32 26/82/33 30/83/34
f 10/84/35 14/85/31 30/83/34 27/86/36
f 4/87/32 12/88/37 28/89/38 26/90/33
f 13/91/39 2/92/40 25/93/41 29/94/42
f 2/95/40 10/96/35 27/97/36 25/93/41
f 12/98/37 13/99/39 29/100/42 28/101/38
