# Blender v2.78 (sub 0) OBJ File: 'MikuApronSplit2.blend'
# www.blender.org
o Mesh_015_01_HEAD_FACE.001
v -0.076049 0.056465 0.108457
v -0.076050 0.042499 0.114754
v -0.012205 0.038760 0.143303
v -0.112256 0.061252 0.068717
v -0.112641 0.047012 0.078503
v 0.012153 0.038759 0.143307
v 0.076008 0.042500 0.114781
v 0.076009 0.056466 0.108484
v 0.112231 0.061252 0.068758
v 0.112613 0.047013 0.078544
v -0.000023 0.060322 0.129418
v -0.000027 0.157040 0.145900
v -0.081051 0.156259 0.113963
v 0.011957 0.203037 0.135305
v -0.052288 0.196026 0.117151
v 0.081009 0.156260 0.113992
v -0.125081 0.137371 0.043324
v 0.125065 0.137371 0.043369
vt 0.0499 0.8840
vt 0.0499 0.8701
vt 0.1131 0.8665
vt 0.0140 0.8887
vt 0.0137 0.8746
vt 0.1372 0.8665
vt 0.2004 0.8701
vt 0.2004 0.8840
vt 0.2362 0.8887
vt 0.2366 0.8746
vt 0.1251 0.8878
vt 0.1251 0.9835
vt 0.0449 0.9827
vt 0.1397 1.0000
vt 0.0761 0.9992
vt 0.2053 0.9827
vt 0.0014 0.9640
vt 0.2489 0.9640
vn -0.3581 0.3838 0.8511
vn -0.6873 0.2986 0.6622
vn -0.5926 0.4671 0.6563
vn 0.3578 0.3838 0.8513
vn 0.6870 0.2986 0.6624
vn 0.5923 0.4671 0.6565
vn -0.2381 0.6173 0.7498
vn 0.2378 0.6173 0.7499
vn -0.3652 -0.0695 0.9283
vn -0.2893 0.2858 0.9136
vn -0.7416 -0.0740 0.6668
vn 0.2543 -0.1625 0.9534
vn 0.3648 0.1177 0.9236
vn 0.7413 -0.0740 0.6670
vn -0.3617 0.1884 0.9131
vn -0.8519 0.0309 0.5228
vn 0.8517 0.0309 0.5231
vn -0.2546 -0.1625 0.9533
vn 0.3649 -0.0695 0.9284
s 1
f 1/1/1 2/2/1 3/3/1
f 1/1/2 4/4/2 2/2/2
f 4/4/3 5/5/3 2/2/3
f 6/6/4 7/7/4 8/8/4
f 8/8/5 7/7/5 9/9/5
f 9/9/6 7/7/6 10/10/6
f 11/11/7 1/1/7 3/3/7
f 11/11/8 6/6/8 8/8/8
f 12/12/9 13/13/9 1/1/9
f 14/14/10 15/15/10 12/12/10
f 4/4/11 1/1/11 13/13/11
f 12/12/12 11/11/12 8/8/12
f 16/16/13 14/14/13 12/12/13
f 16/16/14 8/8/14 9/9/14
f 15/15/15 13/13/15 12/12/15
f 17/17/16 4/4/16 13/13/16
f 18/18/17 16/16/17 9/9/17
f 11/11/18 12/12/18 1/1/18
f 16/16/19 12/12/19 8/8/19
