# Blender v2.78 (sub 0) OBJ File: 'MikuApronSplit2.blend'
# www.blender.org
o Mesh_006_Mesh_0.003
v -0.028049 0.035996 0.034085
v 0.035366 0.035996 0.034096
v 0.002397 -0.221435 -0.000417
v -0.029317 -0.201177 0.033843
v -0.029305 -0.041301 -0.034483
v 0.034110 -0.041301 -0.034472
v 0.034098 -0.201177 0.033854
v 0.034111 -0.201107 -0.034635
v -0.029305 -0.201107 -0.034646
v 0.002517 -0.199463 -0.112847
v -0.096090 -0.199522 -0.055940
v -0.096110 -0.199638 0.057909
v 0.002476 -0.199696 0.114851
v 0.101082 -0.199638 0.057944
v 0.002496 -0.168277 0.001034
v 0.101103 -0.199521 -0.055905
v 0.002496 -0.224949 0.000976
v 0.087436 -0.177799 0.098420
v 0.048153 -0.035660 0.059267
v 0.087469 -0.177613 -0.083767
v 0.048171 -0.035555 -0.044339
v -0.079968 -0.177800 0.098390
v -0.040670 -0.035661 0.059251
v -0.079935 -0.177614 -0.083797
v -0.040652 -0.035555 -0.044355
v 0.071911 -0.122359 -0.103911
v 0.040971 -0.008453 -0.103554
v 0.073709 -0.122216 0.006731
v 0.075508 -0.122073 0.117372
v 0.044568 -0.008168 0.117729
v 0.042770 -0.008310 0.007087
vt 0.4795 0.9785
vt 0.4795 0.9785
vt 0.4775 0.9785
vt 0.4736 0.9785
vt 0.4736 0.9785
vt 0.4775 0.9863
vt 0.4775 0.9863
vt 0.4697 0.9883
vt 0.4062 0.1405
vt 0.4062 0.1329
vt 0.3985 0.1405
vt 0.3983 0.1405
vt 0.3907 0.1329
vt 0.3983 0.1329
vt 0.3829 0.1405
vt 0.3829 0.1329
vt 0.3905 0.1329
vt 0.3905 0.1367
vt 0.3829 0.1367
vt 0.3905 0.1367
vt 0.4677 0.9883
vt 0.4677 0.9883
vt 0.4677 0.9883
vt 0.4677 0.9883
vt 0.8048 0.3749
vt 0.9062 0.3749
vt 0.8672 0.3126
vt 0.8048 0.3749
vt 0.9062 0.3749
vt 0.8048 0.3749
vt 0.9062 0.3749
vt 0.8438 0.3126
vt 0.8048 0.3749
vt 0.9062 0.3749
vt 0.8555 0.3126
vt 0.8048 0.3749
vt 0.9062 0.3749
vt 0.8048 0.3749
vt 0.9062 0.3749
vt 0.8672 0.3126
vt 0.8438 0.3126
vt 0.8555 0.3126
vt 0.7499 0.4374
vt 0.6251 0.4374
vt 0.6602 0.3126
vt 0.7148 0.3126
vt 0.7499 0.4374
vt 0.6251 0.4374
vt 0.6602 0.3126
vt 0.7148 0.3126
vt 0.7499 0.4374
vt 0.6251 0.4374
vt 0.6602 0.3126
vt 0.7148 0.3126
vt 0.7499 0.4374
vt 0.6251 0.4374
vt 0.6602 0.3126
vt 0.7148 0.3126
vt 0.7032 0.4296
vt 0.7032 0.4220
vt 0.7108 0.4220
vt 0.7108 0.4296
vt 0.9374 0.2579
vt 0.9374 0.2655
vt 0.9298 0.2655
vt 0.9298 0.2579
vt 0.0082 0.5004
vt 0.0082 0.6246
vt 0.1246 0.6246
vt 0.1246 0.5004
vt 0.0082 0.6246
vt 0.0082 0.5004
vn -0.2793 0.9167 0.2857
vn 0.2792 0.9167 0.2858
vn -0.0000 1.0000 0.0010
vn 0.2793 0.9173 -0.2839
vn -0.2792 0.9173 -0.2840
vn -0.8423 0.0043 -0.5389
vn 0.8346 -0.0032 -0.5509
vn -0.7070 0.0007 -0.7072
vn 0.7072 0.0007 -0.7070
vn -0.4159 0.0013 0.9094
vn -0.7073 0.0003 0.7069
vn 0.4219 -0.0032 0.9067
vn 0.7069 -0.0017 0.7073
vn -0.8660 -0.0198 0.4997
vn -0.0002 -0.0203 0.9998
vn 0.8660 -0.0188 -0.4998
vn 0.0002 -0.0183 -0.9998
vn 0.8658 -0.0198 0.5000
vn -0.8658 -0.0188 -0.5001
vn 0.0000 -1.0000 -0.0010
vn 0.6353 -0.4395 0.6350
vn 0.6355 -0.4382 -0.6357
vn 0.4950 0.7147 -0.4941
vn 0.4949 0.7137 0.4958
vn -0.6353 -0.4382 -0.6359
vn -0.4949 0.7147 -0.4943
vn -0.6355 -0.4395 0.6348
vn -0.4950 0.7137 0.4956
vn 0.9649 0.2621 -0.0160
s 1
f 8/1/1 9/2/2 3/3/3
f 4/4/4 7/5/5 3/3/3
f 3/3/3 7/5/5 8/1/1
f 3/3/3 9/2/2 4/4/4
f 5/6/6 6/7/7 9/2/8
f 9/2/8 6/7/7 8/1/9
f 1/8/10 5/6/6 4/4/11
f 4/4/11 5/6/6 9/2/8
f 1/9/10 4/10/11 2/11/12
f 2/12/12 4/13/11 7/14/13
f 2/15/12 7/16/13 6/17/7
f 6/18/7 7/19/13 8/20/9
f 7/21/3 8/22/3 4/23/3
f 4/23/3 8/22/3 9/24/3
f 12/25/14 13/26/15 15/27/3
f 16/28/16 10/29/17 15/27/3
f 13/30/15 14/31/18 15/32/3
f 11/33/19 12/34/14 15/35/3
f 10/36/17 11/37/19 15/32/3
f 14/38/18 16/39/16 15/35/3
f 12/25/14 17/40/20 13/26/15
f 16/28/16 17/40/20 10/29/17
f 13/30/15 17/41/20 14/31/18
f 11/33/19 17/42/20 12/34/14
f 10/36/17 17/41/20 11/37/19
f 14/38/18 17/42/20 16/39/16
f 18/43/21 20/44/22 21/45/23 19/46/24
f 20/47/22 24/48/25 25/49/26 21/50/23
f 24/51/25 22/52/27 23/53/28 25/54/26
f 22/55/27 18/56/21 19/57/24 23/58/28
f 20/59/22 18/60/21 22/61/27 24/62/25
f 25/63/26 23/64/28 19/65/24 21/66/23
f 26/67/29 27/68/29 31/69/29 28/70/29
f 28/70/29 31/69/29 30/71/29 29/72/29
