# Blender v2.78 (sub 0) OBJ File: 'MikuApronSplit2.blend'
# www.blender.org
o Mesh_012_Mesh_0.018
v -0.081266 0.071154 0.087087
v -0.081240 0.053568 -0.058273
v -0.097453 -0.267038 -0.235105
v 0.198311 -0.267257 -0.019713
v 0.104373 -0.267434 0.153514
v 0.161103 -0.267082 -0.191343
v -0.001439 0.056268 -0.072698
v 0.024462 0.074446 0.048350
v -0.029357 -0.265765 0.221589
v -0.095744 -0.259885 -0.206382
v 0.165610 -0.260078 -0.016048
v 0.082600 -0.260235 0.137024
v 0.132731 -0.259924 -0.167711
v -0.035571 -0.258759 0.197180
v 0.165610 -0.327897 -0.016051
v 0.082601 -0.328054 0.137021
v -0.095744 -0.327704 -0.206385
v -0.122161 -0.326591 0.208437
v 0.132731 -0.327743 -0.167714
v -0.035571 -0.326579 0.197177
v 0.051926 -0.075770 0.073094
v 0.078180 -0.064426 -0.014649
v 0.041848 -0.359126 -0.003432
v -0.007295 -0.355635 -0.055238
v -0.010491 -0.092062 -0.076305
v -0.074861 -0.107529 -0.029182
v -0.037271 -0.362734 0.053861
v -0.051107 -0.102042 0.074735
v 0.014939 -0.365754 0.055554
v -0.060538 -0.355675 -0.016301
vt 0.6798 0.5235
vt 0.6798 0.5235
vt 0.6874 0.5312
vt 0.6874 0.5235
vt 0.6836 0.5312
vt 0.5977 0.2970
vt 0.5938 0.3008
vt 0.6015 0.3046
vt 0.6874 0.5312
vt 0.5938 0.2970
vt 0.5977 0.3046
vt 0.6015 0.3046
vt 0.6015 0.2970
vt 0.9805 0.3047
vt 0.9999 0.1563
vt 0.9376 0.1680
vt 0.9531 0.3124
vt 0.5977 0.2970
vt 0.6015 0.3046
vt 0.5938 0.3008
vt 0.5938 0.2970
vt 0.6015 0.3046
vt 0.5977 0.3046
vt 0.6015 0.2970
vt 0.5977 0.2970
vt 0.5938 0.3008
vt 0.6015 0.3046
vt 0.6015 0.3046
vt 0.6015 0.3046
vt 0.5938 0.2970
vt 0.5938 0.2970
vt 0.5977 0.3046
vt 0.6015 0.2970
vt 0.7496 0.3676
vt 0.7496 0.4371
vt 0.6254 0.4371
vt 0.6254 0.3676
vt 0.7496 0.3676
vt 0.7496 0.4371
vt 0.6254 0.4371
vt 0.6254 0.3676
vt 0.7496 0.3676
vt 0.7496 0.4371
vt 0.6254 0.4371
vt 0.6254 0.3676
vt 0.7496 0.3676
vt 0.7496 0.4371
vt 0.6254 0.4371
vt 0.6254 0.3676
vt 0.1715 0.3199
vt 0.1715 0.2504
vt 0.0004 0.2504
vt 0.0004 0.3199
vt 0.3789 0.1327
vt 0.3827 0.1251
vt 0.3751 0.1327
vt 0.4570 0.1407
vt 0.4570 0.1483
vt 0.4492 0.1483
vt 0.3789 0.1251
vt 0.3827 0.1251
vt 0.3827 0.1327
vt 0.3751 0.1327
vt 0.3789 0.1251
vt 0.3751 0.1251
vt 0.3789 0.1327
vt 0.3827 0.1327
vt 0.4608 0.1483
vt 0.4532 0.1407
vt 0.4532 0.1483
vt 0.3789 0.1251
vt 0.3751 0.1327
vt 0.4570 0.1407
vt 0.4608 0.1407
vt 0.4608 0.1483
vt 0.4608 0.1407
vt 0.4570 0.1407
vt 0.4532 0.1483
vt 0.4608 0.1483
vt 0.4570 0.1483
vt 0.4532 0.1407
vn 0.6529 -0.3909 -0.6488
vn 0.1033 -0.4420 -0.8910
vn 0.4523 0.5684 -0.6873
vn 0.8871 -0.4549 0.0784
vn 0.5758 -0.5083 0.6404
vn -0.1716 0.4824 -0.8590
vn 0.3611 -0.4274 0.8288
vn 0.7513 0.4915 0.4404
vn 0.5531 0.5995 -0.5786
vn 0.5381 0.6411 0.5473
vn 0.7635 0.6365 0.1094
vn 0.3585 0.6235 0.6948
vn 0.1306 0.6234 -0.7709
vn 0.5520 -0.6007 -0.5783
vn 0.7635 -0.6366 0.1084
vn 0.5272 -0.6508 0.5463
vn 0.2203 -0.8708 0.4396
vn 0.0005 -1.0000 0.0027
vn 0.1218 -0.6834 -0.7198
vn 0.3759 0.3726 0.8484
vn 0.9562 -0.1075 0.2722
vn -0.5778 -0.0720 -0.8130
vn 0.0102 -0.0700 0.9975
vn -0.9639 -0.0574 0.2599
vn 0.5820 -0.0578 -0.8111
vn 0.9067 -0.1397 0.3979
vn 0.7169 -0.1146 -0.6877
vn -0.5886 -0.0758 -0.8049
vn -0.0316 -0.9938 -0.1062
vn -0.0286 -0.9988 -0.0402
s 1
f 6/1/1 3/2/2 7/3/3
f 4/4/4 6/1/1 7/5/3
f 6/6/1 4/7/4 5/8/5
f 3/2/2 2/9/6 7/3/3
f 6/10/1 5/11/5 9/12/7
f 9/12/7 3/13/2 6/10/1
f 8/14/8 5/15/5 4/16/4
f 8/14/8 4/16/4 7/17/3
f 13/18/9 12/19/10 11/20/11
f 13/21/9 14/22/12 12/23/10
f 14/22/12 13/21/9 10/24/13
f 19/25/14 15/26/15 16/27/16
f 20/28/17 18/29/18 17/30/19
f 19/31/14 16/32/16 20/28/17
f 20/28/17 17/33/19 19/31/14
f 11/34/11 15/35/15 19/36/14 13/37/9
f 14/38/12 20/39/17 16/40/16 12/41/10
f 12/42/10 16/43/16 15/44/15 11/45/11
f 13/46/9 19/47/14 17/48/19 10/49/13
f 9/50/7 5/51/5 8/52/8 1/53/20
f 21/54/21 23/55/21 22/56/21
f 24/57/22 26/58/22 25/59/22
f 27/60/23 29/61/23 21/62/23 28/63/23
f 30/64/24 27/65/24 28/66/24 26/67/24
f 22/68/25 24/69/25 25/70/25
f 29/61/26 23/71/26 21/72/26
f 23/73/27 24/69/27 22/68/27
f 30/74/28 26/75/28 24/69/28
f 29/76/29 27/77/29 30/78/29 23/79/29
f 24/80/30 23/79/30 30/81/30
