# Blender 4.1.1
# www.blender.org
mtllib miku.mtl
o 01_HEAD_HAIR
v 0.000000 0.004875 -0.025325
v 0.000000 -0.023992 0.099085
v 0.011219 0.190246 0.126499
v 0.000000 0.267372 0.074026
v 0.079510 0.269148 -0.039717
v 0.000000 0.229239 -0.123117
v 0.000000 0.156565 -0.152198
v 0.000000 0.066003 -0.114308
v -0.042993 0.231703 -0.131809
v -0.138597 0.182075 -0.027743
v -0.102081 0.144630 -0.119834
v -0.079510 0.269148 -0.039717
v -0.063728 -0.001677 0.080054
v -0.069400 0.033082 -0.081999
v -0.120163 0.128670 -0.051034
v -0.094361 0.039259 -0.053008
v -0.102013 0.039259 0.038483
v -0.105101 0.057420 0.064305
v -0.105460 0.044096 0.073482
v 0.042993 0.231703 -0.131809
v 0.138597 0.182075 -0.027743
v 0.102081 0.144630 -0.119834
v 0.063728 -0.001677 0.080054
v 0.069400 0.033082 -0.081999
v 0.120163 0.128670 -0.051034
v 0.094361 0.039259 -0.053008
v 0.102013 0.039259 0.038483
v 0.105101 0.057420 0.064305
v 0.075874 0.146425 0.106575
v 0.105460 0.044096 0.073482
v -0.050134 0.186678 0.137617
v -0.088772 0.102346 0.123744
v -0.076599 -0.007868 0.119680
v 0.020894 0.095637 0.156114
v 0.002185 0.184235 0.145671
v 0.105894 0.024950 0.140259
v -0.117114 0.128670 0.040457
v -0.124333 0.220223 0.052279
v 0.130210 0.136987 0.082725
v 0.110294 0.259784 0.073392
v 0.068114 0.230585 0.136956
v -0.110811 0.033666 0.081418
v -0.127564 0.104300 0.110164
v -0.101023 0.214276 0.112904
v -0.101115 0.277458 0.079144
v -0.061119 0.266495 0.087371
v 0.004738 0.283355 0.088694
v -0.083775 0.092211 0.090485
v -0.048941 0.183664 0.109518
v -0.107557 0.230221 0.046554
v 0.107557 0.230221 0.046554
v 0.092230 -0.018384 0.098946
v 0.117114 0.128670 0.040457
v -0.152754 0.124581 -0.046936
v -0.137653 0.035170 -0.048911
v -0.140921 0.124581 0.043570
v -0.125820 0.035170 0.041596
v -0.128866 0.062912 0.066435
v -0.270318 0.071588 -0.125575
v -0.383622 -0.462289 -0.361310
v -0.270318 0.109132 -0.279233
v -0.125366 -0.451818 -0.220697
v -0.167590 0.068551 -0.144241
v -0.136431 -0.458931 -0.377437
v -0.146803 0.109132 -0.277793
v -0.169984 -0.169772 -0.422565
v -0.349981 -0.168851 -0.267126
v -0.102824 -0.182152 -0.306790
v -0.211115 0.234040 -0.160705
v -0.272207 -0.461036 -0.450845
v -0.252230 -0.433979 -0.173826
v -0.301306 -0.161794 -0.383721
v -0.075446 0.249871 -0.152799
v -0.172972 0.201403 -0.050063
v -0.136063 0.163737 -0.141880
v -0.112356 0.287536 -0.060982
v -0.106685 0.221985 -0.131574
v -0.260045 -0.654273 -0.310541
v -0.228966 -0.620296 -0.246878
v 0.152754 0.124581 -0.046936
v 0.137653 0.035170 -0.048911
v 0.140921 0.124581 0.043570
v 0.125820 0.035170 0.041596
v 0.128866 0.062912 0.066435
v 0.270318 0.071588 -0.125575
v 0.383622 -0.462289 -0.361310
v 0.270318 0.109132 -0.279233
v 0.125366 -0.451818 -0.220697
v 0.167590 0.068551 -0.144241
v 0.136431 -0.458931 -0.377437
v 0.146803 0.109132 -0.277793
v 0.169984 -0.169772 -0.422565
v 0.349981 -0.168851 -0.267126
v 0.102824 -0.182152 -0.306790
v 0.211115 0.234040 -0.160705
v 0.272207 -0.461036 -0.450845
v 0.252230 -0.433979 -0.173826
v 0.301306 -0.161794 -0.383721
v 0.075446 0.249871 -0.152799
v 0.172972 0.201403 -0.050063
v 0.136063 0.163737 -0.141880
v 0.112356 0.287536 -0.060982
v 0.106685 0.221985 -0.131574
v 0.260045 -0.654273 -0.310541
v 0.228966 -0.620296 -0.246878
v -0.142209 0.040352 0.118252
v -0.158794 0.149383 0.105159
v -0.135722 0.228541 0.101064
v -0.115370 0.159906 0.063563
v 0.115370 0.159906 0.063563
v 0.000000 0.157500 0.130545
v 0.000000 0.047794 0.141450
v -0.011404 0.038999 0.134149
v 0.011404 0.038999 0.134149
v 0.000000 0.059175 0.121125
vn 0.1208 0.9354 -0.3324
vn -0.3097 0.0799 -0.9475
vn -0.2639 -0.9396 -0.2180
vn -0.2402 -0.3742 -0.8957
vn -0.2271 -0.9538 -0.1966
vn -0.0000 0.9999 0.0156
vn -0.8284 0.5599 -0.0167
vn -0.3761 0.8843 0.2767
vn 0.2046 0.3637 -0.9088
vn -0.9179 -0.2582 -0.3012
vn -0.9405 -0.3383 0.0313
vn -0.9363 -0.1960 -0.2915
vn -0.4240 -0.8885 -0.1757
vn -0.9354 0.0672 0.3473
vn -0.7403 -0.6720 0.0200
vn -0.9950 -0.0371 -0.0929
vn -0.9056 0.2094 0.3688
vn 0.1264 -0.8176 -0.5617
vn -0.7348 -0.4009 -0.5472
vn -0.2392 -0.3748 -0.8957
vn -0.6988 -0.7129 -0.0584
vn -0.1208 0.9354 -0.3324
vn 0.3097 0.0799 -0.9475
vn 0.2639 -0.9396 -0.2180
vn 0.2402 -0.3742 -0.8957
vn 0.2271 -0.9538 -0.1966
vn -0.0000 0.9020 -0.4317
vn 0.8284 0.5599 -0.0167
vn 0.3761 0.8843 0.2767
vn -0.2046 0.3637 -0.9088
vn 0.9179 -0.2582 -0.3012
vn 0.9405 -0.3383 0.0313
vn 0.9363 -0.1960 -0.2915
vn 0.4240 -0.8885 -0.1757
vn 0.9354 0.0672 0.3473
vn 0.7403 -0.6720 0.0200
vn 0.9950 -0.0371 -0.0929
vn -0.1264 -0.8176 -0.5617
vn 0.7348 -0.4009 -0.5472
vn 0.2392 -0.3748 -0.8957
vn 0.6988 -0.7129 -0.0584
vn 0.1064 0.0355 0.9937
vn 0.7698 0.1514 0.6201
vn -0.2328 0.4892 0.8405
vn -0.1477 0.0850 0.9854
vn -0.3328 -0.0714 0.9403
vn -0.3788 0.0480 0.9242
vn -0.9843 -0.0560 -0.1672
vn -0.8547 -0.3563 0.3775
vn -0.9689 -0.1494 -0.1975
vn 0.2572 0.8020 0.5391
vn 0.8957 -0.4076 0.1777
vn 0.9877 0.1048 0.1164
vn -0.5385 0.5270 -0.6575
vn 0.6320 -0.1749 -0.7550
vn 0.7224 -0.2328 -0.6511
vn 0.8488 0.2351 0.4736
vn -0.5723 -0.3474 -0.7428
vn -0.4269 -0.3381 -0.8387
vn -0.7912 -0.6108 0.0319
vn 0.3055 0.5122 -0.8027
vn -0.1633 0.6929 -0.7023
vn -0.1356 0.8121 -0.5675
vn 0.0417 0.6688 -0.7423
vn 0.0418 0.6695 -0.7417
vn 0.9590 0.1367 -0.2483
vn 0.7824 0.1724 0.5984
vn -0.3695 0.0903 -0.9249
vn -0.1008 0.4981 0.8612
vn 0.4015 -0.0025 0.9158
vn 0.9369 -0.2541 -0.2403
vn 0.9435 0.1076 -0.3135
vn -0.8542 -0.0609 -0.5164
vn -0.5886 -0.6497 -0.4810
vn -0.9674 -0.2195 0.1265
vn -0.9812 -0.1442 0.1283
vn -0.1421 0.9898 0.0116
vn 0.1128 0.3476 0.9308
vn 0.1207 -0.9927 -0.0028
vn -0.1071 -0.0025 -0.9942
vn -0.0887 -0.6698 0.7372
vn -0.9583 0.2776 0.0678
vn 0.0104 0.4600 -0.8879
vn 0.9733 0.1280 0.1904
vn 0.1756 -0.0873 0.9806
vn 0.9281 -0.3710 0.0317
vn 0.8658 0.0225 -0.4999
vn 0.8538 -0.5193 -0.0367
vn -0.7489 -0.3301 0.5747
vn 0.3471 -0.7021 -0.6218
vn 0.9425 0.0275 0.3331
vn 0.2608 0.7283 -0.6337
vn -0.7194 0.5586 0.4128
vn -0.9047 0.2207 -0.3643
vn -0.8086 -0.0937 0.5808
vn 0.2889 -0.3180 0.9030
vn -0.5318 -0.5192 -0.6690
vn -0.6232 0.1130 -0.7739
vn 0.9924 -0.1038 -0.0654
vn -0.9425 0.0275 0.3331
vn -0.2422 0.3731 -0.8956
vn 0.0085 0.6862 -0.7274
vn -0.9297 0.3577 0.0874
vn 0.1306 -0.5698 0.8113
vn 0.2628 0.7175 -0.6451
vn 0.7682 -0.3492 0.5365
vn 0.4750 -0.0816 -0.8762
vn 0.8594 0.1775 -0.4795
vn -0.9004 0.2423 -0.3612
vn -0.2683 0.1859 -0.9452
vn -0.9791 -0.1679 0.1150
vn -0.3566 0.3604 0.8619
vn -0.5451 -0.8296 0.1212
vn 0.5438 0.8303 -0.1220
vn 0.3564 -0.3602 -0.8621
vn -0.7420 0.4605 -0.4872
vn -0.7993 -0.0854 0.5948
vn 0.7194 0.5586 0.4128
vn -0.9839 -0.1567 0.0863
vn 0.9973 0.0099 -0.0729
vn 0.2110 -0.7875 0.5791
vn 0.9674 -0.2195 0.1265
vn 0.9812 -0.1442 0.1283
vn 0.1421 0.9898 0.0116
vn -0.1128 0.3476 0.9308
vn -0.1207 -0.9927 -0.0028
vn 0.1071 -0.0025 -0.9942
vn 0.0887 -0.6698 0.7372
vn 0.9583 0.2776 0.0678
vn -0.0104 0.4600 -0.8879
vn -0.9733 0.1280 0.1904
vn -0.1756 -0.0873 0.9806
vn -0.9281 -0.3710 0.0317
vn -0.8658 0.0225 -0.4999
vn -0.8538 -0.5193 -0.0367
vn 0.7489 -0.3301 0.5747
vn -0.3471 -0.7021 -0.6218
vn -0.3307 -0.1109 0.9372
vn -0.2608 0.7283 -0.6337
vn 0.8295 0.3890 0.4007
vn 0.9047 0.2207 -0.3643
vn 0.8086 -0.0937 0.5808
vn -0.2889 -0.3180 0.9030
vn 0.5318 -0.5192 -0.6690
vn 0.6232 0.1130 -0.7739
vn -0.9924 -0.1038 -0.0654
vn 0.2422 0.3731 -0.8956
vn -0.0085 0.6862 -0.7274
vn 0.9297 0.3577 0.0874
vn -0.1306 -0.5698 0.8113
vn -0.2628 0.7175 -0.6451
vn -0.7682 -0.3492 0.5365
vn -0.4750 -0.0816 -0.8762
vn -0.8594 0.1775 -0.4795
vn 0.9004 0.2423 -0.3612
vn 0.2683 0.1859 -0.9452
vn 0.9791 -0.1679 0.1150
vn 0.3566 0.3604 0.8619
vn 0.5451 -0.8296 0.1212
vn -0.5438 0.8303 -0.1220
vn -0.3564 -0.3602 -0.8621
vn 0.7420 0.4605 -0.4872
vn 0.7993 -0.0854 0.5948
vn 0.9839 -0.1567 0.0863
vn -0.9973 0.0099 -0.0729
vn -0.2110 -0.7875 0.5791
vn 0.3307 -0.1109 0.9372
vn 0.9019 -0.2249 -0.3688
vn -0.2231 0.0827 0.9713
vn -0.6877 -0.1888 -0.7010
vn -0.1067 0.4685 0.8770
vn -0.8386 0.4697 -0.2759
vn -0.9303 0.2576 -0.2611
vn -0.2725 0.1287 0.9535
vn -0.8295 0.3890 0.4007
vn -0.1293 0.5052 0.8533
vn -0.9743 -0.0962 0.2035
vn 0.9743 -0.0962 0.2035
vn -0.4905 -0.2457 0.8361
vn 0.5020 -0.0655 0.8624
vn -0.7020 0.6214 0.3479
vn 0.7020 0.6214 0.3479
vn -0.0000 -0.6387 0.7694
vt 0.226563 0.128906
vt 0.238281 0.101562
vt 0.277344 0.085937
vt 0.203125 0.128906
vt 0.214844 0.062500
vt 0.015625 0.078125
vt 0.105469 0.128906
vt 0.015625 0.128906
vt 0.148438 0.078125
vt 0.343750 0.128906
vt 0.277344 0.171875
vt 0.265625 0.039062
vt 0.320313 0.050781
vt 0.144531 0.031250
vt 0.246094 0.019531
vt 0.304688 0.000000
vt 0.015625 0.031250
vt 0.035156 0.031250
vt 0.015625 0.007812
vt 0.054688 0.945312
vt 0.027344 0.964844
vt 0.027344 0.875000
vt 0.160156 0.128906
vt 0.132812 0.906250
vt 0.191406 0.832031
vt 0.160156 0.937500
vt 0.203125 0.890625
vt 0.125000 0.976562
vt 0.117188 0.839844
vt 0.085938 0.910156
vt 0.050781 0.800781
vt 0.050781 0.863281
vt 0.000000 0.937500
vt 0.000000 0.843750
vt 0.183594 0.968750
vt 0.784050 0.265719
vt 0.784050 0.267214
vt 0.781360 0.263627
vt 0.782855 0.263328
vt 0.781360 0.258845
vt 0.058594 0.976562
vt 0.023438 0.984375
vt 0.787005 0.260369
vt 0.784119 0.263736
vt 0.784119 0.257002
vt 0.787005 0.267584
vt 0.786441 0.261834
vt 0.788234 0.266317
vt 0.787636 0.266915
vt 0.789430 0.260041
vt 0.781958 0.260041
vt 0.785245 0.258248
vt 0.786142 0.256753
vt 0.089844 0.960937
vt 0.066406 1.000000
vt 0.058594 0.980469
vt 0.125000 0.984375
vt 0.199219 0.976562
vt 0.125000 0.781250
vt 0.156250 0.781250
vt 0.101562 0.851562
vt 0.101562 0.781250
vt 0.226562 0.914062
vt 0.782257 0.257351
vt 0.785245 0.257351
vt 0.785245 0.262731
vt 0.781958 0.258248
vt 0.070312 0.472656
vt 0.050781 0.441899
vt 0.152344 0.472656
vt 0.152344 0.394531
vt 0.070313 0.394531
vt 0.804688 0.312500
vt 0.730469 0.312500
vt 0.730469 0.281250
vt 0.804688 0.281250
vt 0.847656 0.312500
vt 0.847656 0.281250
vt 0.648438 0.312500
vt 0.574219 0.312500
vt 0.574219 0.281250
vt 0.648438 0.281250
vt 0.890625 0.281250
vt 0.449219 0.863281
vt 0.378906 0.863281
vt 0.468750 0.691406
vt 0.304688 0.863281
vt 0.335938 0.691406
vt 0.203125 0.863281
vt 0.277344 0.683594
vt 0.539062 0.863281
vt 0.585938 0.546875
vt 0.289062 0.941406
vt 0.289062 0.523437
vt 0.230469 0.523437
vt 0.230469 0.398438
vt 0.585938 0.546875
vt 0.476562 0.546875
vt 0.542969 0.394531
vt 0.378906 0.523437
vt 0.343750 0.398438
vt 0.359375 0.941406
vt 0.370020 0.995273
vt 0.412808 0.949038
vt 0.402344 0.695312
vt 0.468750 0.691406
vt 0.156250 0.523438
vt 0.476562 0.941406
vt 0.718750 0.722656
vt 0.785156 0.722656
vt 0.785156 0.750000
vt 0.718750 0.750000
vt 0.656250 0.750000
vt 0.656250 0.722656
vt 0.851562 0.722656
vt 0.851562 0.750000
vt 0.917969 0.722656
vt 0.917969 0.750000
vt 0.570313 0.257812
vt 0.554688 0.285156
vt 0.503906 0.257812
vt 0.570313 0.324219
vt 0.370020 0.995273
vt 0.412808 0.949038
vt 0.734375 0.640625
vt 0.734375 0.718750
vt 0.656250 0.640625
vt 0.656250 0.718750
vt 0.890625 0.312500
vt 0.781958 0.261834
vt 0.789430 0.260041
vt 0.101562 0.757812
vt 0.155605 0.787875
vt 0.058594 0.781250
vt 0.058594 0.734375
vt 0.153382 0.752782
vt 0.027344 0.757812
vt 0.058594 0.757812
vt 0.042969 0.121094
vt 0.085938 0.121094
vt 0.062500 0.101562
vt 0.058594 0.011719
vt 0.082031 0.054688
vt 0.058594 0.121094
vt 0.058594 0.109375
vt 0.031250 0.121094
vt 0.031250 0.011719
vt 0.125138 0.871822
vt 0.125138 0.887802
vt 0.113084 0.866475
vt 0.137191 0.866475
vt 0.248696 0.801572
vt 0.236642 0.829220
vt 0.224588 0.801572
s 0
usemtl m0
f 6/1/1 9/2/1 12/3/1
f 7/4/2 11/5/2 9/2/2
f 13/6/3 1/7/3 2/8/3
f 14/9/4 11/5/4 7/4/4
f 1/7/5 13/6/5 14/9/5
f 4/10/6 5/11/6 12/3/6
f 10/12/7 50/13/7 12/3/7
f 50/13/8 4/10/8 12/3/8
f 6/1/9 7/4/9 9/2/9
f 16/14/10 15/15/10 11/5/10
f 10/12/11 15/15/11 37/16/11
f 11/5/12 15/15/12 10/12/12
f 13/6/13 16/14/13 14/9/13
f 50/13/14 10/12/14 37/16/14
f 13/6/15 19/17/15 17/18/15
f 18/19/16 17/18/16 19/17/16
f 44/20/17 38/21/17 43/22/17
f 8/23/18 1/7/18 14/9/18
f 14/9/19 16/14/19 11/5/19
f 8/23/20 14/9/20 7/4/20
f 17/18/21 16/14/21 13/6/21
f 5/3/22 20/2/22 6/1/22
f 7/4/23 20/2/23 22/5/23
f 23/6/24 2/8/24 1/7/24
f 24/9/25 7/4/25 22/5/25
f 1/7/26 24/9/26 23/6/26
f 5/11/27 6/1/27 12/3/27
f 21/12/28 5/3/28 51/13/28
f 51/13/29 5/3/29 4/10/29
f 6/1/30 20/2/30 7/4/30
f 26/14/31 22/5/31 25/15/31
f 21/12/32 53/16/32 25/15/32
f 22/5/33 21/12/33 25/15/33
f 23/6/34 24/9/34 26/14/34
f 51/13/35 53/16/35 21/12/35
f 23/6/36 27/18/36 30/17/36
f 28/19/37 30/17/37 27/18/37
f 8/23/38 24/9/38 1/7/38
f 24/9/39 22/5/39 26/14/39
f 8/23/40 7/4/40 24/9/40
f 27/18/41 23/6/41 26/14/41
f 35/24/42 36/25/42 41/26/42
f 36/25/43 39/27/43 41/26/43
f 41/26/44 47/28/44 35/24/44
f 34/29/45 35/24/45 31/30/45
f 33/31/46 32/32/46 43/22/46
f 44/20/47 43/22/47 32/32/47 31/30/47
f 38/21/48 37/33/48 43/22/48
f 42/34/49 33/31/49 43/22/49
f 37/33/50 42/34/50 43/22/50
f 41/26/51 40/35/51 47/28/51
f 49/36/52 31/37/52 32/38/52 48/39/52
f 33/40/53 48/39/53 32/38/53
f 45/41/54 50/42/54 38/21/54
f 42/43/55 48/44/55 33/45/55
f 37/46/56 48/44/56 42/43/56
f 34/47/57 3/48/57 35/49/57
f 36/50/58 35/51/58 29/52/58
f 39/53/59 36/50/59 29/52/59
f 31/37/60 49/36/60 34/47/60
f 46/54/61 50/55/61 45/56/61
f 46/54/62 47/28/62 4/57/62
f 50/55/63 46/54/63 4/57/63
f 47/28/64 40/35/64 4/57/64
f 51/58/65 4/57/65 40/35/65
f 39/27/66 51/58/66 40/35/66
f 39/27/67 40/35/67 41/26/67
f 38/21/68 50/42/68 37/33/68
f 44/20/69 31/30/69 46/54/69 45/41/69
f 39/59/70 29/60/70 52/61/70
f 39/59/71 52/61/71 53/62/71
f 51/58/72 39/27/72 53/63/72
f 29/64/73 53/65/73 52/66/73
f 29/52/74 35/51/74 3/67/74
f 57/68/75 58/69/75 55/70/75
f 54/71/76 58/69/76 56/72/76
f 37/73/77 15/74/77 54/75/77 56/76/77
f 18/77/78 37/73/78 56/76/78 58/78/78
f 16/79/79 17/80/79 57/81/79 55/82/79
f 15/74/80 16/79/80 55/82/80 54/75/80
f 18/77/81 58/78/81 57/83/81
f 59/84/82 61/85/82 67/86/82
f 61/85/83 65/87/83 66/88/83
f 65/87/84 63/89/84 68/90/84
f 63/91/85 59/84/85 71/92/85
f 63/89/86 65/87/86 77/93/86
f 64/94/87 66/88/87 68/90/87
f 64/94/88 62/95/88 79/96/88
f 71/97/89 60/98/89 78/99/89
f 70/100/90 64/94/90 79/101/90
f 68/90/91 63/89/91 62/95/91
f 65/87/92 69/102/92 77/93/92
f 76/103/93 69/102/93 74/104/93
f 60/98/94 67/86/94 72/105/94
f 60/98/95 71/97/95 67/106/95
f 62/95/96 71/107/96 79/96/96
f 60/98/97 70/100/97 78/99/97
f 60/98/98 72/105/98 70/100/98
f 62/95/99 64/94/99 68/90/99
f 89/89/100 94/90/100 88/95/100
f 61/85/101 66/88/101 72/105/101
f 65/87/102 61/85/102 69/102/102
f 61/85/103 59/84/103 69/102/103
f 59/84/104 63/91/104 74/104/104
f 77/93/105 69/102/105 76/103/105
f 74/104/106 63/91/106 77/108/106
f 64/94/107 70/100/107 66/88/107
f 66/88/108 65/87/108 68/90/108
f 67/86/109 61/85/109 72/105/109
f 72/105/110 66/88/110 70/100/110
f 55/70/111 58/69/111 54/71/111
f 10/109/112 12/110/112 76/111/112 74/112/112
f 10/109/113 74/112/113 75/113/113 11/114/113
f 12/110/114 9/115/114 73/116/114 76/111/114
f 11/117/115 75/118/115 73/116/115 9/115/115
f 73/119/116 77/120/116 76/121/116
f 75/122/116 77/120/116 73/119/116
f 71/92/117 59/84/117 67/106/117
f 95/102/118 102/123/118 100/124/118
f 79/125/119 71/126/119 70/127/119
f 71/126/120 78/128/120 70/127/120
f 17/129/121 18/77/121 57/83/121
f 83/68/122 81/70/122 84/69/122
f 80/71/123 82/72/123 84/69/123
f 53/73/124 82/76/124 80/75/124 25/74/124
f 28/77/125 84/78/125 82/76/125 53/73/125
f 26/79/126 81/82/126 83/81/126 27/80/126
f 25/74/127 80/75/127 81/82/127 26/79/127
f 28/77/128 83/83/128 84/78/128
f 85/84/129 93/86/129 87/85/129
f 87/85/130 92/88/130 91/87/130
f 91/87/131 94/90/131 89/89/131
f 89/91/132 97/97/132 85/84/132
f 89/89/133 103/93/133 91/87/133
f 90/94/134 94/90/134 92/88/134
f 90/94/135 105/96/135 88/95/135
f 97/97/136 104/99/136 86/98/136
f 96/100/137 105/101/137 90/94/137
f 97/107/138 89/89/138 88/95/138
f 91/87/139 103/93/139 95/102/139
f 85/84/140 95/102/140 100/124/140
f 86/98/141 98/105/141 93/86/141
f 86/98/142 93/86/142 97/97/142
f 88/95/143 105/96/143 97/107/143
f 86/98/144 104/99/144 96/100/144
f 86/98/145 96/100/145 98/105/145
f 88/95/146 94/90/146 90/94/146
f 87/85/147 98/105/147 92/88/147
f 91/87/148 95/102/148 87/85/148
f 87/85/149 95/102/149 85/84/149
f 85/84/150 100/124/150 89/91/150
f 103/93/151 102/123/151 95/102/151
f 100/124/152 103/108/152 89/91/152
f 90/94/153 92/88/153 96/100/153
f 92/88/154 94/90/154 91/87/154
f 93/86/155 98/105/155 87/85/155
f 98/105/156 96/100/156 92/88/156
f 81/70/157 80/71/157 84/69/157
f 21/109/158 100/112/158 102/111/158 5/110/158
f 21/109/159 22/114/159 101/113/159 100/112/159
f 5/110/160 102/111/160 99/116/160 20/115/160
f 22/117/161 20/115/161 99/116/161 101/118/161
f 99/119/162 102/121/162 103/120/162
f 101/122/162 99/119/162 103/120/162
f 97/97/163 93/86/163 85/84/163
f 105/125/164 96/127/164 97/126/164
f 97/126/165 96/127/165 104/128/165
f 27/129/166 83/83/166 28/77/166
f 63/89/167 71/107/167 62/95/167
f 38/130/168 44/51/168 106/131/168
f 107/132/169 106/133/169 44/134/169
f 38/135/170 106/136/170 107/132/170
f 45/137/171 108/138/171 44/134/171
f 45/137/172 38/135/172 108/138/172
f 108/138/173 38/135/173 107/132/173
f 108/138/174 107/132/174 44/134/174
f 69/102/175 59/84/175 74/104/175
f 31/30/176 35/24/176 47/28/176 46/54/176
f 37/139/177 18/140/177 109/141/177
f 53/139/178 110/141/178 28/140/178
f 111/142/179 49/143/179 109/144/179
f 3/145/180 111/146/180 110/147/180
usemtl m2
f 112/148/181 115/149/181 113/150/181
f 112/148/182 114/151/182 115/149/182
f 114/152/183 112/153/183 113/154/183
