# Blender v3.6.5 OBJ File: 'Megaman_Hatsune_Master05.blend'
# www.blender.org
mtllib 10_HELMET.001.mtl
o 10_HELMET.003_01_HEAD_HAIR.004
v 0.000000 0.229239 -0.123117
v -0.042993 0.231703 -0.131809
v -0.079510 0.264505 -0.039717
v 0.000000 0.156565 -0.166126
v -0.085794 0.144630 -0.133762
v -0.063728 -0.001677 0.080054
v 0.000000 0.004875 -0.025325
v 0.000000 -0.023992 0.099085
v -0.069400 0.033082 -0.081999
v 0.000000 0.267372 0.053599
v 0.079510 0.264505 -0.039717
v -0.138597 0.182075 -0.027743
v -0.107557 0.242472 0.046554
v -0.094361 0.039259 -0.053008
v -0.144459 0.128670 -0.051034
v -0.150479 0.128670 0.040457
v -0.093832 0.044096 0.073482
v -0.102013 0.039259 0.038483
v 0.000000 0.038921 -0.114308
v 0.042993 0.231703 -0.131809
v 0.085794 0.144630 -0.133762
v 0.063728 -0.001677 0.080054
v 0.069400 0.039036 -0.081999
v 0.138597 0.182075 -0.027743
v 0.107557 0.242472 0.046554
v 0.094361 0.039036 -0.053008
v 0.144459 0.128670 -0.051034
v 0.150479 0.128670 0.040457
v 0.102013 0.039036 0.038483
v 0.093832 0.039036 0.073482
v 0.088204 0.206932 0.115297
v -0.096042 0.130459 0.136232
v -0.088204 0.206932 0.115297
v 0.096042 0.130459 0.136232
v -0.000000 0.221973 0.141250
v -0.270318 0.071588 -0.125575
v -0.270318 0.109132 -0.279233
v -0.356591 -0.213890 -0.267126
v -0.146803 0.109132 -0.277793
v -0.166592 -0.213009 -0.422565
v -0.167590 0.068551 -0.144241
v -0.095700 -0.228558 -0.306790
v -0.252230 -0.541938 -0.173826
v -0.106685 0.221985 -0.131574
v -0.115704 -0.543132 -0.391434
v -0.125366 -0.562113 -0.220697
v -0.260045 -0.813289 -0.310541
v -0.383622 -0.550705 -0.361310
v -0.272207 -0.543132 -0.450845
v -0.211115 0.234040 -0.160705
v -0.112356 0.287536 -0.060982
v -0.172972 0.201403 -0.050063
v -0.305211 -0.205151 -0.383721
v 0.167590 0.068551 -0.144241
v 0.095700 -0.228558 -0.306790
v 0.125366 -0.562113 -0.220697
v -0.136063 0.163737 -0.141880
v -0.075446 0.249871 -0.152799
v 0.211115 0.234040 -0.160705
v 0.112356 0.287536 -0.060982
v 0.172972 0.201403 -0.050063
v 0.270318 0.071588 -0.125575
v 0.356591 -0.213890 -0.267126
v 0.270318 0.109132 -0.279233
v 0.166592 -0.213009 -0.422565
v 0.146803 0.109132 -0.277793
v 0.252230 -0.541938 -0.173826
v 0.106685 0.221985 -0.131574
v 0.115704 -0.543132 -0.391434
v 0.260045 -0.813289 -0.310541
v 0.383622 -0.550705 -0.361310
v 0.272207 -0.543132 -0.450845
v 0.305211 -0.205151 -0.383721
v 0.136063 0.163737 -0.141880
v 0.075446 0.249871 -0.152799
v -0.000000 0.130459 0.164654
v -0.086489 0.048964 -0.108968
v 0.086489 0.048964 -0.108968
v -0.115113 0.048964 -0.064444
v 0.115113 0.048964 -0.064444
v 0.000000 0.048964 -0.151952
v 0.127730 0.048964 0.030521
v -0.127730 0.048964 0.030521
v -0.090659 0.150101 0.111815
v -0.116881 0.127031 0.083789
v 0.074347 0.144021 0.169758
v -0.080953 0.127031 0.187405
v -0.074347 0.144021 0.169758
v 0.080953 0.127031 0.187405
v -0.000000 0.153339 0.191634
v -0.000000 0.127031 0.211361
v 0.090659 0.150101 0.111815
v 0.116881 0.127031 0.083789
v -0.000000 0.159227 0.138175
v -0.000000 0.127031 0.133067
v 0.102436 0.229840 0.085687
v 0.122816 0.131528 0.088293
v -0.122816 0.131528 0.088293
v -0.102436 0.229840 0.085687
v -0.000000 0.251992 0.108484
v -0.054840 0.082021 0.072645
v 0.054840 0.079064 0.072645
v -0.056131 0.132496 0.109320
v 0.056131 0.132496 0.109320
v -0.000000 0.132496 0.125931
v 0.071779 0.133121 0.081302
v -0.071779 0.133121 0.081302
v -0.000785 0.264505 -0.039717
vt 0.787780 0.926753
vt 0.773976 0.929117
vt 0.762037 0.904078
vt 0.122952 0.606727
vt 0.169266 0.599736
vt 0.148138 0.650744
vt 0.015625 0.078125
vt 0.105469 0.128906
vt 0.015625 0.128906
vt 0.122952 0.543693
vt 0.168676 0.599736
vt 0.173029 0.543693
vt 0.148438 0.078125
vt 0.787780 0.878706
vt 0.788037 0.904078
vt 0.152706 0.314294
vt 0.187236 0.325329
vt 0.153468 0.328433
vt 0.752867 0.880621
vt 0.122952 0.649301
vt 0.228104 0.546144
vt 0.224452 0.586987
vt 0.253583 0.579491
vt 0.247062 0.545691
vt 0.011259 0.465657
vt 0.003888 0.443232
vt 0.040793 0.446699
vt 0.224452 0.586987
vt 0.253583 0.579491
vt 0.264043 0.601993
vt 0.144531 0.031250
vt 0.039405 0.487893
vt 0.015625 0.031250
vt 0.035156 0.031250
vt 0.160156 0.128906
vt 0.337118 0.400690
vt 0.338242 0.400955
vt 0.338250 0.407936
vt 0.336531 0.407738
vt 0.314114 0.379319
vt 0.330559 0.379319
vt 0.332278 0.379121
vt 0.318676 0.378790
vt 0.761784 0.904078
vt 0.773724 0.929117
vt 0.147549 0.650744
vt 0.015625 0.078125
vt 0.337118 0.400690
vt 0.336531 0.407738
vt 0.338250 0.407936
vt 0.338242 0.400955
vt 0.148438 0.078125
vt 0.152706 0.314294
vt 0.153468 0.328433
vt 0.187236 0.325329
vt 0.752614 0.880621
vt 0.173618 0.543693
vt 0.011259 0.465657
vt 0.040793 0.446699
vt 0.003888 0.443232
vt 0.264043 0.601993
vt 0.144531 0.031250
vt 0.039405 0.487893
vt 0.035156 0.031250
vt 0.015625 0.031250
vt 0.338880 0.393055
vt 0.339608 0.393055
vt 0.001498 0.410573
vt 0.039805 0.416534
vt 0.787780 0.863783
vt 0.754541 0.871384
vt 0.759194 0.861930
vt 0.787780 0.854874
vt 0.066008 0.404505
vt 0.046043 0.370060
vt 0.038214 0.384728
vt 0.049514 0.416549
vt 0.754289 0.871384
vt 0.758942 0.861930
vt 0.046043 0.370060
vt 0.066008 0.404505
vt 0.049514 0.416549
vt 0.038214 0.384728
vt 0.449219 0.863281
vt 0.378906 0.863281
vt 0.468750 0.691406
vt 0.304688 0.863281
vt 0.335938 0.691406
vt 0.203125 0.863281
vt 0.277344 0.683594
vt 0.539062 0.863281
vt 0.585938 0.546875
vt 0.289062 0.941406
vt 0.289062 0.523437
vt 0.230469 0.523437
vt 0.230469 0.398438
vt 0.476562 0.546875
vt 0.542969 0.394531
vt 0.378906 0.523437
vt 0.343750 0.398438
vt 0.359375 0.941406
vt 0.370020 0.995273
vt 0.412808 0.949038
vt 0.402344 0.695312
vt 0.156250 0.523438
vt 0.203125 0.863281
vt 0.277344 0.683594
vt 0.230469 0.523437
vt 0.476562 0.941406
vt 0.718750 0.722656
vt 0.785156 0.722656
vt 0.785156 0.750000
vt 0.718750 0.750000
vt 0.656250 0.750000
vt 0.656250 0.722656
vt 0.851562 0.722656
vt 0.851562 0.750000
vt 0.917969 0.722656
vt 0.917969 0.750000
vt 0.570313 0.257812
vt 0.554688 0.285156
vt 0.503906 0.257812
vt 0.570313 0.324219
vt 0.359375 0.941406
vt 0.370020 0.995273
vt 0.412808 0.949038
vt 0.039805 0.416534
vt 0.001498 0.410573
vt 0.449219 0.863281
vt 0.468750 0.691406
vt 0.378906 0.863281
vt 0.335938 0.691406
vt 0.304688 0.863281
vt 0.539062 0.863281
vt 0.585938 0.546875
vt 0.289062 0.941406
vt 0.289062 0.523437
vt 0.230469 0.398438
vt 0.542969 0.394531
vt 0.476562 0.546875
vt 0.378906 0.523437
vt 0.343750 0.398438
vt 0.156250 0.523438
vt 0.402344 0.695312
vt 0.476562 0.941406
vt 0.318676 0.378790
vt 0.332278 0.379121
vt 0.330559 0.379319
vt 0.314114 0.379319
vt 0.718750 0.722656
vt 0.718750 0.750000
vt 0.785156 0.750000
vt 0.785156 0.722656
vt 0.656250 0.722656
vt 0.656250 0.750000
vt 0.851562 0.750000
vt 0.851562 0.722656
vt 0.917969 0.722656
vt 0.917969 0.750000
vt 0.570313 0.257812
vt 0.503906 0.257812
vt 0.554688 0.285156
vt 0.570313 0.324219
vt 0.721186 0.742627
vt 0.717990 0.802504
vt 0.779258 0.795177
vt 0.771595 0.733063
vt 0.720998 0.741061
vt 0.771569 0.732852
vt 0.228104 0.546144
vt 0.247062 0.545691
vt 0.324953 0.376146
vt 0.342286 0.373508
vt 0.344484 0.376146
vt 0.313783 0.378922
vt 0.311178 0.379319
vt 0.091354 0.454473
vt 0.079873 0.442801
vt 0.072299 0.418264
vt 0.074928 0.410668
vt 0.080183 0.442793
vt 0.091664 0.454466
vt 0.075238 0.410660
vt 0.072609 0.418256
vt 0.054414 0.409727
vt 0.054204 0.401314
vt 0.054983 0.432525
vt 0.058626 0.410668
vt 0.055038 0.434704
vt 0.058122 0.454473
vt 0.058936 0.410660
vt 0.058432 0.454466
vt 0.058504 0.449664
vt 0.053320 0.486946
vt 0.053320 0.486946
vt 0.058504 0.449664
vt 0.057511 0.416224
vt 0.032957 0.028611
vt 0.032957 0.028611
vt 0.057319 0.416198
vt 0.388438 0.216711
vt 0.388438 0.216711
vt 0.388438 0.216711
vt 0.388438 0.216711
vt 0.390412 0.201395
vt 0.387844 0.216462
vt 0.387844 0.216462
vt 0.390412 0.201395
vt 0.390412 0.201395
vt 0.390412 0.201395
vt 0.389004 0.212306
vt 0.388438 0.216711
vt 0.388438 0.216711
vt 0.389004 0.212306
vt 0.389004 0.212306
vt 0.389004 0.212306
vt 0.388438 0.216711
vt 0.388438 0.216711
vn 0.1137 0.9493 -0.2931
vn -0.3702 0.2023 -0.9067
vn -0.2639 -0.9396 -0.2180
vn 0.3252 -0.5753 -0.7505
vn 0.3846 -0.1725 -0.9068
vn 0.2994 -0.6657 -0.6835
vn -0.2271 -0.9538 -0.1966
vn 0.0000 0.9995 -0.0307
vn -0.8151 0.5668 -0.1202
vn -0.2328 0.9577 0.1689
vn 0.1991 0.4991 -0.8434
vn 0.5090 -0.5152 -0.6896
vn 0.8691 -0.0965 -0.4851
vn 0.8817 -0.1048 -0.4600
vn 0.7202 -0.6209 -0.3095
vn -0.9885 0.1369 -0.0650
vn -0.8027 0.3102 -0.5094
vn -0.4240 -0.8885 -0.1757
vn -0.9321 0.3457 0.1083
vn -0.8231 -0.5038 0.2620
vn -0.0874 -0.9304 -0.3560
vn 0.0875 -0.9528 -0.2907
vn 0.1286 -0.9408 -0.3136
vn 0.4106 -0.9117 0.0142
vn 0.3781 -0.9249 -0.0411
vn 0.7509 -0.6560 -0.0768
vn 0.6490 -0.6855 0.3301
vn -0.6988 -0.7129 -0.0584
vn -0.1137 0.9493 -0.2931
vn 0.3702 0.2023 -0.9067
vn 0.2639 -0.9396 -0.2180
vn -0.1910 -0.9338 -0.3025
vn -0.4918 -0.8580 -0.1482
vn -0.7971 -0.4730 -0.3753
vn -0.5595 -0.6769 -0.4783
vn 0.2761 -0.9344 -0.2251
vn 0.0000 0.9210 -0.3895
vn 0.8151 0.5668 -0.1202
vn 0.2328 0.9577 0.1689
vn -0.1991 0.4991 -0.8434
vn -0.3199 -0.5512 -0.7706
vn -0.2936 -0.6374 -0.7124
vn -0.3846 -0.1725 -0.9068
vn 0.9885 0.1369 -0.0650
vn 0.8027 0.3102 -0.5094
vn 0.2630 -0.9379 -0.2264
vn 0.9321 0.3457 0.1083
vn 0.8040 -0.5642 0.1879
vn 0.1656 -0.9211 -0.3524
vn -0.1287 -0.9318 -0.3394
vn -0.1292 -0.9316 -0.3397
vn -0.9619 -0.1302 0.2405
vn -0.9503 -0.2966 -0.0950
vn -0.7486 -0.6586 -0.0765
vn -0.6387 -0.6801 0.3599
vn 0.6969 -0.7148 -0.0583
vn -0.0000 0.8567 0.5158
vn -0.4640 0.6675 0.5823
vn -0.6716 0.6093 0.4216
vn -0.0000 0.7256 0.6881
vn 0.6562 0.3382 0.6746
vn 0.7789 0.5208 0.3494
vn 0.6716 0.6093 0.4216
vn -0.1139 -0.5434 0.8317
vn -0.7281 -0.2100 0.6525
vn 0.1139 -0.5434 0.8317
vn -0.9636 0.2597 0.0635
vn 0.0106 0.4093 -0.9123
vn 0.9728 0.1308 0.1912
vn 0.1763 -0.0720 0.9817
vn 0.9281 -0.3710 0.0317
vn 0.8548 0.0835 -0.5122
vn 0.8817 -0.4718 -0.0026
vn -0.7848 -0.2607 0.5622
vn 0.3213 -0.4250 -0.8463
vn 0.9248 0.0158 0.3801
vn 0.2608 0.7283 -0.6337
vn -0.7194 0.5586 0.4128
vn -0.9050 0.1804 -0.3853
vn -0.8131 -0.0953 0.5743
vn 0.2483 -0.4415 0.8622
vn -0.5567 -0.4025 -0.7267
vn -0.6275 0.0923 -0.7731
vn 0.9959 -0.0762 0.0479
vn -0.9248 0.0158 0.3801
vn -0.2373 0.3301 -0.9136
vn 0.0085 0.6862 -0.7274
vn -0.9297 0.3577 0.0874
vn 0.1306 -0.5698 0.8113
vn 0.2628 0.7175 -0.6451
vn 0.7682 -0.3492 0.5365
vn 0.3547 -0.0334 -0.9344
vn 0.8503 0.1714 -0.4976
vn -0.8976 0.2255 -0.3787
vn -0.2575 0.1640 -0.9523
vn -0.3383 0.3584 0.8701
vn -0.4488 -0.8838 0.1320
vn 0.5705 0.8169 -0.0852
vn 0.2458 -0.1959 -0.9493
vn -0.7420 0.4605 -0.4872
vn -0.7807 -0.0718 0.6207
vn 0.7194 0.5586 0.4128
vn 0.9503 -0.2966 -0.0950
vn 0.9535 -0.0867 0.2887
vn 0.9636 0.2597 0.0635
vn -0.0106 0.4093 -0.9123
vn -0.9728 0.1308 0.1912
vn -0.1763 -0.0720 0.9817
vn -0.9281 -0.3710 0.0317
vn -0.8548 0.0835 -0.5122
vn -0.8817 -0.4718 -0.0026
vn 0.7848 -0.2607 0.5622
vn -0.3213 -0.4250 -0.8463
vn -0.3323 -0.0916 0.9387
vn -0.2608 0.7283 -0.6337
vn 0.8295 0.3890 0.4007
vn 0.9050 0.1804 -0.3853
vn 0.8131 -0.0953 0.5743
vn -0.2483 -0.4415 0.8622
vn 0.5567 -0.4025 -0.7267
vn 0.6275 0.0923 -0.7731
vn -0.9959 -0.0762 0.0479
vn 0.2373 0.3301 -0.9136
vn -0.0085 0.6862 -0.7274
vn 0.9297 0.3577 0.0874
vn -0.1306 -0.5698 0.8113
vn -0.2628 0.7175 -0.6451
vn -0.7682 -0.3492 0.5365
vn -0.3547 -0.0334 -0.9344
vn -0.8503 0.1714 -0.4976
vn 0.8976 0.2255 -0.3787
vn 0.2575 0.1640 -0.9523
vn -0.3707 -0.9279 -0.0403
vn -0.4230 -0.9017 0.0895
vn 0.3383 0.3584 0.8701
vn 0.4488 -0.8838 0.1320
vn -0.5705 0.8169 -0.0852
vn -0.2458 -0.1959 -0.9493
vn 0.7420 0.4605 -0.4872
vn 0.7807 -0.0718 0.6207
vn 0.3323 -0.0916 0.9387
vn -0.8295 0.3890 0.4007
vn -0.0000 0.2870 0.9579
vn 0.0000 0.2864 0.9581
vn -0.8817 -0.1048 -0.4600
vn -0.6830 -0.2590 -0.6830
vn 0.1267 -0.9568 -0.2617
vn 0.1273 -0.9566 -0.2620
vn -0.7143 -0.4926 0.4972
vn 0.7058 -0.5722 0.4177
vn -0.3910 -0.9026 -0.1803
vn 0.1600 0.8423 0.5148
vn 0.9177 0.3222 0.2324
vn -0.1398 0.5311 0.8357
vn -0.1600 0.8422 0.5148
vn 0.3910 -0.9026 -0.1803
vn 0.1398 0.5311 0.8357
vn -0.9177 0.3222 0.2324
vn -0.0000 0.6898 0.7240
vn 0.0000 0.6887 0.7250
vn 0.0000 0.9893 0.1461
vn -0.0000 0.9939 0.1106
vn -0.0000 -0.9999 -0.0167
vn 0.0000 -0.9999 0.0167
vn -0.6338 0.6801 0.3685
vn 0.6338 0.6801 0.3685
vn -0.0000 0.9545 0.2983
vn -0.2351 -0.3830 0.8933
vn -0.1567 0.9533 0.2583
vn 0.2694 0.7270 0.6316
vn -0.2430 0.7496 0.6157
vn 0.1546 0.9870 0.0431
vn 0.2373 -0.3879 0.8907
vn 0.1102 -0.7694 0.6291
vn 0.4678 -0.8838 0.0086
vn -0.0000 -0.9976 -0.0691
vn 0.0000 -0.9994 -0.0360
vn -0.4678 -0.8838 0.0086
vn -0.3221 -0.5566 0.7658
vn -0.5198 0.2808 0.8069
vn 0.5182 0.2772 0.8091
usemtl m0
s 1
f 1/1/1 2/2/1 3/3/1
f 4/4/2 5/5/2 2/6/2
f 6/7/3 7/8/3 8/9/3
f 81/10/4 4/4/5 21/11/5 78/12/6
f 7/8/7 6/7/7 9/13/7
f 10/14/8 108/15/8 3/3/8
f 12/16/9 13/17/9 3/18/9
f 13/19/10 10/14/10 3/3/10
f 1/20/11 4/4/11 2/6/11
f 78/21/12 21/22/13 27/23/14 80/24/15
f 12/25/16 15/26/16 16/27/16
f 5/28/17 15/29/17 12/30/17
f 6/7/18 14/31/18 9/13/18
f 13/32/19 12/25/19 16/27/19
f 6/7/20 17/33/20 18/34/20
f 19/35/21 7/8/21 9/13/21
f 23/36/22 78/37/12 80/38/15 26/39/23
f 29/40/24 26/41/25 80/42/26 82/43/27
f 18/34/28 14/31/28 6/7/28
f 11/44/29 20/45/29 1/1/29
f 4/4/30 20/46/30 21/11/30
f 22/47/31 8/9/31 7/8/31
f 9/48/32 14/49/33 79/50/34 77/51/35
f 7/8/36 23/52/36 22/47/36
f 11/44/37 1/1/37 108/15/37
f 24/53/38 11/54/38 25/55/38
f 25/56/39 11/44/39 10/14/39
f 1/20/40 20/46/40 4/4/40
f 81/10/41 77/57/42 5/5/43 4/4/43
f 24/58/44 28/59/44 27/60/44
f 21/22/45 24/61/45 27/23/45
f 22/47/46 23/52/46 26/62/46
f 25/63/47 28/59/47 24/58/47
f 22/47/48 29/64/48 30/65/48
f 19/35/49 23/52/49 7/8/49
f 19/66/50 9/48/51 77/51/42 81/67/41
f 16/27/52 15/26/53 79/68/54 83/69/55
f 29/64/56 22/47/56 26/62/56
f 100/70/57 99/71/58 33/72/59 35/73/60
f 97/74/61 96/75/62 31/76/63 34/77/64
f 96/78/62 100/70/57 35/73/60 31/79/63
f 99/80/58 98/81/65 32/82/66 33/83/59
f 36/84/67 37/85/67 38/86/67
f 37/85/68 39/87/68 40/88/68
f 39/87/69 41/89/69 42/90/69
f 41/91/70 36/84/70 43/92/70
f 41/89/71 39/87/71 44/93/71
f 45/94/72 40/88/72 42/90/72
f 45/94/73 46/95/73 47/96/73
f 43/92/74 48/97/74 47/98/74
f 49/99/75 45/94/75 47/100/75
f 42/90/76 41/89/76 46/95/76
f 39/87/77 50/101/77 44/93/77
f 51/102/78 50/101/78 52/103/78
f 48/97/79 38/86/79 53/104/79
f 48/97/80 43/92/80 38/86/80
f 46/95/81 43/105/81 47/96/81
f 48/97/82 49/99/82 47/98/82
f 48/97/83 53/104/83 49/99/83
f 46/95/84 45/94/84 42/90/84
f 54/106/85 55/107/85 56/108/85
f 37/85/86 40/88/86 53/104/86
f 39/87/87 37/85/87 50/101/87
f 37/85/88 36/84/88 50/101/88
f 36/84/89 41/91/89 52/103/89
f 44/93/90 50/101/90 51/102/90
f 52/103/91 41/91/91 44/109/91
f 45/94/92 49/99/92 40/88/92
f 40/88/93 39/87/93 42/90/93
f 38/86/94 37/85/94 53/104/94
f 53/104/95 40/88/95 49/99/95
f 12/110/96 3/111/96 51/112/96 52/113/96
f 12/110/97 52/113/97 57/114/97 5/115/97
f 3/111/98 2/116/98 58/117/98 51/112/98
f 5/118/99 57/119/99 58/117/99 2/116/99
f 58/120/100 44/121/100 51/122/100
f 57/123/100 44/121/100 58/120/100
f 43/92/101 36/84/101 38/86/101
f 59/124/102 60/125/102 61/126/102
f 82/127/27 80/128/26 27/60/103 28/59/104
f 62/129/105 63/130/105 64/131/105
f 64/131/106 65/132/106 66/133/106
f 66/133/107 55/107/107 54/106/107
f 54/134/108 67/135/108 62/129/108
f 54/106/109 68/136/109 66/133/109
f 69/137/110 55/107/110 65/132/110
f 69/137/111 70/138/111 56/108/111
f 67/135/112 70/139/112 71/140/112
f 72/141/113 70/142/113 69/137/113
f 67/143/114 54/106/114 56/108/114
f 66/133/115 68/136/115 59/124/115
f 62/129/116 59/124/116 61/126/116
f 71/140/117 73/144/117 63/130/117
f 71/140/118 63/130/118 67/135/118
f 56/108/119 70/138/119 67/143/119
f 71/140/120 70/139/120 72/141/120
f 71/140/121 72/141/121 73/144/121
f 56/108/122 55/107/122 69/137/122
f 64/131/123 73/144/123 65/132/123
f 66/133/124 59/124/124 64/131/124
f 64/131/125 59/124/125 62/129/125
f 62/129/126 61/126/126 54/134/126
f 68/136/127 60/125/127 59/124/127
f 61/126/128 68/145/128 54/134/128
f 69/137/129 65/132/129 72/141/129
f 65/132/130 55/107/130 66/133/130
f 63/130/131 73/144/131 64/131/131
f 73/144/132 72/141/132 65/132/132
f 83/146/55 79/147/54 14/148/133 18/149/134
f 24/150/135 61/151/135 60/152/135 11/153/135
f 24/150/136 21/154/136 74/155/136 61/151/136
f 11/153/137 60/152/137 75/156/137 20/157/137
f 21/158/138 20/157/138 75/156/138 74/159/138
f 75/160/139 60/161/139 68/162/139
f 74/163/139 75/160/139 68/162/139
f 67/135/140 63/130/140 62/129/140
f 41/89/141 43/105/141 46/95/141
f 50/101/142 36/84/142 52/103/142
f 31/164/63 35/165/143 76/166/144 34/167/64
f 35/165/143 33/168/59 32/169/66 76/166/144
f 77/170/35 79/171/34 15/29/145 5/28/146
f 19/66/147 81/67/4 78/37/6 23/36/148
f 17/172/149 83/173/55 18/174/134
f 82/175/27 30/176/150 29/40/24
f 93/177/151 92/178/152 86/179/153 89/180/154
f 84/181/155 85/182/156 87/183/157 88/184/158
f 86/179/153 90/185/159 91/186/160 89/180/154
f 90/185/159 88/184/158 87/183/157 91/186/160
f 88/184/158 90/185/161 94/187/162 84/181/155
f 89/188/154 91/186/163 95/189/164 93/190/151
f 91/186/163 87/191/157 85/192/156 95/189/164
f 90/185/161 86/179/153 92/178/152 94/187/162
f 13/32/165 16/27/52 98/193/65 99/194/58
f 25/56/166 10/14/167 100/70/57 96/78/62
f 28/59/104 25/63/166 96/195/62 97/196/61
f 10/14/167 13/19/165 99/71/58 100/70/57
f 30/197/168 82/127/27 28/59/104 97/196/61
f 83/198/169 17/33/170 30/65/171 82/199/172
f 98/193/65 16/27/52 83/69/55 17/200/173
f 32/201/66 98/202/65 107/203/174 103/204/175
f 34/205/64 76/206/176 105/207/177 104/208/178
f 76/206/176 32/209/66 103/210/175 105/207/177
f 30/211/168 97/212/61 106/213/179 102/214/180
f 98/202/65 17/215/173 101/216/181 107/203/174
f 97/212/61 34/217/64 104/218/178 106/213/179
f 108/15/8 10/14/8 11/44/8
f 108/15/37 1/1/37 3/3/37
