# Blender v3.6.5 OBJ File: 'Megaman_Hatsune_Master05.blend'
# www.blender.org
mtllib 20_ASBESTOS_LEFT_FOOT.mtl
o 20_ASBESTOS_LEFT_FOOT_12_RIGHT_FOOT.013
v -0.037815 0.008562 0.019039
v 0.014770 0.008562 0.026427
v 0.034525 -0.070034 0.110817
v -0.073003 -0.086498 0.112887
v -0.035393 -0.118275 0.230740
v 0.041683 -0.116878 0.222416
v -0.098551 -0.197925 0.235290
v 0.074915 -0.197925 -0.128494
v 0.064679 -0.197925 0.236105
v -0.075541 -0.197925 0.068662
v 0.032242 -0.001962 -0.021617
v -0.014508 -0.001962 -0.054218
v -0.039000 -0.197925 0.268403
v -0.084727 -0.197925 -0.140288
v -0.058397 -0.001962 -0.019445
v -0.014147 -0.036455 -0.112183
v -0.127684 -0.036455 0.004088
v -0.014147 -0.036455 0.115466
v 0.101255 -0.036455 0.008280
v -0.014068 0.045904 -0.082636
v -0.098519 0.045904 0.003849
v -0.014068 0.045904 0.086695
v 0.071772 0.045904 0.006967
v 0.051385 -0.232745 -0.085669
v 0.043695 -0.232745 0.207450
v -0.080132 -0.232745 0.206795
v -0.068033 -0.232745 0.072835
v -0.069746 -0.232745 -0.095150
v -0.035393 -0.232745 0.233416
vt 0.387793 0.762392
vt 0.387793 0.699302
vt 0.313444 0.699302
vt 0.313444 0.762392
vt 0.387793 0.640154
vt 0.313444 0.640154
vt 0.446873 0.552232
vt 0.387498 0.652335
vt 0.475750 0.660664
vt 0.474265 0.581096
vt 0.217418 0.640418
vt 0.207399 0.581096
vt 0.329957 0.581096
vt 0.207995 0.581096
vt 0.297587 0.662655
vt 0.273650 0.581901
vt 0.340978 0.761152
vt 0.305779 0.761152
vt 0.383784 0.652774
vt 0.387462 0.554134
vt 0.305217 0.654505
vt 0.448166 0.554134
vt 0.393846 0.581901
vt 0.374022 0.761152
vt 0.482897 0.581096
vt 0.394447 0.724530
vt 0.277241 0.695988
vt 0.241753 0.695988
vt 0.308787 0.656557
vt 0.264447 0.695988
vt 0.303878 0.660500
vt 0.240787 0.695988
vt 0.396037 0.724530
vt 0.299103 0.674705
vt 0.281776 0.554134
vt 0.681466 0.214303
vt 0.681466 0.214303
vt 0.657807 0.214303
vt 0.657807 0.214303
vt 0.756386 0.214303
vt 0.756386 0.214303
vt 0.701181 0.214303
vt 0.701181 0.214303
vt 0.539512 0.214303
vt 0.539512 0.214303
vt 0.488251 0.214303
vt 0.488251 0.214303
vt 0.003634 0.371583
vt 0.049894 0.371583
vt 0.049894 0.328091
vt 0.003634 0.328091
vt 0.003634 0.413245
vt 0.049894 0.413245
vt 0.049894 0.373151
vt 0.003634 0.373151
vt 0.103852 0.184027
vt 0.123677 0.183836
vt 0.123918 0.204093
vt 0.062108 0.158326
vt 0.034235 0.158593
vt 0.062446 0.186805
vt 0.103128 0.203647
vt 0.033217 0.186178
vt 0.728696 0.391462
vt 0.693539 0.375837
vt 0.674008 0.387556
vt 0.682958 0.453962
vt 0.728696 0.511726
vt 0.671240 0.527351
vt 0.823420 0.214303
vt 0.823420 0.214303
vn -0.0967 0.7171 0.6903
vn -0.1388 0.9441 0.2989
vn 0.0249 0.9223 0.3856
vn -0.7122 0.5867 0.3855
vn 0.9605 0.2771 0.0270
vn -0.9877 0.0766 -0.1364
vn 0.4965 0.4965 -0.7120
vn 0.0898 0.4224 0.9019
vn -0.4456 0.3991 0.8014
vn -0.5403 0.4931 -0.6819
vn -0.9895 0.1437 -0.0174
vn -0.7865 0.5562 0.2685
vn 0.8663 0.4502 0.2164
vn 0.9820 0.1742 0.0726
vn 0.9708 0.2370 0.0372
vn 0.0681 0.3806 -0.9222
vn 0.2888 0.2386 0.9272
vn -0.9990 0.0053 0.0439
vn -0.0732 -0.7191 0.6910
vn -0.0740 -0.7191 0.6909
vn 0.6338 -0.6809 0.3671
vn 0.5434 -0.7011 0.4617
vn -0.9529 -0.3010 -0.0367
vn -0.9520 -0.3026 -0.0461
vn -0.8090 -0.5416 0.2286
vn -0.6590 -0.6306 0.4100
vn 0.4100 -0.8027 -0.4331
vn 0.5739 -0.7589 -0.3078
vn -0.6766 -0.6583 -0.3299
vn -0.3895 -0.7762 -0.4959
vn -0.5060 -0.6091 0.6107
vn -0.4240 0.6744 0.6044
vn 0.0059 0.3377 -0.9412
vn 0.0036 0.3377 -0.9413
vn -0.8719 -0.3929 -0.2923
vn 0.7556 0.2404 0.6094
vn 0.9411 0.3373 0.0246
vn 0.9409 0.3373 0.0293
vn -0.0000 -1.0000 -0.0000
vn -0.0000 1.0000 0.0000
usemtl m0.012
s 1
f 1/1/1 4/2/1 3/3/1 2/4/1
f 4/2/2 5/5/2 3/3/2
f 5/5/3 6/6/3 3/3/3
f 7/7/4 5/8/4 4/9/4
f 8/10/5 6/11/5 9/12/5
f 10/13/6 7/14/6 4/15/6
f 8/16/7 12/17/7 11/18/7
f 5/19/8 13/20/8 6/21/8
f 13/20/9 5/19/9 7/22/9
f 14/23/10 15/24/10 12/17/10
f 14/25/11 4/15/11 15/26/11
f 1/27/12 15/28/12 4/29/12
f 2/30/13 3/31/13 11/32/13
f 8/10/14 11/33/14 3/34/14
f 3/34/15 6/11/15 8/10/15
f 14/23/16 12/17/16 8/16/16
f 6/21/17 13/20/17 9/35/17
f 10/13/18 4/15/18 14/25/18
f 13/36/19 29/37/20 25/38/21 9/39/22
f 10/40/23 27/41/24 26/42/25 7/43/26
f 7/43/26 26/42/25 29/37/20 13/36/19
f 8/44/27 24/45/28 28/46/29 14/47/30
f 17/48/31 21/49/32 20/50/33 16/51/34
f 18/52/35 22/53/36 21/49/32 17/48/31
f 16/51/34 20/50/33 23/54/37 19/55/38
f 19/55/38 23/54/37 22/53/36 18/52/35
f 18/56/35 17/57/31 16/58/39
f 21/59/32 22/60/36 20/61/40
f 16/58/39 19/62/39 18/56/35
f 20/61/40 22/60/36 23/63/40
f 25/64/39 29/65/39 26/66/39
f 25/64/39 27/67/39 24/68/39
f 24/68/39 27/67/39 28/69/39
f 26/66/39 27/67/39 25/64/39
f 14/70/30 28/71/29 27/41/24 10/40/23
f 9/39/22 25/38/21 24/45/28 8/44/27
