# Blender 4.1.1
# www.blender.org
mtllib miku.mtl
o 20_ASBESTOS_RIGHT_FOOT
v 0.037815 0.008562 0.019039
v -0.014770 0.008562 0.026427
v -0.034525 -0.078266 0.110817
v 0.073003 -0.078266 0.112887
v 0.068639 -0.113196 0.232366
v -0.041683 -0.113196 0.232366
v 0.094647 -0.173123 0.260189
v -0.069797 -0.173123 -0.117066
v -0.069797 -0.173123 0.260189
v -0.032242 -0.001962 -0.021617
v 0.014508 -0.001962 -0.054218
v 0.094647 -0.173123 -0.117066
v 0.058397 -0.001962 -0.019445
v 0.096040 -0.036455 -0.107497
v 0.094107 -0.036455 0.091031
v -0.064932 -0.036455 0.089166
v -0.070742 -0.036455 -0.103125
v 0.075091 0.045904 -0.082040
v 0.073653 0.045904 0.065629
v -0.044644 0.045904 0.064243
v -0.048966 0.045904 -0.078789
v -0.047540 -0.199795 -0.073084
v -0.047540 -0.199795 0.235273
v 0.074939 -0.199795 0.234618
v 0.074939 -0.199795 -0.073084
vn 0.4616 0.7213 0.5164
vn -0.5304 0.6614 0.5303
vn -0.6644 0.6781 0.3143
vn 0.6912 0.6635 0.2863
vn 0.4143 0.7231 0.5527
vn -0.4694 0.7239 0.5056
vn 0.6743 -0.1395 0.7252
vn -0.6618 -0.2451 -0.7085
vn -0.6987 -0.1254 0.7044
vn -0.8895 0.4022 -0.2166
vn 0.0262 0.5280 -0.8489
vn 0.6488 -0.2474 -0.7196
vn 0.8674 0.4546 -0.2024
vn -0.3373 -0.8891 0.3094
vn 0.3659 -0.8794 0.3046
vn 0.3847 -0.9027 -0.1925
vn -0.3578 -0.9135 -0.1934
vn 0.5310 0.2771 0.8008
vn 0.6237 -0.4347 -0.6496
vn 0.5006 0.7144 -0.4888
vn -0.1458 0.8462 0.5126
vn -0.4261 -0.4064 -0.8082
vn -0.9909 0.0646 0.1184
vn -0.6466 -0.4373 -0.6250
vn -0.5168 0.7150 -0.4708
vt 0.835938 0.304688
vt 0.828125 0.304688
vt 0.828125 0.285156
vt 0.835938 0.285156
vt 0.843750 0.300781
vt 0.843750 0.285156
vt 0.867188 0.300781
vt 0.867188 0.281250
vt 0.875000 0.253906
vt 0.800781 0.253906
vt 0.800781 0.304688
vt 0.781250 0.304688
vt 0.875000 0.281250
vt 0.761719 0.253906
vt 0.761719 0.304688
vt 0.820312 0.304688
vt 0.867188 0.253906
vt 0.851562 0.253906
vt 0.839844 0.253906
vt 0.839844 0.246094
vt 0.851562 0.246094
vt 0.761719 0.246094
vt 0.800781 0.246094
vt 0.718750 0.246094
vt 0.722656 0.292969
vt 0.757812 0.292969
vt 0.103852 0.184027
vt 0.123918 0.204093
vt 0.123677 0.183836
vt 0.718750 0.277344
vt 0.687500 0.246094
vt 0.103128 0.203647
vt 0.687500 0.277344
vt 0.691406 0.187500
vt 0.773438 0.187500
vt 0.691406 0.195312
vt 0.773438 0.195312
vt 0.875000 0.246094
s 1
usemtl m0
f 1/1/1 2/2/2 3/3/3 4/4/4
f 4/5/4 3/6/3 5/7/5
f 5/7/5 3/6/3 6/8/6
f 7/9/7 4/6/4 5/8/5
f 8/10/8 9/9/9 6/8/6
f 8/10/8 10/11/10 11/12/11
f 5/13/5 6/8/6 7/9/7
f 12/14/12 11/12/11 13/15/13
f 12/10/12 13/11/13 4/6/4
f 1/16/1 4/6/4 13/11/13
f 2/16/2 10/11/10 3/6/3
f 8/10/8 3/6/3 10/11/10
f 3/6/3 8/10/8 6/8/6
f 12/14/12 8/10/8 11/12/11
f 6/8/6 9/17/9 7/9/7
f 7/9/7 12/10/12 4/6/4
f 7/18/7 9/19/9 23/20/14 24/21/15
f 8/10/8 12/14/12 25/22/16 22/23/17
f 15/22/18 14/24/19 18/25/20 19/26/21
f 16/22/22 15/22/18 19/26/21 20/26/23
f 14/24/19 17/24/24 21/25/25 18/25/20
f 17/24/24 16/22/22 20/26/23 21/25/25
f 16/27/22 14/28/19 15/29/18
f 19/24/21 18/30/20 20/31/23
f 14/28/19 16/27/22 17/32/24
f 18/30/20 21/33/25 20/31/23
f 23/34/14 22/35/17 24/36/15
f 22/35/17 25/37/16 24/36/15
f 12/10/12 7/9/7 24/38/15 25/23/16
f 9/9/9 8/10/8 22/23/17 23/38/14
