# Blender 4.1.1
# www.blender.org
mtllib miku.mtl
o 20_CLEATED_RIGHT_FOOT
v 0.037815 0.008562 0.019039
v 0.069686 -0.051029 0.109879
v -0.053265 -0.034565 0.110817
v -0.014770 0.008562 0.026427
v 0.056254 -0.055420 0.207696
v -0.038858 -0.054145 0.207696
v 0.084269 -0.145633 0.204674
v -0.046571 -0.145633 -0.060527
v -0.067778 -0.145633 0.204674
v 0.055541 -0.145633 0.085092
v 0.014508 -0.001962 -0.054218
v -0.032242 -0.001962 -0.021617
v 0.005167 -0.145633 0.237868
v 0.069746 -0.145633 -0.068509
v 0.058397 -0.001962 -0.019445
v -0.046571 -0.199754 -0.060527
v -0.067778 -0.199754 0.202745
v 0.055541 -0.199754 0.085092
v 0.069746 -0.199754 -0.068509
v 0.080706 -0.199754 0.202745
v 0.043208 -0.015128 0.133286
v -0.022825 -0.015590 0.133397
v 0.009834 -0.199754 0.237868
v -0.062883 -0.145633 0.088030
v -0.062883 -0.199754 0.086949
vn 0.4592 0.8114 0.3616
vn -0.3188 0.8916 0.3216
vn -0.7102 0.7032 0.0337
vn 0.8576 0.5094 -0.0703
vn -0.7207 0.0736 -0.6893
vn -0.9903 0.0899 -0.1062
vn 0.5245 0.6523 0.5472
vn 0.0854 0.9833 -0.1606
vn -0.2753 0.9601 0.0489
vn -0.4279 0.5858 0.6883
vn -0.8525 0.3349 -0.4013
vn 0.0158 0.2783 -0.9604
vn -0.0173 0.0766 0.9969
vn 0.8505 0.1811 0.4937
vn 0.6998 0.0460 -0.7128
vn 0.8912 0.3428 -0.2969
vn -0.8624 0.1311 0.4890
vn 0.9914 -0.0575 -0.1178
vn 0.6677 -0.7432 -0.0427
vn 0.5881 -0.5694 -0.5744
vn 0.7166 -0.6974 -0.0124
vn 0.0317 -0.6205 0.7835
vn -0.6796 -0.6906 -0.2473
vn -0.6820 -0.6072 0.4076
vn -0.8005 -0.5913 0.0976
vt 0.558594 0.246094
vt 0.531250 0.246094
vt 0.523438 0.187500
vt 0.566406 0.187500
vt 0.476562 0.160156
vt 0.406250 0.101562
vt 0.476562 0.101562
vt 0.718750 0.277344
vt 0.714844 0.300781
vt 0.695312 0.300781
vt 0.687500 0.277344
vt 0.414062 0.187500
vt 0.386719 0.187500
vt 0.722656 0.691406
vt 0.671875 0.691406
vt 0.695312 0.636719
vt 0.730469 0.636719
vt 0.355469 0.101562
vt 0.355469 0.187500
vt 0.683594 0.101562
vt 0.683594 0.187500
vt 0.621094 0.156250
vt 0.652344 0.187500
vt 0.621094 0.144531
vt 0.437500 0.187500
vt 0.476562 0.148438
vt 0.660156 0.636719
vt 0.621094 0.101562
vt 0.734375 0.718750
vt 0.734375 0.691406
vt 0.656250 0.691406
vt 0.656250 0.718750
vt 0.664062 0.691406
vt 0.660156 0.718750
vt 0.660156 0.691406
vt 0.664062 0.718750
vt 0.964844 0.316406
vt 0.964844 0.304688
vt 0.957031 0.312500
vt 0.910156 0.316406
vt 0.910156 0.304688
vt 0.988281 0.304688
vt 0.710938 0.718750
vt 0.710938 0.691406
vt 0.656250 0.636719
vt 0.703125 0.636719
vt 0.718750 0.316406
vt 0.687500 0.316406
vt 0.988281 0.316406
s 1
usemtl m0
f 1/1/1 4/2/2 3/3/3 2/4/4
f 3/5/3 8/6/5 24/7/6
f 5/8/7 21/9/8 22/10/9 6/11/10
f 8/6/5 12/12/11 11/13/12
f 5/14/7 6/15/10 13/16/13
f 13/16/13 7/17/14 5/14/7
f 14/18/15 11/13/12 15/19/16
f 14/20/15 15/21/16 2/22/4
f 1/23/1 2/24/4 15/21/16
f 4/25/2 12/12/11 3/26/3
f 8/6/5 3/5/3 12/12/11
f 14/18/15 8/6/5 11/13/12
f 6/15/10 9/27/17 13/16/13
f 10/28/18 14/20/15 2/22/4
f 10/29/18 18/30/19 19/31/20 14/32/15
f 20/33/21 13/34/13 23/35/22
f 13/34/13 20/33/21 7/36/14
f 14/36/15 19/33/20 16/31/23 8/32/5
f 17/37/24 20/38/21 23/39/22
f 16/40/23 19/41/20 18/42/19
f 18/41/19 20/38/21 17/37/24 25/40/25
f 7/43/14 20/44/21 10/32/18
f 10/45/18 2/31/4 7/46/14
f 21/9/8 5/8/7 2/47/4
f 9/46/17 6/44/10 3/31/3
f 20/44/21 18/31/19 10/32/18
f 21/9/8 2/47/4 3/48/3 22/10/9
f 6/11/10 22/10/9 3/48/3
f 13/34/13 9/32/17 17/31/24 23/35/22
f 24/32/6 25/31/25 17/44/24 9/43/17
f 8/32/5 16/31/23 25/30/25 24/29/6
f 9/46/17 3/31/3 24/45/6
f 16/40/23 18/42/19 25/49/25
f 5/44/7 7/46/14 2/31/4
