# Blender v3.6.5 OBJ File: 'Megaman_Hatsune_Master05.blend'
# www.blender.org
mtllib 20_CLEATED_LEFT_FOOT.mtl
o 20_CLEATED_LEFT_FOOT.002_15_LEFT_FOOT.003
v -0.037815 0.008562 0.019039
v -0.069686 -0.051029 0.112887
v 0.044563 -0.034565 0.110817
v 0.014770 0.008562 0.026427
v -0.049547 -0.055481 0.230740
v 0.062740 -0.054084 0.222416
v -0.091009 -0.145633 0.206795
v 0.046571 -0.145633 -0.043631
v 0.067778 -0.145633 0.207450
v -0.055541 -0.145633 0.072835
v -0.014508 -0.001962 -0.054218
v 0.032242 -0.001962 -0.021617
v -0.049547 -0.145633 0.233416
v -0.069746 -0.145633 -0.078636
v -0.058397 -0.001962 -0.019445
v 0.046571 -0.191672 -0.043631
v 0.067778 -0.191672 0.193578
v -0.055541 -0.173900 0.010120
v -0.069746 -0.191672 -0.078636
v -0.077563 -0.191672 0.128204
v -0.049547 -0.191672 0.233416
v 0.050021 -0.173900 0.012882
v -0.055820 -0.022145 0.134972
v 0.042473 -0.020295 0.134972
vt 0.878906 0.167199
vt 0.878906 0.093750
vt 0.835938 0.093750
vt 0.835938 0.167199
vt 0.323685 0.185619
vt 0.287733 0.215589
vt 0.381336 0.215589
vt 0.183122 0.249125
vt 0.223127 0.249559
vt 0.220835 0.278682
vt 0.183747 0.278053
vt 0.718750 0.042799
vt 0.699219 0.103628
vt 0.726562 0.103628
vt 0.062248 0.191474
vt 0.062248 0.215091
vt 0.074199 0.191158
vt 0.072635 0.215554
vt 0.061826 0.190140
vt 0.061826 0.215554
vt 0.667969 0.042799
vt 0.667969 0.103628
vt 0.994775 0.041804
vt 0.933594 0.058594
vt 0.994775 0.103628
vt 0.964844 0.103628
vt 1.000000 0.103628
vt 0.750000 0.103628
vt 0.789062 0.062500
vt 0.078927 0.191158
vt 0.080066 0.215091
vt 0.933594 0.041804
vt 0.495936 0.184069
vt 0.386753 0.184069
vt 0.386753 0.159391
vt 0.450730 0.168917
vt 0.576893 0.184208
vt 0.511986 0.184208
vt 0.511986 0.158738
vt 0.489048 0.184208
vt 0.500811 0.184208
vt 0.565160 0.184208
vt 0.565160 0.158738
vt 0.500811 0.158738
vt 0.557352 0.266470
vt 0.530129 0.254371
vt 0.524349 0.264112
vt 0.557352 0.359591
vt 0.557352 0.315372
vt 0.521936 0.314864
vt 0.512863 0.371690
vt 0.411985 0.184069
vt 0.592968 0.184069
vt 0.452721 0.168917
vt 0.592496 0.184069
vt 0.535846 0.159391
vt 0.036138 0.215589
vt 0.072558 0.215589
vt 0.036138 0.176568
vt 0.582969 0.159391
vt 0.039852 0.181672
vt 0.061431 0.215554
vt 0.049098 0.168184
vt 0.303566 0.215554
vt 0.272959 0.187621
vt 0.288844 0.181992
vt 0.411985 0.159391
vt 0.611685 0.159391
vt 0.576893 0.158738
vt 0.288449 0.181992
vt 0.303171 0.190140
vt 0.303171 0.215554
vt 0.047913 0.170159
vt 0.061826 0.185910
vt 0.068935 0.170670
vt 0.069412 0.165486
vt 0.069412 0.147783
vt 0.068935 0.147783
vn -0.1009 0.8625 0.4959
vn 0.9297 0.3179 -0.1861
vn 0.9971 -0.0183 -0.0736
vn 0.9395 0.3120 -0.1416
vn 0.0796 0.9158 0.3937
vn 0.0875 0.9145 0.3950
vn 0.0848 0.9797 -0.1814
vn -0.1734 0.9601 -0.2195
vn 0.5627 0.1798 -0.8069
vn 0.0735 0.0296 0.9969
vn -0.5401 0.0250 0.8412
vn -0.5820 0.3486 -0.7346
vn -0.9940 0.0984 -0.0483
vn -0.7071 0.6806 0.1920
vn 0.7096 0.6966 0.1055
vn 0.9919 0.1090 -0.0655
vn 0.2878 0.0519 -0.9563
vn 0.2138 -0.1461 0.9659
vn -0.9784 -0.1851 0.0918
vn -0.9695 0.2111 -0.1244
vn -0.6395 -0.0962 -0.7628
vn -0.5593 -0.0893 -0.8242
vn -0.9960 -0.0368 0.0815
vn 0.7715 -0.1438 0.6198
vn -0.1756 0.0000 0.9845
vn -0.3194 -0.2597 0.9114
vn -0.8788 -0.3324 0.3423
vn 0.7818 -0.0084 -0.6234
vn 0.7356 0.0000 -0.6775
vn 0.0187 -0.9975 -0.0688
vn -0.0000 -1.0000 -0.0000
vn 0.0215 -0.9966 -0.0790
vn -0.0412 -0.9694 0.2422
vn -0.0023 -0.9987 0.0515
vn -0.0050 -0.9979 0.0647
vn 0.9963 -0.0314 -0.0798
vn -0.9891 0.0229 -0.1454
vn -0.8657 -0.2413 -0.4385
vn -0.9108 0.3700 0.1830
vn -0.9822 0.0072 -0.1875
vn 0.8740 -0.1402 0.4653
vn -0.7860 0.6179 0.0179
vn 0.9305 0.3491 -0.1106
vn 0.9876 -0.0393 -0.1522
vn -0.7478 0.5008 0.4360
vn -0.1484 0.6835 -0.7147
vn -0.1574 0.6967 -0.6999
usemtl m0.015
s 1
f 1/1/1 2/2/1 3/3/1 4/4/1
f 3/5/2 9/6/3 8/7/4
f 5/8/5 6/9/6 24/10/7 23/11/8
f 8/12/9 11/13/9 12/14/9
f 5/15/10 13/16/10 6/17/10
f 13/18/11 5/19/11 7/20/11
f 14/21/12 15/22/12 11/13/12
f 14/23/13 2/24/13 15/25/13
f 1/26/14 15/27/14 2/24/14
f 4/28/15 3/29/15 12/14/15
f 8/12/16 12/14/16 3/29/16
f 14/21/17 11/13/17 8/12/17
f 6/30/18 13/16/18 9/31/18
f 10/32/19 2/24/19 14/23/19
f 10/33/20 14/34/21 19/35/22 18/36/23
f 9/37/24 13/38/25 21/39/26
f 13/38/25 7/40/27 21/39/26
f 14/41/21 8/42/28 16/43/29 19/44/22
f 17/45/30 21/46/31 20/47/32
f 16/48/33 22/49/34 18/50/35 19/51/33
f 18/50/35 22/49/34 17/45/30 20/47/32
f 8/52/28 9/53/24 22/54/36
f 7/55/27 10/33/20 20/56/37
f 10/57/38 7/58/39 2/59/40
f 22/54/36 9/53/24 17/60/41
f 2/61/40 7/62/39 23/63/42
f 9/64/3 3/65/2 24/66/43
f 22/54/36 16/67/29 8/52/28
f 21/68/26 7/55/27 20/56/37
f 20/56/37 10/33/20 18/36/23
f 21/39/26 17/69/41 9/37/24
f 24/70/43 6/71/44 9/72/3
f 23/73/42 7/20/39 5/74/45
f 23/75/8 24/76/7 3/77/46 2/78/47
