# Blender v3.6.5 OBJ File: 'Megaman_Hatsune_Master05.blend'
# www.blender.org
mtllib 20_HYDRO_LEFT_FOOT.mtl
o 20_HYDRO_LEFT_FOOT_12_RIGHT_FOOT.009
v -0.028312 0.008562 0.019039
v 0.004641 0.008562 0.026427
v 0.056577 -0.070034 0.110817
v -0.068702 -0.086498 0.112887
v -0.044488 -0.125118 0.230740
v 0.066924 -0.123721 0.222416
v -0.094535 -0.197925 0.206795
v 0.073989 -0.197925 -0.081710
v 0.062873 -0.197925 0.207450
v -0.061518 -0.197925 0.072835
v 0.028772 -0.001962 -0.021617
v -0.013576 -0.001962 -0.054218
v -0.044488 -0.197925 0.233416
v -0.094144 -0.197925 -0.078636
v -0.053331 -0.001962 -0.019445
v -0.044936 -0.123531 0.226038
v -0.136163 -0.193018 0.364976
v 0.126370 -0.194469 0.360901
v 0.065652 -0.123531 0.218399
v -0.074718 -0.197580 0.133111
v 0.068942 -0.197580 0.133111
v -0.009831 -0.197580 0.133111
v -0.007914 -0.123531 0.226038
v -0.004896 -0.193744 0.426302
v -0.030541 -0.054856 -0.058445
v -0.015422 -0.024123 -0.230525
v -0.014843 -0.184782 -0.140708
v -0.030541 -0.198091 -0.078037
v 0.000599 -0.054856 -0.058445
v 0.000599 -0.198091 -0.078037
vt 0.793291 0.113430
vt 0.808053 0.084794
vt 0.766833 0.087989
vt 0.782524 0.112856
vt 0.972256 0.067709
vt 0.972256 0.118574
vt 0.928751 0.067709
vt 0.928751 0.118574
vt 0.714367 0.003925
vt 0.693877 0.023676
vt 0.729231 0.059330
vt 0.793956 0.038865
vt 0.690533 0.025440
vt 0.708171 0.000062
vt 0.740997 0.020866
vt 0.713869 0.003925
vt 0.728734 0.059330
vt 0.763373 0.045899
vt 0.788476 0.113173
vt 0.774639 0.112435
vt 0.878906 0.010702
vt 0.859375 0.000000
vt 0.835938 0.010702
vt 0.878906 0.000000
vt 0.818308 0.048831
vt 0.801465 0.113866
vt 0.721422 0.058691
vt 0.835938 0.000000
vt 0.872277 0.001556
vt 0.855594 0.024801
vt 0.915236 0.014303
vt 0.648438 0.617187
vt 0.613281 0.601562
vt 0.593750 0.613281
vt 0.602700 0.679687
vt 0.648438 0.737451
vt 0.590982 0.753076
vt 0.901335 0.129031
vt 0.901335 0.151647
vt 0.901335 0.151647
vt 0.901335 0.129031
vt 0.932551 0.150701
vt 0.964853 0.150701
vt 0.965167 0.129031
vt 0.929292 0.129031
vt 0.932551 0.103279
vt 0.968112 0.103279
vt 0.968112 0.103279
vt 0.968112 0.151647
vt 0.932551 0.151647
vt 0.968112 0.151647
vt 0.901335 0.106414
vt 0.901335 0.106414
vt 0.964853 0.102806
vt 0.932551 0.102806
vt 0.934926 0.151456
vt 0.990626 0.151297
vt 0.956318 0.108649
vt 0.934795 0.105812
vt 0.898916 0.146768
vt 0.898916 0.111206
vt 0.898916 0.111206
vt 0.968112 0.151647
vt 0.932551 0.151647
vt 0.968112 0.151647
vt 0.934926 0.151456
vt 0.934795 0.105812
vn -0.0973 0.7097 0.6978
vn -0.1176 0.9363 0.3310
vn 0.0210 0.9017 0.4318
vn -0.8264 0.4624 0.3213
vn 0.9973 -0.0622 0.0383
vn -0.9707 0.0234 -0.2392
vn 0.5695 0.3583 -0.7398
vn 0.0740 0.0366 0.9966
vn -0.4694 0.0324 0.8824
vn -0.6186 0.3424 -0.7072
vn -0.9797 0.1999 0.0139
vn -0.7289 0.6122 0.3064
vn 0.7023 0.6823 0.2033
vn 0.9662 0.2463 -0.0762
vn 0.9873 0.1579 -0.0156
vn -0.0181 0.1310 -0.9912
vn 0.2301 -0.2045 0.9514
vn -0.9683 -0.1374 0.2086
vn 0.0000 -1.0000 0.0000
vn -0.0042 -0.9999 0.0159
vn -0.2810 -0.9580 -0.0576
vn -0.4345 -0.8951 -0.1004
vn -0.0045 -0.9999 0.0123
vn -0.1159 0.9302 0.3482
vn -0.1194 0.9289 0.3506
vn -0.0004 0.9337 0.3580
vn 0.0136 0.9351 0.3541
vn 0.9199 0.3129 -0.2362
vn 0.2541 -0.9659 -0.0507
vn 0.3978 -0.9130 -0.0903
vn -0.7795 0.5872 -0.2181
vn 0.1296 0.9237 0.3606
vn 0.1265 0.9230 0.3634
vn -0.9992 -0.0091 0.0396
vn -0.9482 -0.1357 -0.2872
vn -0.9590 -0.0189 -0.2827
vn -0.9925 -0.1221 -0.0080
vn 0.0000 -0.9782 -0.2077
vn 0.9589 -0.2648 -0.1022
vn 0.7210 -0.6547 -0.2269
vn 0.9831 0.1832 0.0014
vn 0.0000 0.9844 0.1758
vn 0.7513 0.6596 0.0227
usemtl m0.012
s 1
f 1/1/1 4/2/1 3/3/1 2/4/1
f 4/5/2 5/6/2 3/7/2
f 5/6/3 6/8/3 3/7/3
f 7/9/4 5/10/4 4/11/4
f 8/12/5 6/13/5 9/14/5
f 10/15/6 7/16/6 4/17/6
f 8/18/7 12/19/7 11/20/7
f 5/21/8 13/22/8 6/23/8
f 13/22/9 5/21/9 7/24/9
f 14/25/10 15/26/10 12/19/10
f 14/25/11 4/2/11 15/26/11
f 1/1/12 15/26/12 4/2/12
f 2/4/13 3/3/13 11/20/13
f 8/18/14 11/20/14 3/3/14
f 3/27/15 6/13/15 8/12/15
f 14/25/16 12/19/16 8/18/16
f 6/23/17 13/22/17 9/28/17
f 10/29/18 4/30/18 14/31/18
f 9/32/19 13/33/19 7/34/19
f 9/32/19 10/35/19 8/36/19
f 8/36/19 10/35/19 14/37/19
f 7/34/19 10/35/19 9/32/19
f 24/38/20 17/39/21 20/40/22 22/41/23
f 16/42/24 17/43/25 24/44/26 23/45/27
f 19/46/28 18/47/29 21/48/30
f 17/49/21 16/50/31 20/51/22
f 18/52/29 24/38/20 22/41/23 21/53/30
f 23/45/27 24/44/26 18/54/32 19/55/33
f 25/56/34 26/57/35 27/58/36 28/59/37
f 28/60/38 27/61/39 30/62/40
f 26/63/41 25/64/42 29/65/43
f 27/58/39 26/57/41 29/66/43 30/67/40
