# Blender v3.6.5 OBJ File: 'Megaman_Hatsune_Master05.blend'
# www.blender.org
mtllib 20_JET_LEFT_FOOT.mtl
o 20_JET_LEFT_FOOT_12_RIGHT_FOOT.011
v -0.037815 0.008562 0.019039
v 0.014770 0.008562 0.026427
v 0.034525 -0.070034 0.110817
v -0.075839 -0.086498 0.112887
v -0.054054 -0.118275 0.268819
v 0.041683 -0.116878 0.260495
v -0.080132 -0.197925 0.244874
v 0.117793 -0.158551 -0.059878
v 0.038881 -0.197925 0.245529
v -0.099470 -0.198850 0.084242
v 0.032242 -0.001962 -0.021617
v -0.015538 -0.001962 -0.054218
v -0.054054 -0.197925 0.271495
v -0.127240 -0.158551 -0.062389
v -0.058397 -0.001962 -0.019445
v 0.128065 -0.143053 0.073288
v 0.128758 -0.076948 0.008428
v 0.128084 -0.141258 -0.057139
v 0.127390 -0.207388 0.007721
v -0.141973 -0.075036 0.008428
v -0.142647 -0.139370 -0.057139
v -0.143340 -0.205476 0.007721
v -0.142666 -0.141165 0.073288
v -0.012140 -0.172937 -0.116394
v 0.072515 -0.154533 0.091260
v 0.065239 -0.198850 0.080562
vt 0.118619 0.429043
vt 0.123286 0.398084
vt 0.095059 0.403446
vt 0.101493 0.429043
vt 0.150740 0.480425
vt 0.150740 0.539019
vt 0.107772 0.480425
vt 0.107772 0.539019
vt 0.731495 0.159833
vt 0.714824 0.189693
vt 0.801008 0.209601
vt 0.527925 0.159833
vt 0.607674 0.175820
vt 0.599822 0.159833
vt 0.801008 0.159833
vt 0.576822 0.159833
vt 0.490309 0.242779
vt 0.521561 0.242779
vt 0.709847 0.189693
vt 0.706670 0.159833
vt 0.649578 0.189693
vt 0.408158 0.159833
vt 0.454591 0.242779
vt 0.885415 0.159833
vt 0.885415 0.242779
vt 0.964844 0.094172
vt 1.000000 0.094172
vt 0.933594 0.058594
vt 0.750000 0.094172
vt 0.789062 0.062500
vt 0.726562 0.094172
vt 0.537854 0.242779
vt 0.617297 0.212918
vt 0.484164 0.159833
vt 0.649578 0.159833
vt 0.648438 0.617187
vt 0.613281 0.601562
vt 0.593750 0.613281
vt 0.602700 0.679687
vt 0.648438 0.679402
vt 0.648438 0.737451
vt 0.617084 0.745978
vt 0.054444 0.430917
vt 0.078267 0.476948
vt 0.077444 0.389214
vt 0.053595 0.430389
vt 0.054758 0.430917
vt 0.077444 0.389214
vt 0.078267 0.476948
vt 0.053595 0.430389
vt 0.109138 0.432602
vt 0.109138 0.432609
vt 0.108943 0.432609
vt 0.108943 0.432602
vt 0.140649 0.432602
vt 0.140649 0.432609
vt 0.140453 0.432602
vt 0.140453 0.432609
vt 0.590982 0.753076
vt 0.676880 0.189693
vt 0.676880 0.159833
vn -0.0950 0.7179 0.6897
vn -0.1401 0.9662 0.2165
vn 0.0120 0.9544 0.2981
vn -0.9491 0.2552 0.1846
vn 0.9324 -0.2219 0.2852
vn 0.9615 -0.1594 0.2239
vn 0.9566 -0.1714 0.2357
vn -0.9775 0.1759 0.1167
vn 0.5021 0.4542 -0.7359
vn 0.0861 0.0335 0.9957
vn -0.7142 0.0235 0.6996
vn -0.5658 0.4400 -0.6973
vn -0.9206 0.3727 0.1168
vn -0.7794 0.5695 0.2611
vn 0.8663 0.4502 0.2164
vn 0.8791 0.4300 0.2059
vn 0.9146 0.3781 0.1430
vn 0.9106 0.3641 0.1957
vn 0.9016 0.3450 0.2609
vn -0.3716 0.3107 -0.8748
vn -0.0008 0.3417 -0.9398
vn -0.0056 0.3417 -0.9398
vn 0.2645 -0.1840 0.9467
vn -0.9639 0.1460 0.2227
vn 0.0000 -1.0000 0.0049
vn 0.0000 -1.0000 -0.0000
vn -0.0000 -1.0000 0.0039
vn -0.0183 -0.9946 -0.1017
vn -0.0036 -0.9869 -0.1611
vn 0.0833 -0.9852 -0.1498
vn 0.0226 -0.9927 -0.1184
vn 0.9999 -0.0105 0.0000
vn -0.9999 0.0105 -0.0000
vn -0.0050 -0.7115 0.7027
vn -0.0118 -0.9999 -0.0096
vn -0.0023 -1.0000 -0.0096
vn 0.0117 0.9999 0.0096
vn 0.0023 1.0000 0.0096
vn 0.0049 0.6979 0.7162
vn 0.0050 0.7114 -0.7027
vn 0.3463 0.3267 -0.8794
vn -0.2216 -0.9502 -0.2192
vn -0.0049 -0.6979 -0.7162
vn -0.0049 -0.6978 -0.7163
vn 0.9159 0.3934 0.0793
vn 0.9768 -0.1155 0.1805
usemtl m0.012
s 1
f 1/1/1 4/2/1 3/3/1 2/4/1
f 4/5/2 5/6/2 3/7/2
f 5/6/3 6/8/3 3/7/3
f 7/9/4 5/10/4 4/11/4
f 8/12/5 25/13/6 26/14/7
f 10/15/8 7/9/8 4/11/8
f 8/16/9 12/17/9 11/18/9
f 5/19/10 13/20/10 6/21/10
f 13/20/11 5/19/11 7/9/11
f 14/22/12 15/23/12 12/17/12
f 14/24/13 4/11/13 15/25/13
f 1/26/14 15/27/14 4/28/14
f 2/29/15 3/30/15 11/31/15
f 8/12/16 11/32/16 3/33/16
f 3/33/17 25/13/18 8/12/19
f 14/22/20 12/17/21 24/34/22
f 6/21/23 13/20/23 9/35/23
f 10/15/24 4/11/24 14/24/24
f 9/36/25 13/37/26 7/38/27
f 9/36/25 10/39/28 26/40/29
f 8/41/30 10/39/28 24/42/31
f 7/38/27 10/39/28 9/36/25
f 17/43/32 16/44/32 18/45/32
f 18/45/32 16/44/32 19/46/32
f 20/47/33 21/48/33 23/49/33
f 21/48/33 22/50/33 23/49/33
f 16/51/34 23/52/34 22/53/35 19/54/36
f 17/55/37 20/56/38 23/52/39 16/51/39
f 18/57/40 21/58/40 20/56/38 17/55/37
f 12/17/21 8/16/41 24/34/22
f 10/39/28 14/59/42 24/42/31
f 19/54/36 22/53/35 21/58/43 18/57/44
f 25/13/18 3/33/17 6/60/45
f 25/13/6 6/60/46 9/61/46 26/14/7
f 10/39/28 8/41/30 26/40/29
