# Blender 4.1.1
# www.blender.org
mtllib miku.mtl
o 20_JET_LEFT_FOOT
v -0.037815 0.008562 0.019039
v 0.014770 0.008562 0.026427
v 0.039890 -0.070482 0.110817
v -0.075839 -0.082912 0.112887
v -0.054054 -0.118275 0.268819
v 0.039360 -0.116878 0.260495
v -0.067093 -0.199191 0.261459
v 0.093962 -0.127977 -0.080995
v 0.045077 -0.199191 0.254045
v -0.099470 -0.199191 0.033127
v 0.032242 -0.001962 -0.021617
v -0.015538 -0.001962 -0.054218
v -0.103409 -0.127977 -0.080995
v -0.058397 -0.001962 -0.019445
v 0.128074 -0.130363 0.043020
v 0.128074 -0.087606 -0.015839
v 0.128074 -0.130371 -0.074692
v 0.128074 -0.199554 0.020544
v -0.142657 -0.087606 -0.015839
v -0.142657 -0.130371 -0.074692
v -0.142657 -0.199554 0.020544
v -0.142657 -0.130363 0.043020
v -0.012140 -0.107924 -0.108836
v 0.076703 -0.154533 0.091260
v 0.078315 -0.199191 0.029447
v 0.128074 -0.199559 -0.052206
v -0.142657 -0.199559 -0.052206
vn -0.4797 0.7149 0.5088
vn -0.7500 0.5737 0.3292
vn 0.5835 0.7312 0.3534
vn 0.4799 0.7103 0.5149
vn -0.4737 0.4562 0.7533
vn 0.5255 0.4841 0.6997
vn -0.5103 -0.4956 0.7028
vn 0.7548 -0.1889 -0.6282
vn 0.9867 0.0880 0.1369
vn 0.6209 -0.7651 -0.1704
vn -0.7086 -0.6927 -0.1343
vn -0.0486 0.5582 -0.8283
vn 0.8116 0.5398 -0.2232
vn -0.7317 -0.2318 -0.6410
vn -0.8367 0.5125 -0.1932
vn -0.0129 -0.1431 -0.9896
vn 0.5385 -0.5895 0.6021
vn -0.4846 0.0179 -0.8746
vn -0.3782 0.1577 0.9122
vn -0.4731 0.8372 -0.2743
vn 0.4896 -0.5341 -0.6893
vn 0.3957 0.1649 0.9034
vn 0.4731 -0.8385 0.2702
vn 0.4731 0.8372 0.2742
vn 0.4843 0.5000 -0.7180
vn -0.8085 -0.4761 0.3459
vn -0.4730 -0.5160 -0.7141
vt 0.546875 0.964844
vt 0.558594 0.917969
vt 0.519531 0.925781
vt 0.527344 0.964844
vt 0.792969 0.816406
vt 0.792969 0.757812
vt 0.835938 0.816406
vt 0.835938 0.757812
vt 0.718750 0.292969
vt 0.718750 0.316406
vt 0.761719 0.320312
vt 0.648438 0.429688
vt 0.628906 0.503906
vt 0.656250 0.484375
vt 0.781250 0.292969
vt 0.597656 0.406250
vt 0.593750 0.437500
vt 0.722656 0.316406
vt 0.597656 0.507812
vt 0.585938 0.464844
vt 0.648438 0.406250
vt 0.722656 0.292969
vt 0.000000 0.597656
vt 0.062500 0.660156
vt 0.062500 0.597656
vt 0.000000 0.660156
vt 0.207031 0.972656
vt 0.277344 0.972656
vt 0.242188 0.996094
vt 0.222656 0.933594
vt 0.261719 0.933594
vt 0.644531 0.507812
vt 0.644531 0.589844
vt 0.652344 0.589844
vt 0.652344 0.507812
vt 0.636719 0.507812
vt 0.636719 0.589844
vt 0.656250 0.589844
vt 0.656250 0.507812
vt 0.632812 0.507812
vt 0.632812 0.589844
vt 0.640625 0.589844
vt 0.640625 0.507812
vt 0.621094 0.507812
vt 0.621094 0.589844
vt 0.765625 0.308594
vt 0.761719 0.316406
vt 0.785156 0.292969
s 1
usemtl m0
f 1/1/1 4/2/2 3/3/3 2/4/4
f 4/5/2 5/6/5 3/7/3
f 5/6/5 6/8/6 3/7/3
f 7/9/7 5/10/5 4/11/2
f 8/12/8 24/13/9 25/14/10
f 10/15/11 7/9/7 4/11/2
f 8/12/8 12/16/12 11/17/13
f 5/10/5 7/9/7 6/18/6
f 13/12/14 14/17/15 12/16/12
f 13/12/14 4/19/2 14/17/15
f 1/20/1 14/17/15 4/19/2
f 2/20/4 3/19/3 11/17/13
f 8/12/8 11/17/13 3/19/3
f 3/19/3 24/13/9 8/12/8
f 13/12/14 12/16/12 23/21/16
f 6/18/6 7/9/7 9/22/17
f 10/14/11 4/19/2 13/12/14
f 9/23/17 10/24/11 25/25/10
f 7/26/7 10/24/11 9/23/17
f 20/27/18 22/28/19 19/29/20
f 26/30/21 15/28/22 18/31/23
f 16/29/24 15/28/22 17/27/25
f 18/32/23 21/33/26 27/34/27 26/35/21
f 15/36/22 22/37/19 21/38/26 18/39/23
f 16/40/24 19/41/20 22/42/19 15/43/22
f 17/44/25 20/45/18 19/42/20 16/43/24
f 12/16/12 8/12/8 23/21/16
f 13/12/14 8/12/8 25/14/10
f 26/32/21 27/33/27 20/34/18 17/35/25
f 24/46/9 3/47/3 6/18/6
f 24/46/9 9/22/17 25/48/10
f 23/21/16 8/12/8 13/12/14
f 6/18/6 9/22/17 24/46/9
f 13/12/14 25/14/10 10/14/11
f 20/27/18 27/30/27 21/31/26 22/28/19
f 17/27/25 15/28/22 26/30/21
