# Blender 4.0.2
# www.blender.org
mtllib miku.mtl
o 02_BODY
v -0.095711 0.257487 0.015865
v -0.071650 0.229049 -0.114372
v -0.079496 0.069259 0.050391
v 0.000000 0.294575 -0.107941
v -0.065114 0.260097 0.037793
v 0.000000 0.074467 0.106397
v 0.000000 0.074467 -0.048386
v -0.088380 0.068285 -0.000231
v -0.105838 0.302589 -0.064499
v -0.095398 0.172499 0.058446
v -0.065954 0.175602 0.098419
v -0.044145 0.346871 -0.058264
v 0.000000 0.314836 -0.011222
v 0.000000 0.382541 -0.000116
v 0.000000 0.340606 -0.086888
v -0.050542 0.401029 -0.054656
v 0.000000 0.408284 -0.088637
v -0.086884 0.307885 -0.065653
v 0.000000 0.312338 0.043633
v 0.095711 0.257487 0.015865
v 0.071650 0.229049 -0.114372
v 0.079496 0.069259 0.050391
v 0.088380 0.068285 -0.000231
v 0.105838 0.302589 -0.064499
v 0.065114 0.260097 0.037793
v 0.095398 0.172499 0.058446
v 0.044145 0.346871 -0.058264
v 0.050542 0.401029 -0.054656
v 0.086884 0.307885 -0.065653
v 0.065954 0.175602 0.098419
v -0.013513 0.260740 0.040408
v -0.024328 0.175439 0.109320
v 0.013513 0.260740 0.040408
v 0.024328 0.175439 0.109320
v -0.055533 -0.042895 0.170847
v 0.055533 -0.042895 0.170847
v 0.000000 -0.077127 0.171105
vn -0.7840 0.2757 0.5561
vn -0.3281 0.8190 0.4708
vn 0.3095 -0.2484 -0.9179
vn -0.3153 0.4279 -0.8471
vn -0.7875 -0.1676 0.5931
vn -0.9822 0.0812 0.1694
vn -0.3846 -0.5074 -0.7711
vn -0.9712 -0.1631 0.1736
vn -0.5569 -0.0105 -0.8305
vn -0.7549 -0.1175 0.6452
vn -0.5461 -0.0216 -0.8375
vn -0.9118 -0.1704 -0.3737
vn -0.2328 0.6822 -0.6931
vn 0.9118 -0.1704 -0.3737
vn -0.6485 0.6299 0.4275
vn 0.5603 0.8274 0.0377
vn -0.3906 0.5658 -0.7262
vn -0.3543 0.3889 -0.8504
vn -0.5387 -0.2889 0.7915
vn -0.5332 0.4967 0.6848
vn -0.5762 0.6651 0.4750
vn 0.7840 0.2757 0.5561
vn 0.3281 0.8190 0.4708
vn -0.3095 -0.2484 -0.9179
vn 0.3153 0.4279 -0.8471
vn 0.7875 -0.1676 0.5931
vn 0.9822 0.0812 0.1694
vn 0.3846 -0.5074 -0.7711
vn 0.9712 -0.1631 0.1736
vn 0.5569 -0.0105 -0.8305
vn 0.7549 -0.1175 0.6452
vn 0.5461 -0.0216 -0.8375
vn 0.9974 -0.0720 0.0085
vn 0.2328 0.6822 -0.6931
vn 0.6485 0.6299 0.4275
vn -0.5603 0.8274 0.0377
vn 0.3906 0.5658 -0.7262
vn 0.3543 0.3889 -0.8504
vn -0.0000 -0.1111 0.9938
vn -0.0000 0.5830 0.8125
vn -0.0000 0.0786 0.9969
vn 0.5387 -0.2889 0.7915
vn 0.5332 0.4967 0.6848
vn 0.5762 0.6651 0.4750
vn -0.0000 0.0075 1.0000
vn -0.0000 0.6284 0.7779
vn -0.9974 -0.0720 0.0085
vn -0.0000 0.2712 0.9625
vt 0.152344 0.312500
vt 0.171875 0.312500
vt 0.152344 0.367187
vt 0.171875 0.367187
vt 0.171875 0.441406
vt 0.152344 0.441406
vt 0.437500 0.257812
vt 0.500000 0.371094
vt 0.437500 0.410156
vt 0.500000 0.421875
vt 0.152344 0.250000
vt 0.144531 0.250000
vt 0.125000 0.355469
vt 0.500000 0.257812
vt 0.054688 0.367187
vt 0.070313 0.386719
vt 0.527344 1.000000
vt 0.527344 0.960937
vt 0.554688 0.960937
vt 0.488281 1.000000
vt 0.488281 0.960937
vt 0.554688 1.000000
vt 0.089844 0.250000
vt 0.492188 0.425781
vt 0.375000 0.367187
vt 0.339844 0.250000
vt 0.285156 0.250000
vt 0.003906 0.433594
vt 0.003906 0.496094
vt 0.042969 0.433594
vt 0.042969 0.496094
vt 0.070312 0.496094
vt 0.042969 0.378906
vt 0.003906 0.378906
vt 0.214844 0.250000
vt 0.277344 0.312500
vt 0.277344 0.367187
vt 0.257813 0.312500
vt 0.257813 0.367187
vt 0.277344 0.441406
vt 0.257812 0.441406
vt 0.375000 0.371094
vt 0.375000 0.421875
vt 0.277344 0.250000
vt 0.304688 0.355469
vt 0.375000 0.257812
vt 0.359375 0.386719
vt 0.449219 1.000000
vt 0.417969 0.960937
vt 0.449219 0.960937
vt 0.417969 1.000000
vt 0.382812 0.425781
vt 0.003906 0.324219
vt 0.042969 0.324219
vt 0.003906 0.261719
vt 0.070313 0.261719
vt 0.042969 0.261719
vt 0.214844 0.398437
vt 0.679688 0.097656
vt 0.679688 0.156250
vt 0.660156 0.128906
vt 0.878906 0.097656
vt 1.000000 0.097656
vt 1.000000 0.156250
vt 0.878906 0.156250
vt 0.835938 0.097656
vt 0.835938 0.156250
s 0
usemtl m0
f 10/1/1 11/2/1 1/3/1
f 5/4/2 18/5/2 9/6/2 1/3/2
f 7/7/3 2/8/3 4/9/3
f 4/9/4 2/8/4 9/10/4
f 3/11/5 11/2/5 10/1/5
f 1/1/6 9/12/6 10/13/6
f 7/7/7 8/14/7 2/8/7
f 8/15/8 3/16/8 10/13/8
f 12/17/9 16/18/9 17/19/9
f 12/17/10 13/20/10 14/21/10 16/18/10
f 15/22/11 12/17/11 17/19/11
f 2/23/12 8/15/12 9/12/12
f 4/9/13 9/10/13 18/24/13
f 23/25/14 21/26/14 24/27/14
f 18/28/15 5/29/15 12/30/15
f 12/30/16 19/31/16 13/32/16
f 15/33/17 18/28/17 12/30/17
f 4/34/18 18/28/18 15/33/18
f 3/11/19 6/35/19 11/2/19
f 11/2/20 5/4/20 1/3/20
f 12/30/21 5/29/21 19/31/21
f 26/36/22 20/37/22 30/38/22
f 25/39/23 20/37/23 24/40/23 29/41/23
f 7/7/24 4/9/24 21/42/24
f 4/9/25 24/43/25 21/42/25
f 22/44/26 26/36/26 30/38/26
f 20/36/27 26/45/27 24/27/27
f 7/7/28 21/42/28 23/46/28
f 23/25/29 26/45/29 22/47/29
f 27/48/30 17/49/30 28/50/30
f 27/48/31 28/50/31 14/21/31 13/20/31
f 15/51/32 17/49/32 27/48/32
f 26/45/33 23/25/33 24/27/33
f 4/9/34 29/52/34 24/43/34
f 29/53/35 27/54/35 25/55/35
f 27/54/36 13/56/36 19/57/36
f 15/33/37 27/54/37 29/53/37
f 4/34/38 15/33/38 29/53/38
f 25/39/39 19/58/39 5/4/39
f 11/2/40 25/39/40 5/4/40
f 30/38/40 25/39/40 11/2/40
f 6/35/41 30/38/41 11/2/41
f 22/44/42 30/38/42 6/35/42
f 30/38/43 20/37/43 25/39/43
f 27/54/44 19/57/44 25/55/44
f 36/59/45 35/60/45 37/61/45
f 34/62/46 33/63/46 31/64/46 32/65/46
f 8/15/47 10/13/47 9/12/47
f 34/66/48 32/67/48 35/60/48 36/59/48
