# Blender 4.0.2
# www.blender.org
mtllib miku.mtl
o 03_HIPS
v -0.167275 -0.160999 0.132434
v -0.167275 -0.137852 -0.124934
v -0.079496 0.069259 0.050391
v -0.000000 -0.161159 -0.167173
v -0.000000 -0.196372 0.155870
v 0.000000 0.074467 0.106397
v 0.000000 0.074467 -0.048386
v -0.251402 -0.100596 0.000000
v -0.181524 -0.039160 0.000000
v -0.220969 -0.035692 0.000000
v -0.088380 0.068285 -0.000231
v -0.120065 -0.047983 0.106934
v -0.109567 -0.034297 -0.109403
v -0.120486 -0.026447 0.126141
v 0.167275 -0.160999 0.132434
v 0.167275 -0.137852 -0.124934
v 0.079496 0.069259 0.050391
v 0.251402 -0.100596 0.000000
v 0.181524 -0.039160 0.000000
v 0.220969 -0.035692 0.000000
v 0.088380 0.068285 -0.000231
v 0.120065 -0.047983 0.106934
v 0.109567 -0.034297 -0.109403
v 0.120486 -0.026447 0.126141
vn -0.4593 0.6639 0.5902
vn -0.1773 -0.9792 -0.0985
vn -0.6040 0.6870 0.4039
vn -0.0819 0.2518 0.9643
vn -0.0875 -0.9957 -0.0319
vn 0.5593 -0.5457 0.6241
vn -0.4979 -0.8638 -0.0777
vn -0.0871 -0.9910 -0.1013
vn -0.5253 0.6686 -0.5263
vn -0.3742 0.7110 -0.5954
vn -0.6129 0.6971 -0.3721
vn -0.2032 0.2550 -0.9454
vn -0.0000 0.4893 -0.8721
vn -0.6538 -0.5107 0.5583
vn -0.6143 0.7836 0.0928
vn 0.4593 0.6639 0.5902
vn 0.1773 -0.9792 -0.0985
vn 0.6040 0.6870 0.4039
vn 0.0819 0.2518 0.9643
vn -0.0000 0.0044 1.0000
vn 0.0875 -0.9957 -0.0319
vn -0.5593 -0.5457 0.6241
vn 0.4979 -0.8638 -0.0777
vn 0.0871 -0.9910 -0.1013
vn 0.5253 0.6686 -0.5263
vn 0.3742 0.7110 -0.5954
vn 0.6671 0.4597 -0.5863
vn 0.2032 0.2550 -0.9454
vn 0.6538 -0.5107 0.5583
vn 0.6294 0.6298 0.4552
vn -0.0000 0.3132 0.9497
vn -0.0000 0.4144 -0.9101
vn -0.6684 0.4180 0.6152
vn 0.6684 0.4180 0.6152
vn -0.6671 0.4597 -0.5863
vn 0.6129 0.6971 -0.3721
vn -0.6294 0.6298 0.4552
vn 0.6143 0.7836 0.0928
vn -0.0732 0.9973 -0.0063
vn 0.0732 0.9973 -0.0063
vn -0.0000 0.9986 0.0527
vn -0.0000 0.9957 -0.0926
vt 0.019531 0.136719
vt 0.074219 0.136719
vt 0.019531 0.218750
vt 0.054688 0.503906
vt 0.152344 0.480469
vt 0.152344 0.667969
vt 0.054688 0.652344
vt 0.867188 0.246094
vt 0.781250 0.246094
vt 0.781250 0.156250
vt 0.867188 0.156250
vt 0.933594 0.156250
vt 0.085938 0.218750
vt 0.085938 0.246094
vt 0.000000 0.246094
vt 0.000000 0.574219
vt 0.164063 0.218750
vt 0.113281 0.136719
vt 0.226563 0.136719
vt 0.707031 0.246094
vt 0.707031 0.156250
vt 0.640625 0.156250
vt 0.292969 0.218750
vt 0.496094 0.156250
vt 0.496094 0.246094
vt 0.414063 0.246094
vt 0.414062 0.156250
vt 0.324219 0.156250
vt 1.000000 0.246094
vt 0.933594 0.316406
vt 0.574219 0.156250
vt 0.574219 0.246094
s 0
usemtl m0
f 6/1/1 3/2/1 14/3/1
f 2/4/2 4/5/2 5/6/2 1/7/2
f 12/8/3 9/9/3 8/10/3
f 1/11/4 5/12/4 12/8/4
f 10/13/5 9/14/5 12/15/5
f 12/15/6 6/1/6 14/3/6
f 8/16/7 2/4/7 1/7/7
f 10/13/8 13/17/8 9/14/8
f 11/18/9 13/17/9 10/13/9
f 7/19/10 13/17/10 11/18/10
f 8/10/11 9/9/11 13/20/11
f 2/21/12 13/20/12 4/22/12
f 7/19/13 23/17/13 13/23/13
f 12/15/14 14/3/14 10/13/14
f 3/2/15 11/18/15 10/13/15
f 6/1/16 24/3/16 17/2/16
f 16/4/17 15/7/17 5/6/17 4/5/17
f 18/24/18 19/25/18 22/26/18
f 15/27/19 22/26/19 5/28/19
f 12/8/20 22/29/20 6/30/20
f 20/13/21 22/15/21 19/14/21
f 22/15/22 24/3/22 6/1/22
f 18/16/23 15/7/23 16/4/23
f 20/13/24 19/14/24 23/17/24
f 21/18/25 20/13/25 23/17/25
f 7/19/26 21/18/26 23/17/26
f 18/24/27 16/31/27 23/32/27
f 16/31/28 4/22/28 23/32/28
f 22/15/29 20/13/29 24/3/29
f 17/2/30 24/3/30 20/13/30
f 5/12/31 22/29/31 12/8/31
f 23/32/32 4/22/32 13/20/32
f 1/11/33 12/8/33 8/10/33
f 15/27/34 18/24/34 22/26/34
f 2/21/35 8/10/35 13/20/35
f 19/25/36 18/24/36 23/32/36
f 14/3/37 3/2/37 10/13/37
f 21/18/38 17/2/38 20/13/38
f 7/19/39 11/18/39 3/2/39
f 17/2/40 21/18/40 7/19/40
f 7/19/41 3/2/41 17/2/41
f 3/2/42 6/1/42 17/2/42
