# Blender 4.0.2
# www.blender.org
mtllib miku.mtl
o 08_LEFT_ARM
v -0.050636 0.001362 0.000871
v 0.033258 0.001362 0.089368
v 0.106665 0.001362 0.015347
v 0.043521 0.001362 -0.088487
v -0.021395 -0.210649 0.122203
v 0.119839 -0.210649 -0.066919
v 0.116928 -0.210649 0.079673
v -0.033547 -0.210649 -0.114987
v -0.107238 -0.210649 0.001896
vn 0.9983 0.0543 0.0198
vn -0.7797 0.2872 0.5564
vn -0.6516 0.3227 -0.6865
vn 0.2990 0.0106 -0.9542
vn 0.2931 0.0721 0.9534
vn 0.6892 0.2407 0.6834
vn 0.8280 0.2468 -0.5035
vn -0.8256 0.2179 -0.5205
vn -0.7120 0.1934 0.6750
vn -0.0000 1.0000 -0.0000
vt 0.574219 0.429688
vt 0.656250 0.429688
vt 0.656250 0.554687
vt 0.914063 0.429688
vt 0.904761 0.554688
vt 0.828125 0.429688
vt 0.755364 0.554688
vt 0.746094 0.429688
vt 0.828125 0.554688
vt 1.000000 0.429688
vt 1.000000 0.554688
vt 0.755364 0.558757
vt 0.828125 0.558757
vt 0.656250 0.558757
s 0
usemtl m0
f 7/1/1 6/2/1 3/3/1
f 5/4/2 2/5/2 9/6/2
f 4/7/3 8/8/3 1/9/3
f 6/2/4 8/8/4 4/7/4
f 5/4/5 7/10/5 2/5/5
f 2/5/6 7/10/6 3/11/6
f 3/3/7 6/2/7 4/7/7
f 8/8/8 9/6/8 1/9/8
f 2/5/9 1/9/9 9/6/9
f 4/12/10 1/13/10 3/14/10
