# Blender 4.0.2
# www.blender.org
mtllib miku.mtl
o 10_LEG_RIGHT_TOP
v -0.044095 0.020948 0.086824
v 0.020548 -0.007424 -0.067808
v 0.062566 -0.024376 0.088570
v -0.005802 -0.330741 0.064891
v 0.017236 -0.313477 -0.049809
v 0.048247 -0.325533 0.063145
v -0.071257 0.040366 -0.004026
v 0.087176 -0.034027 -0.018997
v 0.072347 -0.313477 -0.009491
v -0.033647 -0.319409 0.003816
vn -0.9592 -0.0945 0.2666
vn 0.5759 -0.0542 -0.8157
vn -0.0182 -0.0730 0.9972
vn 0.9641 -0.0555 0.2598
vn -0.5845 -0.0413 -0.8103
vn -0.9114 -0.1237 0.3925
vn -0.7175 -0.0901 -0.6907
vn 0.5894 -0.0587 -0.8057
vn 0.0521 -0.9835 -0.1735
vt 0.558594 0.859375
vt 0.558594 0.808594
vt 0.765625 0.808594
vt 0.765625 1.000000
vt 0.578125 1.000000
vt 0.601562 0.949219
vt 0.765625 0.902344
vt 0.585938 0.902344
vt 0.765625 0.859375
vt 0.765625 0.949219
vt 0.578125 0.757812
vt 0.765625 0.757812
vt 0.761011 0.859375
vt 0.761011 0.808594
vt 0.761011 0.949219
vt 0.761011 0.902344
s 0
usemtl m0
f 1/1/1 7/2/1 10/3/1
f 5/4/2 2/5/2 8/6/2
f 6/7/3 3/8/3 1/1/3 4/9/3
f 9/10/4 8/6/4 3/8/4 6/7/4
f 7/2/5 2/11/5 5/12/5
f 4/9/6 1/1/6 10/3/6
f 10/3/7 7/2/7 5/12/7
f 9/10/8 5/4/8 8/6/8
f 4/13/9 10/14/9 9/15/9 6/16/9
