# Blender 4.0.2
# www.blender.org
mtllib miku.mtl
o 14_LEG_LEFT_BOTTOM
v 0.014770 -0.391438 0.026427
v -0.037815 -0.391438 0.019039
v -0.014508 -0.401962 -0.054218
v 0.005802 -0.030741 0.064891
v -0.017236 -0.013477 -0.049809
v -0.048247 -0.025533 0.063145
v 0.032242 -0.401962 -0.021617
v -0.058397 -0.401962 -0.019445
v -0.072347 -0.013477 -0.009491
v 0.033647 -0.019408 0.003816
v -0.011276 -0.115637 -0.083052
v 0.053378 -0.141678 -0.007322
vn 0.7544 0.2094 -0.6221
vn 0.8972 0.1057 0.4287
vn -0.5756 0.2225 -0.7869
vn -0.7322 -0.0307 -0.6804
vn 0.8509 -0.0610 0.5219
vn 0.6902 -0.0500 -0.7218
vn -0.9266 -0.0566 0.3718
vn -0.0903 -0.1148 0.9893
vn 0.0521 0.9835 0.1735
vt 0.839844 0.808594
vt 0.824219 0.757812
vt 0.765625 0.757812
vt 0.765625 0.808594
vt 0.765625 0.859375
vt 0.824219 1.000000
vt 0.765625 0.949219
vt 0.765625 1.000000
vt 1.000000 1.000000
vt 1.000000 0.949219
vt 0.765625 0.949219
vt 1.000000 0.859375
vt 1.000000 0.808594
vt 1.000000 0.757812
vt 1.000000 0.902344
vt 0.765625 0.902344
vt 0.761626 0.859375
vt 0.761626 0.808594
vt 0.761626 0.949219
vt 0.761626 0.902344
s 0
usemtl m0
f 12/1/1 11/2/1 5/3/1 10/4/1
f 4/5/2 12/1/2 10/4/2
f 11/6/3 9/7/3 5/8/3
f 3/9/4 8/10/4 9/11/4 11/6/4
f 1/12/5 7/13/5 12/1/5 4/5/5
f 7/13/6 3/14/6 11/2/6 12/1/6
f 8/10/7 2/15/7 6/16/7 9/11/7
f 2/15/8 1/12/8 4/5/8 6/16/8
f 4/17/9 10/18/9 9/19/9 6/20/9
