# Blender v3.6.5 OBJ File: ''
# www.blender.org
mtllib PL00R0A_001.mtl
o PL00R0A_001(BladeArm).OBJ.002_08_LEFT_ARM.001
v 0.106665 0.001362 0.015347
v 0.123921 -0.348691 -0.101250
v 0.043521 0.001362 -0.088487
v -0.039845 -0.348691 -0.145000
v -0.159093 -0.348691 -0.007028
v -0.050636 0.001362 0.000871
v 0.119968 -0.348691 0.104403
v -0.045407 -0.348691 0.154274
v 0.033258 0.001362 0.089368
v 0.027142 -0.392719 -0.100171
v 0.029750 -0.469635 -0.023667
v -0.069035 -0.443779 0.033835
v -0.072598 -0.338659 -0.070722
v 0.084490 -0.328841 -0.084540
v 0.088623 -0.450757 0.036723
v 0.079359 -0.323170 0.091294
v -0.077949 -0.321844 0.078429
v -0.000189 -0.332072 -0.007565
v 0.053203 -0.342121 -0.022521
v 0.046117 -0.320579 0.011464
v 0.016258 -0.895362 0.488366
v 0.079622 -0.855530 0.506455
v 0.109796 -1.146950 0.459496
v 0.101336 -1.089697 0.550001
v 0.003001 -1.123964 0.494620
v 0.097709 -1.081919 0.304482
v 0.100792 -1.131700 0.385421
v 0.015177 -1.077682 0.334989
v 0.095805 -0.950193 0.547437
v 0.085859 -0.885908 0.305949
v 0.004421 -0.869792 0.334267
v 0.092833 -0.999828 0.380400
v 0.004655 -0.865378 0.329492
v 0.078690 -0.838062 0.368185
v 0.086236 -0.916867 0.422626
vt 0.183261 0.385876
vt 0.003037 0.385876
vt 0.183262 0.409281
vt 0.003037 0.409133
vt 0.003037 0.432390
vt 0.183262 0.432390
vt 0.003037 0.381396
vt 0.003037 0.394866
vt 0.183261 0.394866
vt 0.003037 0.460932
vt 0.183262 0.460453
vt 0.874291 0.366466
vt 0.927739 0.366466
vt 0.942129 0.419914
vt 0.861957 0.419914
vt 0.861957 0.337686
vt 0.942129 0.337686
vt 0.003037 0.478903
vt 0.923553 0.392210
vt 0.923553 0.383934
vt 0.923553 0.383934
vt 0.923553 0.392210
vt 0.923189 0.389360
vt 0.919587 0.389360
vt 0.923189 0.389360
vt 0.939255 0.193390
vt 0.986607 0.194300
vt 0.998091 0.232378
vt 0.929182 0.231097
vt 0.960950 0.258555
vt 0.919587 0.393053
vt 0.923189 0.393053
vt 0.923189 0.393053
vt 0.551200 0.201230
vt 0.547259 0.202267
vt 0.948537 0.188353
vt 0.946651 0.188353
vt 0.948537 0.182630
vt 0.948712 0.131695
vt 0.953115 0.130986
vt 0.944861 0.182630
vt 0.183261 0.396130
vt 0.183262 0.422953
vt 0.183262 0.442644
vt 0.183262 0.463383
vt 0.183262 0.478903
vt 0.544339 0.184987
vt 0.547302 0.184205
vt 0.540870 0.193422
vt 0.537192 0.195754
vt 0.565464 0.198800
vt 0.545387 0.198800
vt 0.556450 0.198800
vt 0.560940 0.188440
vt 0.556094 0.192368
vt 0.558876 0.188090
vt 0.944861 0.188353
vt 0.554210 0.201147
vt 0.551824 0.192718
vt 0.548325 0.184116
vt 0.560171 0.194589
vt 0.557389 0.198866
vt 0.953660 0.121043
vt 0.951604 0.125646
vt 0.955128 0.129541
vt 0.958198 0.127053
vt 0.555070 0.185451
vt 0.562235 0.194939
vt 0.947499 0.124600
vt 0.946862 0.120749
vt 0.942335 0.127569
vt 0.945966 0.129906
vt 0.545345 0.191065
vt 0.542926 0.199442
vt 0.539575 0.186924
vt 0.541631 0.192943
vt 0.535897 0.189255
vn 0.9645 0.2635 0.0182
vn 0.7479 0.4517 -0.4864
vn 0.9503 0.2702 -0.1547
vn -0.7473 0.1560 -0.6459
vn -0.8008 0.3466 -0.4884
vn -0.6537 0.3132 -0.6889
vn -0.6537 0.3131 -0.6889
vn 0.9997 0.0110 0.0195
vn 0.9983 0.0542 0.0198
vn -0.7136 0.1818 0.6765
vn -0.7715 0.3302 0.5438
vn -0.7782 0.3217 0.5394
vn -0.5107 -0.6149 -0.6008
vn 0.6943 -0.4956 -0.5219
vn -0.0478 -0.9391 0.3402
vn -0.1029 0.3226 -0.9409
vn 0.0839 0.1895 0.9783
vn 0.1128 0.1657 0.9797
vn 0.1160 0.0880 0.9893
vn -0.0557 -0.3754 0.9252
vn -0.0580 -0.3691 0.9276
vn -0.0194 -0.3941 0.9189
vn -0.0964 -0.4130 0.9056
vn 0.9976 0.0644 0.0255
vn 0.6781 0.1306 -0.7232
vn 0.9953 0.0969 0.0043
vn 0.0000 -1.0000 -0.0000
vn -0.8247 0.0024 -0.5656
vn -0.9976 -0.0636 -0.0257
vn -0.9971 -0.0201 -0.0739
vn -0.6568 0.3339 0.6761
vn -0.5974 0.4874 0.6368
vn -0.4194 0.4312 0.7988
vn -0.4200 0.4337 0.7972
vn 0.9894 0.1386 -0.0424
vn 0.9899 0.1124 -0.0861
vn 0.9794 0.1963 -0.0471
vn 0.9929 0.1176 -0.0184
vn 0.4957 0.8518 -0.1695
vn -0.3159 0.9292 0.1917
vn 0.1076 0.9941 -0.0160
vn -0.1167 0.9931 0.0092
vn 0.4055 -0.2421 -0.8814
vn 0.0018 0.0868 -0.9962
vn -0.0855 0.0900 -0.9923
vn 0.6082 0.0849 0.7892
vn 0.6478 0.3778 0.6615
vn 0.8781 0.2823 0.3864
vn -0.2552 0.5900 -0.7660
vn 0.8011 0.5984 -0.0097
vn 0.1565 0.5662 -0.8092
vn -0.2516 0.5463 -0.7989
vn -0.0146 -0.7843 0.6203
vn -0.0521 -0.8842 0.4643
vn -0.1650 -0.8187 0.5500
vn -0.3242 -0.9285 -0.1811
vn -0.2503 -0.6753 -0.6937
vn 0.4853 -0.8508 -0.2014
vn -0.3016 -0.4547 -0.8380
vn -0.4509 -0.4712 -0.7581
vn -0.4267 -0.5889 -0.6864
vn -0.3017 -0.4569 -0.8368
vn -0.5243 -0.2511 0.8137
vn 0.7725 0.1110 0.6252
vn 0.0004 0.5734 0.8193
vn -0.6592 0.1277 0.7411
vn 0.9237 0.2820 0.2592
vn 0.9811 -0.1924 -0.0190
vn 0.9528 0.3017 -0.0343
vn 0.9201 0.3423 0.1902
vn 0.3412 -0.3886 -0.8559
vn -0.2741 -0.4705 -0.8388
vn -0.6121 0.1342 -0.7793
vn 0.3583 0.3098 -0.8807
vn 0.9007 0.2133 -0.3784
vn 0.4182 -0.0795 0.9049
vn 0.6200 -0.7126 0.3283
vn 0.8961 0.2183 -0.3865
vn 0.5677 -0.6027 0.5607
vn -0.3521 -0.9118 0.2115
vn -0.6755 -0.6442 -0.3588
vn 0.7540 -0.6566 -0.0184
vn 0.7662 0.3535 0.5366
vn -0.4563 0.6180 0.6402
vn -0.9273 -0.2982 0.2262
usemtl Green.002
s 1
f 1/1/1 2/2/2 3/3/3
f 4/4/4 5/5/5 6/6/6 3/3/7
f 7/7/8 2/8/8 1/9/9
f 6/6/10 5/5/11 8/10/12 9/11/10
f 10/12/13 11/13/13 12/14/13 13/15/13
f 11/13/14 10/12/14 14/16/14 15/17/14
f 11/13/15 15/17/15 12/14/15
f 10/12/16 13/15/16 14/16/16
f 8/10/17 7/18/18 9/11/19
f 12/19/20 15/20/21 16/21/22 17/22/23
f 15/23/24 14/24/25 16/25/26
f 2/26/27 7/27/27 8/28/27 4/29/27
f 5/30/27 4/29/27 8/28/27
f 13/31/28 12/32/29 17/33/30
f 25/34/31 24/35/32 20/36/33 18/37/34
f 20/38/35 24/39/36 23/40/37 19/41/38
f 1/42/39 3/43/40 6/44/41 9/45/42
f 3/3/43 2/2/44 4/4/45
f 9/11/46 7/18/47 1/46/48
f 34/47/49 33/48/50 21/49/51 22/50/52
f 23/51/53 24/52/54 25/53/55
f 26/54/56 27/55/57 28/56/58
f 19/57/59 23/58/60 25/34/61 18/37/62
f 32/59/63 31/60/64 28/61/65 27/62/66
f 30/63/67 32/64/68 27/65/69 26/66/70
f 31/60/71 30/67/72 26/68/73 28/61/74
f 35/69/75 34/70/76 22/71/77 29/72/78
f 33/48/79 35/73/80 29/74/81 21/49/82
f 21/75/83 29/76/84 22/77/85
