# Blender v3.6.5 OBJ File: 'Megaman_Hatsune_Master05.blend'
# www.blender.org
mtllib PL00R01_002.mtl
o PL00R02_002(CrusherHand).OBJ.001_megaman.003
v -0.046250 -0.075000 0.052500
v -0.072500 -0.178750 0.057500
v -0.011250 -0.160000 0.118750
v -0.011250 -0.160000 0.118750
v -0.072500 -0.178750 0.057500
v 0.007500 -0.178750 0.057500
v 0.048750 -0.142500 0.107500
v 0.007500 -0.178750 0.057500
v 0.030000 -0.075000 0.052500
v 0.023750 -0.237500 0.121250
v 0.031250 -0.243750 0.097500
v 0.046250 -0.230000 0.116250
v -0.072500 -0.178750 -0.080000
v -0.072500 -0.178750 0.057500
v -0.046250 -0.075000 -0.052500
v -0.046250 -0.075000 -0.052500
v -0.072500 -0.178750 0.057500
v -0.046250 -0.075000 0.052500
v -0.072500 -0.178750 -0.080000
v -0.046250 -0.075000 -0.052500
v 0.007500 -0.178750 -0.080000
v 0.007500 -0.178750 -0.080000
v -0.046250 -0.075000 -0.052500
v 0.028750 -0.075000 -0.052500
v 0.025000 -0.281250 0.037500
v -0.012500 -0.298750 0.032500
v 0.025000 -0.281250 -0.065000
v 0.025000 -0.281250 -0.065000
v -0.012500 -0.298750 0.032500
v -0.012500 -0.298750 -0.062500
v -0.072500 -0.178750 0.057500
v -0.072500 -0.178750 -0.080000
v -0.012500 -0.298750 0.032500
v -0.012500 -0.298750 0.032500
v -0.072500 -0.178750 -0.080000
v -0.012500 -0.298750 -0.062500
v 0.007500 -0.178750 0.057500
v 0.025000 -0.281250 0.037500
v 0.007500 -0.178750 -0.080000
v 0.007500 -0.178750 -0.080000
v 0.025000 -0.281250 0.037500
v 0.025000 -0.281250 -0.065000
v -0.072500 -0.178750 0.057500
v -0.012500 -0.298750 0.032500
v 0.007500 -0.178750 0.057500
v 0.007500 -0.178750 0.057500
v -0.012500 -0.298750 0.032500
v 0.025000 -0.281250 0.037500
v -0.072500 -0.178750 -0.080000
v 0.007500 -0.178750 -0.080000
v -0.012500 -0.298750 -0.062500
v -0.012500 -0.298750 -0.062500
v 0.007500 -0.178750 -0.080000
v 0.025000 -0.281250 -0.065000
v 0.007500 -0.178750 -0.080000
v 0.028750 -0.075000 -0.052500
v 0.007500 -0.178750 0.057500
v 0.007500 -0.178750 0.057500
v 0.028750 -0.075000 -0.052500
v 0.030000 -0.075000 0.052500
v -0.046250 -0.075000 0.052500
v -0.011250 -0.160000 0.118750
v 0.030000 -0.075000 0.052500
v 0.030000 -0.075000 0.052500
v -0.011250 -0.160000 0.118750
v 0.048750 -0.142500 0.107500
v 0.048750 -0.142500 0.107500
v 0.046250 -0.230000 0.116250
v 0.007500 -0.178750 0.057500
v 0.007500 -0.178750 0.057500
v 0.046250 -0.230000 0.116250
v 0.031250 -0.243750 0.097500
v 0.048750 -0.142500 0.107500
v -0.011250 -0.160000 0.118750
v 0.046250 -0.230000 0.116250
v 0.046250 -0.230000 0.116250
v -0.011250 -0.160000 0.118750
v 0.023750 -0.237500 0.121250
v -0.011250 -0.160000 0.118750
v 0.007500 -0.178750 0.057500
v 0.023750 -0.237500 0.121250
v 0.023750 -0.237500 0.121250
v 0.007500 -0.178750 0.057500
v 0.031250 -0.243750 0.097500
vt 0.959465 0.232799
vt 0.959465 0.216349
vt 0.964948 0.216349
vt 0.964948 0.210865
vt 0.959465 0.210865
vt 0.964948 0.210865
vt 0.964948 0.216349
vt 0.964948 0.205382
vt 0.964948 0.232799
vt 0.909008 0.409217
vt 0.909008 0.409217
vt 0.909008 0.409217
vt 0.977249 0.344706
vt 0.977249 0.417624
vt 0.946801 0.354008
vt 0.946801 0.354008
vt 0.977249 0.417624
vt 0.946801 0.409098
vt 0.959465 0.216349
vt 0.959465 0.232799
vt 0.964948 0.216349
vt 0.964948 0.216349
vt 0.959465 0.232799
vt 0.964948 0.232799
vt 0.864207 0.380232
vt 0.864207 0.380232
vt 0.928236 0.380232
vt 0.928236 0.380232
vt 0.864207 0.380232
vt 0.928236 0.380232
vt 0.938068 0.409319
vt 0.863576 0.409319
vt 0.927640 0.365055
vt 0.927640 0.365055
vt 0.863576 0.409319
vt 0.874003 0.365055
vt 0.864705 0.410851
vt 0.872314 0.363034
vt 0.929671 0.410851
vt 0.929671 0.410851
vt 0.872314 0.363034
vt 0.922061 0.363034
vt 0.925410 0.366529
vt 0.921385 0.362012
vt 0.918388 0.366529
vt 0.918388 0.366529
vt 0.921385 0.362012
vt 0.919045 0.362012
vt 0.923069 0.366529
vt 0.918388 0.366529
vt 0.919045 0.362012
vt 0.919045 0.362012
vt 0.918388 0.366529
vt 0.919045 0.362012
vt 0.970432 0.216349
vt 0.970432 0.232799
vt 0.964948 0.205382
vt 0.964948 0.205382
vt 0.970432 0.232799
vt 0.964948 0.232799
vt 0.959465 0.232799
vt 0.964948 0.216349
vt 0.964948 0.232799
vt 0.964948 0.232799
vt 0.964948 0.216349
vt 0.964948 0.216349
vt 0.932130 0.378497
vt 0.932130 0.384856
vt 0.933038 0.378497
vt 0.933038 0.378497
vt 0.932130 0.384856
vt 0.932584 0.384856
vt 0.933038 0.378497
vt 0.931676 0.378497
vt 0.933038 0.384856
vt 0.933038 0.384856
vt 0.931676 0.378497
vt 0.931676 0.384856
vt 0.931676 0.378497
vt 0.933038 0.378497
vt 0.931676 0.384856
vt 0.931676 0.384856
vt 0.933038 0.378497
vt 0.933038 0.384856
vn -0.7227 0.2145 0.6570
vn 0.0000 -0.9562 0.2927
vn 0.8226 -0.2040 -0.5308
vn 0.3648 -0.8656 0.3430
vn -0.9695 0.2453 0.0000
vn 0.0000 0.2562 -0.9666
vn 0.4229 -0.9062 0.0000
vn -0.8944 -0.4472 0.0000
vn 0.9857 0.1683 0.0000
vn 0.0000 -0.2040 0.9790
vn -0.0384 -0.1977 0.9795
vn 0.0000 -0.1443 -0.9895
vn 0.0015 -0.1445 -0.9895
vn 0.9797 -0.2007 0.0000
vn 0.9771 -0.2125 -0.0116
vn 0.0000 0.6147 0.7887
vn -0.0362 0.6252 0.7796
vn 0.7973 -0.0826 -0.5979
vn 0.8034 -0.0703 -0.5912
vn 0.1570 0.0938 0.9831
vn 0.1796 0.1126 0.9773
vn -0.8993 -0.4110 -0.1495
vn -0.8881 -0.4278 -0.1679
usemtl Green
s 1
f 1/1/1 2/2/1 3/3/1
f 4/4/2 5/5/2 6/6/2
f 7/7/3 8/8/3 9/9/3
f 10/10/4 11/11/4 12/12/4
f 13/13/5 14/14/5 15/15/5
f 16/16/5 17/17/5 18/18/5
f 19/19/6 20/20/6 21/21/6
f 22/22/6 23/23/6 24/24/6
f 25/25/7 26/26/7 27/27/7
f 28/28/7 29/29/7 30/30/7
f 31/31/8 32/32/8 33/33/8
f 34/34/8 35/35/8 36/36/8
f 37/37/9 38/38/9 39/39/9
f 40/40/9 41/41/9 42/42/9
f 43/43/10 44/44/10 45/45/10
f 46/46/11 47/47/11 48/48/11
f 49/49/12 50/50/12 51/51/12
f 52/52/13 53/53/13 54/54/13
f 55/55/14 56/56/14 57/57/14
f 58/58/15 59/59/15 60/60/15
f 61/61/16 62/62/16 63/63/16
f 64/64/17 65/65/17 66/66/17
f 67/67/18 68/68/18 69/69/18
f 70/70/19 71/71/19 72/72/19
f 73/73/20 74/74/20 75/75/20
f 76/76/21 77/77/21 78/78/21
f 79/79/22 80/80/22 81/81/22
f 82/82/23 83/83/23 84/84/23
