# Blender v3.6.5 OBJ File: ''
# www.blender.org
mtllib PL00R0A_001.mtl
o PL00R0A_001(BladeArm).OBJ.002_08_LEFT_ARM.001
v 0.106665 0.001362 0.015347
v 0.123921 -0.348691 -0.101250
v 0.043521 0.001362 -0.088487
v -0.039845 -0.348691 -0.145000
v -0.159093 -0.348691 -0.007028
v -0.050636 0.001362 0.000871
v 0.119968 -0.348691 0.104403
v -0.045407 -0.348691 0.154274
v 0.033258 0.001362 0.089368
v 0.027142 -0.392719 -0.100171
v 0.029750 -0.469635 -0.023667
v -0.069035 -0.443779 0.033835
v -0.072598 -0.338659 -0.070722
v 0.084490 -0.328841 -0.084540
v 0.088623 -0.450757 0.036723
v 0.079359 -0.323170 0.091294
v -0.077949 -0.321844 0.078429
v -0.025192 -0.333010 -0.009704
v 0.068215 -0.351531 -0.040316
v 0.056749 -0.307072 0.029769
v -0.008622 -0.902104 0.541550
v 0.074596 -0.849465 0.562313
v 0.123186 -1.167136 0.452875
v 0.111416 -1.090239 0.572995
v -0.017557 -1.137045 0.500682
v 0.092516 -1.115184 0.269392
v 0.092867 -1.170503 0.369769
v -0.012397 -1.111962 0.310728
v 0.088134 -0.965958 0.607729
v 0.089074 -0.867490 0.304952
v 0.006460 -0.852041 0.333009
v 0.098486 -0.996995 0.394253
v -0.007173 -0.853066 0.331123
v 0.072817 -0.822570 0.369076
v 0.091939 -0.928841 0.420957
vt 0.183261 0.385876
vt 0.003037 0.385876
vt 0.183262 0.409281
vt 0.003037 0.409133
vt 0.003037 0.432390
vt 0.183262 0.432390
vt 0.003037 0.381396
vt 0.003037 0.394866
vt 0.183261 0.394866
vt 0.003037 0.460932
vt 0.183262 0.460453
vt 0.874291 0.366466
vt 0.927739 0.366466
vt 0.942129 0.419914
vt 0.861957 0.419914
vt 0.861957 0.337686
vt 0.942129 0.337686
vt 0.003037 0.478903
vt 0.923553 0.392210
vt 0.923553 0.383934
vt 0.923553 0.383934
vt 0.923553 0.392210
vt 0.923189 0.389360
vt 0.919587 0.389360
vt 0.923189 0.389360
vt 0.939255 0.193390
vt 0.986607 0.194300
vt 0.998091 0.232378
vt 0.929182 0.231097
vt 0.960950 0.258555
vt 0.919587 0.393053
vt 0.923189 0.393053
vt 0.923189 0.393053
vt 0.948417 0.127316
vt 0.944476 0.128353
vt 0.944459 0.141545
vt 0.947078 0.141545
vt 0.948720 0.138040
vt 0.948712 0.128094
vt 0.953115 0.127385
vt 0.952124 0.138040
vt 0.183261 0.396130
vt 0.183262 0.422953
vt 0.183262 0.442644
vt 0.183262 0.463383
vt 0.183262 0.478903
vt 0.947477 0.133348
vt 0.949024 0.133756
vt 0.945538 0.128831
vt 0.943745 0.128889
vt 0.951779 0.128495
vt 0.942440 0.128495
vt 0.947586 0.128495
vt 0.954863 0.128118
vt 0.952333 0.126067
vt 0.953786 0.128301
vt 0.950133 0.141545
vt 0.951427 0.127233
vt 0.951385 0.130474
vt 0.949558 0.133803
vt 0.954334 0.128222
vt 0.953009 0.127264
vt 0.951290 0.129707
vt 0.950478 0.128466
vt 0.951037 0.126432
vt 0.952640 0.127731
vt 0.953080 0.133106
vt 0.953770 0.129314
vt 0.949355 0.129012
vt 0.949022 0.129861
vt 0.946658 0.127462
vt 0.948554 0.126242
vt 0.948002 0.130174
vt 0.946739 0.126963
vt 0.945473 0.129927
vt 0.946547 0.126784
vt 0.943553 0.128710
vn 0.9645 0.2635 0.0182
vn 0.7479 0.4517 -0.4864
vn 0.9503 0.2702 -0.1547
vn -0.7473 0.1560 -0.6459
vn -0.8008 0.3466 -0.4884
vn -0.6537 0.3132 -0.6889
vn -0.6537 0.3131 -0.6889
vn 0.9997 0.0110 0.0195
vn 0.9983 0.0542 0.0198
vn -0.7136 0.1818 0.6765
vn -0.7715 0.3302 0.5438
vn -0.7782 0.3217 0.5394
vn -0.5107 -0.6149 -0.6008
vn 0.6943 -0.4956 -0.5219
vn -0.0478 -0.9391 0.3402
vn -0.1029 0.3226 -0.9409
vn 0.0839 0.1895 0.9783
vn 0.1128 0.1657 0.9797
vn 0.1160 0.0880 0.9893
vn -0.0557 -0.3754 0.9252
vn -0.0580 -0.3691 0.9276
vn -0.0194 -0.3941 0.9189
vn -0.0964 -0.4130 0.9056
vn 0.9976 0.0644 0.0255
vn 0.6781 0.1306 -0.7232
vn 0.9953 0.0969 0.0043
vn 0.0000 -1.0000 -0.0000
vn -0.8247 0.0024 -0.5656
vn -0.9976 -0.0636 -0.0257
vn -0.9971 -0.0201 -0.0739
vn -0.6722 0.3220 0.6667
vn -0.6138 0.4773 0.6289
vn -0.4359 0.4231 0.7943
vn -0.4395 0.4280 0.7897
vn 0.9897 0.1360 -0.0446
vn 0.9902 0.1090 -0.0870
vn 0.9800 0.1929 -0.0488
vn 0.9933 0.1142 -0.0188
vn 0.4957 0.8518 -0.1695
vn -0.3159 0.9292 0.1917
vn 0.1076 0.9941 -0.0160
vn -0.1167 0.9931 0.0092
vn 0.4055 -0.2421 -0.8814
vn 0.0018 0.0868 -0.9962
vn -0.0855 0.0900 -0.9923
vn 0.6082 0.0849 0.7892
vn 0.6478 0.3778 0.6615
vn 0.8781 0.2823 0.3864
vn -0.2813 0.5782 -0.7659
vn 0.7924 0.6090 -0.0339
vn 0.2020 0.5882 -0.7831
vn -0.2568 0.5526 -0.7929
vn -0.0055 -0.7805 0.6251
vn -0.0424 -0.8818 0.4698
vn -0.1556 -0.8165 0.5560
vn -0.3123 -0.9386 -0.1465
vn -0.2284 -0.7075 -0.6688
vn 0.5098 -0.8397 -0.1870
vn -0.3178 -0.4539 -0.8324
vn -0.4657 -0.4704 -0.7496
vn -0.4413 -0.5882 -0.6777
vn -0.3191 -0.4564 -0.8306
vn -0.6124 -0.2905 0.7352
vn 0.6932 0.0720 0.7172
vn -0.0132 0.5162 0.8564
vn -0.7154 0.0746 0.6947
vn 0.9520 0.2188 0.2140
vn 0.9628 -0.2470 -0.1093
vn 0.9692 0.2426 -0.0430
vn 0.9457 0.2759 0.1719
vn 0.3299 -0.3058 -0.8931
vn -0.2903 -0.3430 -0.8933
vn -0.6048 0.2563 -0.7540
vn 0.3753 0.3899 -0.8409
vn 0.8976 0.2878 -0.3339
vn 0.4163 -0.0787 0.9058
vn 0.6018 -0.7266 0.3316
vn 0.9155 0.2189 -0.3376
vn 0.5836 -0.6833 0.4387
vn -0.4239 -0.8828 0.2024
vn -0.6983 -0.6159 -0.3649
vn 0.7570 -0.6524 -0.0371
vn 0.7821 0.3588 0.5095
vn -0.4121 0.6218 0.6660
vn -0.9165 -0.3052 0.2585
usemtl None
s 1
f 1/1/1 2/2/2 3/3/3
f 4/4/4 5/5/5 6/6/6 3/3/7
f 7/7/8 2/8/8 1/9/9
f 6/6/10 5/5/11 8/10/12 9/11/10
f 10/12/13 11/13/13 12/14/13 13/15/13
f 11/13/14 10/12/14 14/16/14 15/17/14
f 11/13/15 15/17/15 12/14/15
f 10/12/16 13/15/16 14/16/16
f 8/10/17 7/18/18 9/11/19
f 12/19/20 15/20/21 16/21/22 17/22/23
f 15/23/24 14/24/25 16/25/26
f 2/26/27 7/27/27 8/28/27 4/29/27
f 5/30/27 4/29/27 8/28/27
f 13/31/28 12/32/29 17/33/30
f 25/34/31 24/35/32 20/36/33 18/37/34
f 20/38/35 24/39/36 23/40/37 19/41/38
f 1/42/39 3/43/40 6/44/41 9/45/42
f 3/3/43 2/2/44 4/4/45
f 9/11/46 7/18/47 1/46/48
f 34/47/49 33/48/50 21/49/51 22/50/52
f 23/51/53 24/52/54 25/53/55
f 26/54/56 27/55/57 28/56/58
f 19/57/59 23/58/60 25/34/61 18/37/62
f 32/59/63 31/60/64 28/61/65 27/62/66
f 30/63/67 32/64/68 27/65/69 26/66/70
f 31/60/71 30/67/72 26/68/73 28/61/74
f 35/69/75 34/70/76 22/71/77 29/72/78
f 33/48/79 35/73/80 29/74/81 21/49/82
f 21/75/83 29/76/84 22/77/85
