# Blender v3.6.5 OBJ File: 'Megaman_Hatsune_Master05.blend'
# www.blender.org
mtllib PL00R02_001.mtl
o PL00R02_001(Crusher).OBJ.003_megaman.075
v 0.140417 -0.270000 -0.000000
v -0.069297 -0.270000 -0.122181
v 0.051760 -0.186250 -0.090345
v 0.046250 0.003750 -0.080000
v -0.046250 0.003750 -0.080000
v -0.102580 -0.186250 0.000000
v -0.091250 0.003750 0.000000
v 0.046250 0.003750 0.080000
v 0.051760 -0.186250 0.090345
v -0.051760 -0.186250 0.090345
v -0.046250 0.003750 0.080000
v 0.091250 0.003750 0.000000
v -0.069297 -0.270000 0.122181
v -0.140417 -0.270000 -0.000000
v 0.069297 -0.270000 -0.122181
v -0.051760 -0.186250 -0.090345
v 0.069297 -0.270000 0.122181
v 0.102580 -0.186250 0.000000
vt 0.995806 0.223869
vt 0.980181 0.251213
vt 0.933306 0.223869
vt 0.948931 0.251213
vt 0.888672 0.189453
vt 0.888793 0.251953
vt 0.865520 0.189453
vt 0.867492 0.251953
vt 0.993413 0.221108
vt 0.930913 0.221108
vt 0.977788 0.193571
vt 0.946538 0.193571
vt 0.849579 0.189453
vt 0.851855 0.251953
vt 0.884990 0.189453
vt 0.883770 0.251953
vt 0.830078 0.189453
vt 0.830564 0.251953
vt 0.791016 0.189453
vt 0.790530 0.251953
vt 0.995806 0.223869
vt 0.980181 0.251213
vt 0.933306 0.223869
vt 0.948931 0.251213
vt 0.857646 0.189453
vt 0.854553 0.251953
vt 0.815236 0.189453
vt 0.816114 0.251953
vt 0.946538 0.193571
vt 0.977788 0.193571
vt 0.830078 0.189453
vt 0.830564 0.251953
vt 0.791016 0.189453
vt 0.790530 0.251953
vt 0.883634 0.189453
vt 0.882026 0.251953
vt 0.849966 0.189453
vt 0.852242 0.251953
vt 0.395711 0.181501
vt 0.426031 0.181501
vt 0.392342 0.201714
vt 0.432769 0.201714
vt 0.398237 0.181501
vt 0.425189 0.181501
vt 0.391500 0.201714
vt 0.431927 0.201714
vt 0.398237 0.181501
vt 0.425189 0.181501
vt 0.391500 0.201714
vt 0.431927 0.201714
vt 0.425189 0.181501
vt 0.394868 0.181501
vt 0.431927 0.201714
vt 0.395711 0.181501
vt 0.429400 0.181501
vt 0.392342 0.201714
vt 0.432769 0.201714
vt 0.394868 0.181501
vt 0.425189 0.181501
vt 0.391500 0.201714
vt 0.431927 0.201714
vn -0.4165 -0.7983 -0.4351
vn 0.2614 -0.3724 -0.8905
vn 0.3865 -0.8574 0.3398
vn 0.7834 0.1525 -0.6025
vn 0.0076 0.1798 -0.9837
vn 0.7759 -0.0056 -0.6309
vn 0.8319 0.2782 -0.4802
vn 0.1668 0.9169 0.3627
vn -0.1668 0.9168 -0.3627
vn 0.3612 0.5856 -0.7256
vn -0.8524 0.1834 -0.4897
vn -0.8554 0.1878 0.4828
vn -0.2614 -0.3724 0.8905
vn -0.7834 0.1525 0.6025
vn -0.0076 0.1798 0.9837
vn -0.7759 -0.0056 0.6309
vn -0.3612 0.5856 0.7256
vn 0.8524 0.1834 0.4897
usemtl Green
s 1
f 14/1/1 2/2/2 1/3/3
f 1/3/3 2/2/2 15/4/4
f 3/5/5 4/6/6 18/7/7
f 18/7/7 4/6/6 12/8/8
f 7/9/9 12/10/8 5/11/10
f 5/11/10 12/10/8 4/12/6
f 16/13/11 5/14/10 3/15/5
f 3/15/5 5/14/10 4/16/6
f 6/17/12 7/18/9 16/19/11
f 16/19/11 7/18/9 5/20/10
f 1/21/3 17/22/13 14/23/1
f 14/23/1 17/22/13 13/24/14
f 10/25/15 11/26/16 6/27/12
f 6/27/12 11/26/16 7/28/9
f 12/10/8 7/9/9 8/29/17
f 8/29/17 7/9/9 11/30/16
f 9/31/18 8/32/17 10/33/15
f 10/33/15 8/32/17 11/34/16
f 18/35/7 12/36/8 9/37/18
f 9/37/18 12/36/8 8/38/17
f 14/39/1 13/40/14 6/41/12
f 6/41/12 13/40/14 10/42/15
f 13/43/14 17/44/13 10/45/15
f 10/45/15 17/44/13 9/46/18
f 2/47/2 14/48/1 16/49/11
f 16/49/11 14/48/1 6/50/12
f 15/51/4 2/52/2 3/53/5
f 3/53/5 2/52/2 16/49/11
f 1/54/3 15/55/4 18/56/7
f 18/56/7 15/55/4 3/57/5
f 17/58/13 1/59/3 9/60/18
f 9/60/18 1/59/3 18/61/7
