{
  "accessors": [
    {
      "bufferView": 2,
      "componentType": 5126,
      "count": 4,
      "max": [
        68.08560180664063,
        60.39469909667969,
        27.56839942932129
      ],
      "min": [
        -60.490501403808594,
        -60.43149948120117,
        6.7505998611450195
      ],
      "type": "VEC3"
    },
    {
      "bufferView": 2,
      "byteOffset": 48,
      "componentType": 5126,
      "count": 4,
      "max": [
        -0.15980778634548187,
        0.0,
        0.987148106098175
      ],
      "min": [
        -0.15980778634548187,
        0.0,
        0.987148106098175
      ],
      "type": "VEC3"
    },
    {
      "bufferView": 1,
      "componentType": 5126,
      "count": 4,
      "max": [
        0.9994999766349792,
        0.9994999766349792
      ],
      "min": [
        0.0005000000237487257,
        0.0005000000237487257
      ],
      "type": "VEC2"
    },
    {
      "bufferView": 0,
      "componentType": 5125,
      "count": 6,
      "type": "SCALAR"
    },
    {
      "bufferView": 2,
      "byteOffset": 96,
      "componentType": 5126,
      "count": 80,
      "max": [
        125.43810272216797,
        59.8578987121582,
        17.02199935913086
      ],
      "min": [
        6.902200222015381,
        -59.14189910888672,
        6.524400234222412
      ],
      "type": "VEC3"
    },
    {
      "bufferView": 2,
      "byteOffset": 1056,
      "componentType": 5126,
      "count": 80,
      "max": [
        0.09189709275960922,
        0.003700180444866419,
        -0.9957683086395264
      ],
      "min": [
        0.0845019668340683,
        -0.003700180444866419,
        -0.9964234232902527
      ],
      "type": "VEC3"
    },
    {
      "bufferView": 1,
      "byteOffset": 32,
      "componentType": 5126,
      "count": 80,
      "max": [
        0.9855999946594238,
        0.9855999946594238
      ],
      "min": [
        0.016499999910593033,
        0.016499999910593033
      ],
      "type": "VEC2"
    },
    {
      "bufferView": 0,
      "byteOffset": 24,
      "componentType": 5125,
      "count": 240,
      "type": "SCALAR"
    },
    {
      "bufferView": 2,
      "byteOffset": 2016,
      "componentType": 5126,
      "count": 456,
      "max": [
        70.0,
        60.0,
        6.0
      ],
      "min": [
        -70.0,
        -60.0,
        0.9302999973297119
      ],
      "type": "VEC3"
    },
    {
      "bufferView": 2,
      "byteOffset": 7488,
      "componentType": 5126,
      "count": 456,
      "max": [
        0.9984306693077087,
        0.9931908845901489,
        1.0
      ],
      "min": [
        -0.999401330947876,
        -0.9987290501594543,
        0.0
      ],
      "type": "VEC3"
    },
    {
      "bufferView": 1,
      "byteOffset": 672,
      "componentType": 5126,
      "count": 456,
      "max": [
        0.9890999794006348,
        0.9829999804496765
      ],
      "min": [
        0.015399999916553497,
        0.0210999995470047
      ],
      "type": "VEC2"
    },
    {
      "bufferView": 0,
      "byteOffset": 984,
      "componentType": 5125,
      "count": 864,
      "type": "SCALAR"
    },
    {
      "bufferView": 2,
      "byteOffset": 12960,
      "componentType": 5126,
      "count": 18,
      "max": [
        70.0,
        60.0,
        6.0
      ],
      "min": [
        -70.0,
        -60.0,
        0.0
      ],
      "type": "VEC3"
    },
    {
      "bufferView": 2,
      "byteOffset": 13176,
      "componentType": 5126,
      "count": 18,
      "max": [
        1.0,
        0.0,
        0.0
      ],
      "min": [
        -1.0,
        0.0,
        -1.0
      ],
      "type": "VEC3"
    },
    {
      "bufferView": 1,
      "byteOffset": 4320,
      "componentType": 5126,
      "count": 18,
      "max": [
        0.9998999834060669,
        0.9994999766349792
      ],
      "min": [
        0.0003000000142492354,
        0.00039999998989515007
      ],
      "type": "VEC2"
    },
    {
      "bufferView": 0,
      "byteOffset": 4440,
      "componentType": 5125,
      "count": 30,
      "type": "SCALAR"
    },
    {
      "bufferView": 2,
      "byteOffset": 13392,
      "componentType": 5126,
      "count": 16,
      "max": [
        70.0,
        60.0,
        6.0
      ],
      "min": [
        -70.0,
        -60.0,
        0.0
      ],
      "type": "VEC3"
    },
    {
      "bufferView": 2,
      "byteOffset": 13584,
      "componentType": 5126,
      "count": 16,
      "max": [
        0.0,
        1.0,
        0.0
      ],
      "min": [
        0.0,
        -1.0,
        0.0
      ],
      "type": "VEC3"
    },
    {
      "bufferView": 1,
      "byteOffset": 4464,
      "componentType": 5126,
      "count": 16,
      "max": [
        0.9994999766349792,
        0.9994999766349792
      ],
      "min": [
        0.0005000000237487257,
        0.0005000000237487257
      ],
      "type": "VEC2"
    },
    {
      "bufferView": 0,
      "byteOffset": 4560,
      "componentType": 5125,
      "count": 36,
      "type": "SCALAR"
    },
    {
      "bufferView": 2,
      "byteOffset": 13776,
      "componentType": 5126,
      "count": 12,
      "max": [
        69.04460144042969,
        60.39469909667969,
        27.56839942932129
      ],
      "min": [
        -70.11470031738281,
        -60.43149948120117,
        -0.7304999828338623
      ],
      "type": "VEC3"
    },
    {
      "bufferView": 2,
      "byteOffset": 13920,
      "componentType": 5126,
      "count": 12,
      "max": [
        -0.0,
        1.0,
        0.0
      ],
      "min": [
        -0.0,
        -1.0,
        0.0
      ],
      "type": "VEC3"
    },
    {
      "bufferView": 1,
      "byteOffset": 4592,
      "componentType": 5126,
      "count": 12,
      "max": [
        0.9994999766349792,
        0.9994999766349792
      ],
      "min": [
        0.0005000000237487257,
        0.0005000000237487257
      ],
      "type": "VEC2"
    },
    {
      "bufferView": 0,
      "byteOffset": 4704,
      "componentType": 5125,
      "count": 24,
      "type": "SCALAR"
    },
    {
      "bufferView": 2,
      "byteOffset": 14064,
      "componentType": 5126,
      "count": 8,
      "max": [
        68.13040161132813,
        60.39469909667969,
        27.291500091552734
      ],
      "min": [
        -60.44559860229492,
        -60.43149948120117,
        0.44190001487731934
      ],
      "type": "VEC3"
    },
    {
      "bufferView": 2,
      "byteOffset": 14160,
      "componentType": 5126,
      "count": 8,
      "max": [
        0.15980778634548187,
        -0.0,
        1.0
      ],
      "min": [
        0.0,
        -0.0,
        -0.987148106098175
      ],
      "type": "VEC3"
    },
    {
      "bufferView": 1,
      "byteOffset": 4688,
      "componentType": 5126,
      "count": 8,
      "max": [
        0.9994999766349792,
        0.9994999766349792
      ],
      "min": [
        0.0005000000237487257,
        0.0005000000237487257
      ],
      "type": "VEC2"
    },
    {
      "bufferView": 0,
      "byteOffset": 4800,
      "componentType": 5125,
      "count": 12,
      "type": "SCALAR"
    },
    {
      "bufferView": 2,
      "byteOffset": 14256,
      "componentType": 5126,
      "count": 240,
      "max": [
        76.8572006225586,
        11.102999687194824,
        13.037500381469727
      ],
      "min": [
        55.43899917602539,
        -10.38700008392334,
        11.0068998336792
      ],
      "type": "VEC3"
    },
    {
      "bufferView": 2,
      "byteOffset": 17136,
      "componentType": 5126,
      "count": 240,
      "max": [
        0.996101438999176,
        0.9999985694885254,
        0.9970309734344482
      ],
      "min": [
        -0.996101438999176,
        -0.9999985694885254,
        -0.9970309734344482
      ],
      "type": "VEC3"
    },
    {
      "bufferView": 1,
      "byteOffset": 4752,
      "componentType": 5126,
      "count": 240,
      "max": [
        0.833299994468689,
        0.833299994468689
      ],
      "min": [
        0.16670000553131104,
        0.16670000553131104
      ],
      "type": "VEC2"
    },
    {
      "bufferView": 0,
      "byteOffset": 4848,
      "componentType": 5125,
      "count": 720,
      "type": "SCALAR"
    },
    {
      "bufferView": 2,
      "byteOffset": 20016,
      "componentType": 5126,
      "count": 162,
      "max": [
        125.43810272216797,
        59.8578987121582,
        17.520099639892578
      ],
      "min": [
        6.858099937438965,
        -59.14189910888672,
        6.524400234222412
      ],
      "type": "VEC3"
    },
    {
      "bufferView": 2,
      "byteOffset": 21960,
      "componentType": 5126,
      "count": 162,
      "max": [
        0.996101438999176,
        0.9999985694885254,
        0.9964234232902527
      ],
      "min": [
        -0.996101438999176,
        -0.9999985694885254,
        -0.08820012956857681
      ],
      "type": "VEC3"
    },
    {
      "bufferView": 1,
      "byteOffset": 6672,
      "componentType": 5126,
      "count": 162,
      "max": [
        1.0,
        1.0
      ],
      "min": [
        0.0,
        0.0
      ],
      "type": "VEC2"
    },
    {
      "bufferView": 0,
      "byteOffset": 7728,
      "componentType": 5125,
      "count": 480,
      "type": "SCALAR"
    }
  ],
  "asset": {
    "extras": {
      "author": "xqspx (https://sketchfab.com/xqspx)",
      "license": "CC-BY-4.0 (http://creativecommons.org/licenses/by/4.0/)",
      "source": "https://sketchfab.com/3d-models/postal-x-psx-cd-r-disk-59475e899e164884aef067aec7f7388c",
      "title": "Postal X (PSX CD-R Disk)"
    },
    "generator": "Sketchfab-16.29.0",
    "version": "2.0"
  },
  "bufferViews": [
    {
      "buffer": 0,
      "byteLength": 9648,
      "name": "floatBufferViews",
      "target": 34963
    },
    {
      "buffer": 0,
      "byteLength": 7968,
      "byteOffset": 9648,
      "byteStride": 8,
      "name": "floatBufferViews",
      "target": 34962
    },
    {
      "buffer": 0,
      "byteLength": 23904,
      "byteOffset": 17616,
      "byteStride": 12,
      "name": "floatBufferViews",
      "target": 34962
    }
  ],
  "buffers": [
    {
      "byteLength": 41520,
      "uri": "scene.bin"
    }
  ],
  "extensionsUsed": [
    "KHR_materials_specular"
  ],
  "images": [
    {
      "uri": "textures/Material__25_baseColor.jpeg"
    },
    {
      "uri": "textures/Material__26_baseColor.jpeg"
    },
    {
      "uri": "textures/Material__27_baseColor.jpeg"
    },
    {
      "uri": "textures/Material__28_baseColor.jpeg"
    },
    {
      "uri": "textures/Material__42_baseColor.jpeg"
    },
    {
      "uri": "textures/Material__97_baseColor.jpeg"
    },
    {
      "uri": "textures/Material__99_baseColor.jpeg"
    }
  ],
  "materials": [
    {
      "doubleSided": true,
      "extensions": {
        "KHR_materials_specular": {
          "specularColorFactor": [
            1.0,
            1.0,
            1.0
          ],
          "specularFactor": 0.0
        }
      },
      "name": "Material__25",
      "pbrMetallicRoughness": {
        "baseColorTexture": {
          "index": 0
        },
        "metallicFactor": 0.2118101693262303,
        "roughnessFactor": 0.6
      }
    },
    {
      "doubleSided": true,
      "extensions": {
        "KHR_materials_specular": {
          "specularColorFactor": [
            1.0,
            1.0,
            1.0
          ],
          "specularFactor": 0.3
        }
      },
      "name": "Material__26",
      "pbrMetallicRoughness": {
        "baseColorTexture": {
          "index": 1
        },
        "metallicFactor": 0.5,
        "roughnessFactor": 0.020000000000000018
      }
    },
    {
      "doubleSided": true,
      "extensions": {
        "KHR_materials_specular": {
          "specularColorFactor": [
            1.0,
            1.0,
            1.0
          ],
          "specularFactor": 0.0
        }
      },
      "name": "Material__27",
      "pbrMetallicRoughness": {
        "baseColorTexture": {
          "index": 2
        },
        "metallicFactor": 0.0,
        "roughnessFactor": 0.6
      }
    },
    {
      "doubleSided": true,
      "extensions": {
        "KHR_materials_specular": {
          "specularColorFactor": [
            1.0,
            1.0,
            1.0
          ],
          "specularFactor": 0.3
        }
      },
      "name": "Material__28",
      "pbrMetallicRoughness": {
        "baseColorTexture": {
          "index": 3
        },
        "metallicFactor": 0.5,
        "roughnessFactor": 0.020000000000000018
      }
    },
    {
      "doubleSided": true,
      "extensions": {
        "KHR_materials_specular": {
          "specularColorFactor": [
            1.0,
            1.0,
            1.0
          ],
          "specularFactor": 0.0
        }
      },
      "name": "Material__29",
      "pbrMetallicRoughness": {
        "baseColorTexture": {
          "index": 2
        },
        "metallicFactor": 0.0,
        "roughnessFactor": 0.6
      }
    },
    {
      "doubleSided": true,
      "extensions": {
        "KHR_materials_specular": {
          "specularColorFactor": [
            1.0,
            1.0,
            1.0
          ],
          "specularFactor": 1.0
        }
      },
      "name": "Material__42",
      "pbrMetallicRoughness": {
        "baseColorTexture": {
          "index": 4
        },
        "metallicFactor": 0.2605722226962977,
        "roughnessFactor": 0.6
      }
    },
    {
      "doubleSided": true,
      "extensions": {
        "KHR_materials_specular": {
          "specularColorFactor": [
            1.0,
            1.0,
            1.0
          ],
          "specularFactor": 0.3
        }
      },
      "name": "Material__97",
      "pbrMetallicRoughness": {
        "baseColorTexture": {
          "index": 5
        },
        "metallicFactor": 0.5,
        "roughnessFactor": 0.050000000000000044
      }
    },
    {
      "alphaMode": "BLEND",
      "doubleSided": true,
      "name": "Material__98",
      "pbrMetallicRoughness": {
        "baseColorFactor": [
          0.14007372448471114,
          0.14007372448471114,
          0.14007372448471114,
          0.5226682595604101
        ],
        "metallicFactor": 0.0,
        "roughnessFactor": 0.6
      }
    },
    {
      "doubleSided": true,
      "extensions": {
        "KHR_materials_specular": {
          "specularColorFactor": [
            1.0,
            1.0,
            1.0
          ],
          "specularFactor": 0.0
        }
      },
      "name": "Material__99",
      "pbrMetallicRoughness": {
        "baseColorTexture": {
          "index": 6
        },
        "metallicFactor": 0.0,
        "roughnessFactor": 0.0
      }
    }
  ],
  "meshes": [
    {
      "name": "Object_0",
      "primitives": [
        {
          "attributes": {
            "NORMAL": 1,
            "POSITION": 0,
            "TEXCOORD_0": 2
          },
          "indices": 3,
          "material": 3,
          "mode": 4
        }
      ]
    },
    {
      "name": "Object_1",
      "primitives": [
        {
          "attributes": {
            "NORMAL": 5,
            "POSITION": 4,
            "TEXCOORD_0": 6
          },
          "indices": 7,
          "material": 6,
          "mode": 4
        }
      ]
    },
    {
      "name": "Object_2",
      "primitives": [
        {
          "attributes": {
            "NORMAL": 9,
            "POSITION": 8,
            "TEXCOORD_0": 10
          },
          "indices": 11,
          "material": 0,
          "mode": 4
        }
      ]
    },
    {
      "name": "Object_3",
      "primitives": [
        {
          "attributes": {
            "NORMAL": 13,
            "POSITION": 12,
            "TEXCOORD_0": 14
          },
          "indices": 15,
          "material": 1,
          "mode": 4
        }
      ]
    },
    {
      "name": "Object_4",
      "primitives": [
        {
          "attributes": {
            "NORMAL": 17,
            "POSITION": 16,
            "TEXCOORD_0": 18
          },
          "indices": 19,
          "material": 2,
          "mode": 4
        }
      ]
    },
    {
      "name": "Object_5",
      "primitives": [
        {
          "attributes": {
            "NORMAL": 21,
            "POSITION": 20,
            "TEXCOORD_0": 22
          },
          "indices": 23,
          "material": 4,
          "mode": 4
        }
      ]
    },
    {
      "name": "Object_6",
      "primitives": [
        {
          "attributes": {
            "NORMAL": 25,
            "POSITION": 24,
            "TEXCOORD_0": 26
          },
          "indices": 27,
          "material": 5,
          "mode": 4
        }
      ]
    },
    {
      "name": "Object_7",
      "primitives": [
        {
          "attributes": {
            "NORMAL": 29,
            "POSITION": 28,
            "TEXCOORD_0": 30
          },
          "indices": 31,
          "material": 7,
          "mode": 4
        }
      ]
    },
    {
      "name": "Object_8",
      "primitives": [
        {
          "attributes": {
            "NORMAL": 33,
            "POSITION": 32,
            "TEXCOORD_0": 34
          },
          "indices": 35,
          "material": 8,
          "mode": 4
        }
      ]
    }
  ],
  "nodes": [
    {
      "children": [
        1
      ],
      "matrix": [
        0.013028303161263466,
        0.0,
        0.0,
        0.0,
        0.0,
        2.8928644282862827e-18,
        -0.013028303161263466,
        0.0,
        0.0,
        0.013028303161263466,
        2.8928644282862827e-18,
        0.0,
        0.0,
        0.0,
        0.0,
        1.0
      ],
      "name": "Sketchfab_model"
    },
    {
      "children": [
        2,
        3,
        4,
        5,
        6,
        7,
        8,
        9,
        10
      ],
      "name": "f318c2233a7a4134934b9f47cab0a7a1.obj.cleaner.materialmerger.gles"
    },
    {
      "mesh": 0,
      "name": "Object_2"
    },
    {
      "mesh": 1,
      "name": "Object_3"
    },
    {
      "mesh": 2,
      "name": "Object_4"
    },
    {
      "mesh": 3,
      "name": "Object_5"
    },
    {
      "mesh": 4,
      "name": "Object_6"
    },
    {
      "mesh": 5,
      "name": "Object_7"
    },
    {
      "mesh": 6,
      "name": "Object_8"
    },
    {
      "mesh": 7,
      "name": "Object_9"
    },
    {
      "mesh": 8,
      "name": "Object_10"
    }
  ],
  "samplers": [
    {
      "magFilter": 9729,
      "minFilter": 9987,
      "wrapS": 10497,
      "wrapT": 10497
    }
  ],
  "scene": 0,
  "scenes": [
    {
      "name": "Sketchfab_Scene",
      "nodes": [
        0
      ]
    }
  ],
  "textures": [
    {
      "sampler": 0,
      "source": 0
    },
    {
      "sampler": 0,
      "source": 1
    },
    {
      "sampler": 0,
      "source": 2
    },
    {
      "sampler": 0,
      "source": 3
    },
    {
      "sampler": 0,
      "source": 4
    },
    {
      "sampler": 0,
      "source": 5
    },
    {
      "sampler": 0,
      "source": 6
    }
  ]
}
